SplineFontDB: 3.0
FontName: ObliquayBold
FullName: Obliquay Bold
FamilyName: Obliquay
Weight: Bold
Copyright: (c) Frank Sikernitsky, 2014-2017
Version: Version 1.4.067
ItalicAngle: 0
UnderlinePosition: -100
UnderlineWidth: 50
Ascent: 1050
Descent: 235
InvalidEm: 0
sfntRevision: 0x00010000
LayerCount: 2
Layer: 0 0 "Back" 1
Layer: 1 0 "Fore" 0
XUID: [1021 668 1240808111 15182958]
StyleMap: 0x0020
FSType: 0
OS2Version: 3
OS2_WeightWidthSlopeOnly: 0
OS2_UseTypoMetrics: 1
CreationTime: -2082844800
ModificationTime: 1517123619
PfmFamily: 81
TTFWeight: 700
TTFWidth: 5
LineGap: 0
VLineGap: 0
Panose: 0 0 0 0 0 0 0 0 0 0
OS2TypoAscent: 0
OS2TypoAOffset: 1
OS2TypoDescent: 0
OS2TypoDOffset: 1
OS2TypoLinegap: 0
OS2WinAscent: 0
OS2WinAOffset: 1
OS2WinDescent: 0
OS2WinDOffset: 1
HheadAscent: 0
HheadAOffset: 1
HheadDescent: 0
HheadDOffset: 1
OS2SubXSize: 650
OS2SubYSize: 699
OS2SubXOff: 0
OS2SubYOff: 140
OS2SupXSize: 650
OS2SupYSize: 699
OS2SupXOff: 0
OS2SupYOff: 479
OS2StrikeYSize: 49
OS2StrikeYPos: 258
OS2Vendor: 'XXXX'
OS2CodePages: 00000001.00000000
OS2UnicodeRanges: a000003f.5000004f.00000000.00000000
Lookup: 258 0 0 "'kern' Horizontal Kerning in Latin lookup 1" { "'kern' Horizontal Kerning in Latin lookup 1-1" [155,0,0] } ['kern' ('DFLT' <'dflt' > 'latn' <'dflt' > ) ]
Lookup: 258 0 0 "'dist' Distance in Latin lookup 0" { } ['dist' ('DFLT' <'dflt' > 'latn' <'dflt' > ) ]
MarkAttachClasses: 1
DEI: 91125
KernClass2: 35 29 "'kern' Horizontal Kerning in Latin lookup 1-1"
 1 A
 1 B
 1 C
 1 D
 1 E
 1 F
 3 G S
 13 H I M N i l d
 3 J U
 1 K
 1 L
 3 O Q
 1 P
 1 R
 1 T
 1 V
 1 W
 1 X
 1 Y
 1 Z
 7 a h m n
 5 b p s
 1 c
 1 e
 1 f
 5 g q u
 1 j
 1 k
 1 o
 1 r
 1 t
 5 v w y
 1 x
 1 z
 1 A
 31 B D E F H I K L M N P R b h i l
 5 C O Q
 1 G
 1 J
 1 S
 1 T
 1 U
 1 V
 1 W
 1 X
 1 Y
 1 Z
 1 a
 5 c e o
 1 d
 3 f t
 1 g
 1 j
 1 k
 9 m n p r u
 1 q
 1 s
 3 v y
 1 w
 1 x
 1 z
 0 

StartChar: .notdef
Encoding: 0 -1 0
AltUni2: 000000.ffffffff.0
Width: 694
VWidth: 1024
Flags: W
HStem: 0 82<173 542.08> 618 82<173 542.08>
VStem: 91 82<82 618> 542.08 82<82 618>
LayerCount: 2
Fore
SplineSet
91 700 m 1
 107 700 l 1
 608.080078125 700 l 1
 624.080078125 700 l 1
 624.080078125 684 l 1
 624.080078125 16 l 1
 624.080078125 0 l 1
 608.080078125 0 l 1
 107 0 l 1
 91 0 l 1
 91 16 l 1
 91 684 l 1
 91 700 l 1
173 618 m 1
 173 82 l 1
 542.080078125 82 l 1
 542.080078125 618 l 1
 173 618 l 1
EndSplineSet
EndChar

StartChar: exclam
Encoding: 33 33 2
Width: 319
VWidth: 1024
Flags: W
HStem: -6 150.991<96.5117 247>
VStem: 91.4531 155.547<-6 144.488 536.068 929.479>
LayerCount: 2
Fore
SplineSet
91 929.479492188 m 1
 105.408203125 930.920898438 l 1
 225.408203125 942.920898438 l 1
 242.653320312 944.645507812 l 1
 242.997070312 927.31640625 l 1
 250.997070312 523.31640625 l 1
 251.01171875 522.55859375 l 1
 250.955078125 521.801757812 l 1
 225.955078125 188.801757812 l 1
 224.7890625 173.268554688 l 1
 209.229492188 174.018554688 l 1
 126.229492188 178.018554688 l 1
 111.864257812 178.7109375 l 1
 111.02734375 193.068359375 l 1
 91.02734375 536.068359375 l 1
 91 536.534179688 l 1
 91 537 l 1
 91 915 l 1
 91 929.479492188 l 1
96.51171875 -6 m 1
 96.0087890625 9.4794921875 l 1
 92.0087890625 132.479492188 l 1
 91.453125 149.546875 l 1
 108.520507812 148.991210938 l 1
 231.520507812 144.991210938 l 1
 247 144.48828125 l 1
 247 129 l 1
 247 10 l 1
 247 -6 l 1
 231 -6 l 1
 112 -6 l 1
 96.51171875 -6 l 1
EndSplineSet
EndChar

StartChar: quotedbl
Encoding: 34 34 3
Width: 475
VWidth: 1024
Flags: W
HStem: 709.102 218.95
VStem: 284 123.036<811 925>
LayerCount: 2
Fore
SplineSet
85.7998046875 928.051757812 m 1
 103.984375 926.971679688 l 1
 204.984375 920.971679688 l 1
 218.958007812 920.141601562 l 1
 219.9921875 908.076171875 l 1
 227.9921875 814.73046875 l 1
 228.202148438 812.276367188 l 1
 227.419921875 809.91015625 l 1
 199.419921875 725.20703125 l 1
 196.477539062 716.306640625 l 1
 185.8359375 715.1015625 l 1
 132.8359375 709.1015625 l 1
 118.120117188 707.435546875 l 1
 115.323242188 721.978515625 l 1
 95.3232421875 812 l 1
 95.142578125 812.81640625 l 1
 95.0751953125 813.645507812 l 1
 87.0751953125 912.322265625 l 1
 85.7998046875 928.051757812 l 1
284 925 m 1
 325.61328125 928.026367188 348.262022896 923.931695584 389.875 926.958007812 c 2
 407.036132812 928.206054688 l 1
 407.036132812 811.536132812 l 1
 397.173441395 781.25819923 387.310883389 750.980132236 377.448242188 720.702148438 c 1
 373.515625 706.6015625 l 1
 295.389648438 721.069335938 l 1
 285.271685644 751.36887497 288.111328125 780.698242188 278 811 c 1
 284 925 l 1
EndSplineSet
EndChar

StartChar: numbersign
Encoding: 35 35 4
Width: 929
VWidth: 1024
Flags: W
HStem: 0 21G<199.968 321.756 485.3 639.099> 187 102<82.5957 217.956 373.675 510.915 669.772 793.803> 639.583 99.29<153.655 267.968 456.993 576.007 718.944 837.139>
LayerCount: 2
Fore
SplineSet
576.007446138 640.223632812 m 1
 437.25229782 641.83203125 l 1
 373.67494901 289 l 1
 527.070845845 289 l 1
 576.007446138 640.223632812 l 1
617.736758328 927 m 1
 632.781907102 927 l 1
 720.299125824 927 l 1
 738.499023438 927 l 1
 736.708984375 909.979492188 l 1
 718.944176506 746.547851562 l 1
 863.59375 748.265625 l 1
 882.301757812 748.489257812 l 1
 879.626953125 730.599609375 l 1
 866.626953125 643.6484375 l 1
 864.620117188 630.228515625 l 1
 850.586914062 630.401367188 l 1
 706.924733786 632.153320312 l 1
 669.772023485 294.063476562 l 1
 790.909179688 293.22265625 l 1
 809.0625 293.092773438 l 1
 806.649414062 275.709960938 l 1
 795.649414062 196.487304688 l 1
 793.802734375 183.186523438 l 1
 779.912109375 183.084960938 l 1
 657.83700453 182.224609375 l 1
 639.09909773 14.3916015625 l 1
 637.547159627 0 l 1
 622.109075551 0 l 1
 504.707928485 0 l 1
 485.299842907 0 l 1
 487.77001974 18.037109375 l 1
 510.91463863 187 l 1
 352.675319118 187 l 1
 321.756417948 13.3671875 l 1
 319.375876223 -0 l 1
 304.912313387 0 l 1
 217.590820312 0 l 1
 199.967773438 0 l 1
 201.665039062 16.947265625 l 1
 217.956054688 179.586914062 l 1
 84.697265625 178.734375 l 1
 66.2998046875 178.6171875 l 1
 68.7314453125 196.235351562 l 1
 80.7314453125 283.1875 l 1
 82.595703125 296.694335938 l 1
 96.69921875 296.6015625 l 1
 230.748641329 295.731445312 l 1
 267.968056828 637.083984375 l 1
 157.20703125 639.583007812 l 1
 139.241210938 640 l 1
 141.747070312 657.192382812 l 1
 151.747070312 725.788085938 l 1
 153.655273438 738.873046875 l 1
 167.331054688 739.087890625 l 1
 280.046908864 740.799804688 l 1
 301.821986674 912.821289062 l 1
 303.555279532 927 l 1
 318.786994404 927 l 1
 471.40848559 927 l 1
 491.635794371 927 l 1
 488.243209733 908.31640625 l 1
 456.992867115 736.239257812 l 1
 592.097990424 737.82421875 l 1
 615.84191382 913.015625 l 1
 617.736758328 927 l 1
EndSplineSet
EndChar

StartChar: dollar
Encoding: 36 36 5
Width: 812
VWidth: 1024
Flags: W
HStem: 1.14062 127.736<225.168 328.047 531.151 593.654> 806.301 138.146<243.302 301.851 504.238 623.786>
VStem: 74.0996 144<562.671 782.644> 307.656 191.381<946.59 1097.17> 605.84 150<141.224 348.098>
LayerCount: 2
Fore
SplineSet
110.436523438 191.05859375 m 1
 127.182617188 185.588867188 l 2
 280.575428208 136.948242188 317.370866154 131.7890625 491.510731618 128.876953125 c 0
 607.587890625 130.694335938 605.83984375 136.80859375 605.83984375 256.59375 c 0
 605.83984375 357.693359375 609.955078125 358.998046875 376.197210745 392.337890625 c 1
 97.0478515625 440.532226562 74.099609375 462.5703125 74.099609375 684.598632812 c 0
 74.099609375 881.05078125 110.504882812 937.498046875 300.196671062 944.446289062 c 1
 303.221568164 989.439453125 307.648898138 1082.88085938 307.656374931 1083.0390625 c 2
 308.326082023 1097.16503906 l 1
 324.162999159 1097.97460938 l 1
 480.568978118 1105.97460938 l 1
 498.479103331 1106.89160156 l 1
 499.03772663 1090.49804688 l 1
 504.238370694 941.623046875 l 1
 563.755784645 936.94140625 636.814453125 926.532226562 719.641601562 901.126953125 c 2
 737.336914062 895.69921875 l 1
 729.232421875 879.431640625 l 1
 678.232421875 777.061523438 l 1
 672.338867188 765.231445312 l 1
 659.3828125 768.89453125 l 2
 569.415717463 793.552734375 546.331651021 806.30078125 373.484202751 806.30078125 c 0
 227.203125 806.30078125 218.099609375 793.526367188 218.099609375 636.658203125 c 0
 218.099609375 552.649414062 212.405273438 551.188476562 504.453061484 507.734375 c 0
 734.74609375 468.352539062 755.83984375 447.391601562 755.83984375 266.17578125 c 0
 755.83984375 71.1689453125 739.028320312 11.5966796875 532.456858171 -0.1806640625 c 1
 530.081374006 -46.103515625 524.644676884 -140.701171875 524.61797405 -141.176757812 c 2
 523.813684672 -155.171875 l 1
 508.117758503 -155.974609375 l 1
 351.711779543 -163.974609375 l 1
 333.79844999 -164.891601562 l 1
 333.243031031 -148.495117188 l 1
 328.046659421 1.140625 l 1
 143.490234375 13.525390625 92.3359375 52.9208984375 87.2802734375 56.89453125 c 2
 80.2744140625 62.400390625 l 1
 82.501953125 71.9033203125 l 1
 106.501953125 174.2734375 l 1
 110.436523438 191.05859375 l 1
EndSplineSet
EndChar

StartChar: percent
Encoding: 37 37 6
Width: 905
VWidth: 1024
Flags: W
HStem: -15 95<630.108 758.611> 245 104<635.268 755.693> 552.999 133.001<194.362 277.735> 842 99<192.965 280.074> 910.51 20G<657.745 678.285>
VStem: 83.6123 108<690.983 838.467> 280.026 102.971<686.794 838.493> 518.145 111.551<82.9129 237.65> 762.512 94<86.2989 238.025>
LayerCount: 2
Fore
SplineSet
75.400390625 20.5361328125 m 1xef80
 87.8623046875 40.783203125 l 1
 657.74477792 919.55859375 l 1
 664.975467426 930.509765625 l 1
 678.284628785 926.061523438 l 1
 785.911132812 889.329101562 l 1
 803.850585938 883.112304688 l 1
 794.411132812 867.109375 l 1
 257.393137373 7.7646484375 l 1
 251.699087227 -1.236328125 l 1
 240.296322348 0.130859375 l 1
 99.572265625 17.5322265625 l 1
 75.400390625 20.5361328125 l 1xef80
83.6123046875 775 m 0
 83.6123046875 904.661132812 97.681640625 941 219.612304688 941 c 2
 236.048829092 941 l 2xf780
 367.821677207 941 382.996383693 904.729492188 382.996383693 775 c 2
 382.996383693 733 l 2
 382.996383693 629.721679688 373.162729763 554.1171875 242.492868182 552.999023438 c 0
 106.590820312 554.106445312 83.6123046875 645.708984375 83.6123046875 775 c 0
236.048829092 842 m 0
 187.357421875 842 191.612304688 840.689453125 191.612304688 783.953125 c 2
 191.612304688 749.48828125 l 2
 191.612304688 691.83203125 189.241210938 686 236.048829092 686 c 0
 279.900138012 686 280.025834484 695.829101562 280.025834484 743.139648438 c 2
 280.025834484 810.255859375 l 2
 280.025834484 846.321289062 288.426548642 842 236.048829092 842 c 0
856.51171875 144.010742188 m 0
 856.51171875 16.0888671875 840.181640625 -15 690.620689963 -15 c 0
 534.382071199 -15 518.145229531 22.5791015625 518.145229531 149.7578125 c 0
 518.145229531 273.517578125 524.714965093 349 685.042909054 349 c 0
 841.8515625 349 856.51171875 269.021484375 856.51171875 144.010742188 c 0
627.551438067 97.3203125 m 0
 627.551438067 87.1728515625 621.586093037 80 679.465128144 80 c 0
 758.833007812 80 762.51171875 84.6474609375 762.51171875 141.989257812 c 2
 762.51171875 151.104492188 l 2
 762.51171875 220.029296875 764 245 696.198470873 245 c 0
 628.067841069 245 629.696657842 226.104492188 629.696657842 166.602539062 c 2
 629.696657842 148.370117188 l 1
 629.696657842 139.25390625 l 2
 629.696657842 121.830078125 627.551438067 106.744140625 627.551438067 97.3203125 c 0
EndSplineSet
EndChar

StartChar: ampersand
Encoding: 38 38 7
Width: 699
VWidth: 1024
Flags: W
HStem: -61.999 269.999<283.6 474.97> 84.0088 123.991<233.148 282.746 476.232 522.227> 435.109 129.915<260.722 485.96> 704.233 21G<549.276 574.091> 766.151 258.842<282.014 450.2>
VStem: 75.4004 136<230.998 407.527> 102.4 131.621<589.898 738.716>
LayerCount: 2
Fore
SplineSet
267.006835938 -46.8671875 m 5xbc
 282.74609375 84.0087890625 l 5
 118.688476562 98.91015625 75.400390625 175.82421875 75.400390625 283.735351562 c 4x7c
 75.400390625 293.239257812 75.484375 305.043945312 76.44140625 315.030273438 c 4
 80.6787109375 397.672851562 82.3779296875 465.970703125 172.15234375 503.192382812 c 5
 114.473632812 527.65625 106.341796875 571.116210938 102.400390625 662.233398438 c 6
 102.400390625 679.072265625 l 6
 102.400390625 809.130859375 174.560546875 857.7109375 280.854492188 872.166015625 c 5
 273.248046875 920.75 259.838867188 1002.66503906 259.737304688 1003.28125 c 6
 256.922851562 1020.48925781 l 5
 277.142578125 1020.99316406 l 5
 437.357421875 1024.99316406 l 5
 456.6015625 1025.47363281 l 5
 455.947265625 1009.09765625 l 5
 450.662109375 876.756835938 l 5
 529.299804688 870.896484375 570.772460938 849.935546875 627.735351562 806.08203125 c 6
 640.408203125 796.326171875 l 5
 630.090820312 784.270507812 l 5
 574.090820312 718.83203125 l 5
 561.59765625 704.233398438 l 5
 549.276367188 718.965820312 l 6
 518.99609375 755.168945312 490.686523438 766.151367188 431.987304688 766.151367188 c 4
 419.784179688 766.151367188 405.395507812 765.23046875 389.153320312 764.263671875 c 4
 261.778320312 756.682617188 236.924804688 746.15234375 234.021484375 659.516601562 c 5x7a
 238.209960938 591.611328125 264.791992188 565.268554688 387.083984375 565.024414062 c 5
 487.061523438 572.661132812 l 5
 505.087890625 574.038085938 l 5
 506.676757812 558.6953125 l 5
 511.676757812 504.8046875 l 5
 511.80859375 503.389648438 l 5
 511.66796875 501.975585938 l 5
 505.557617188 441.348632812 l 5
 503.854492188 426.127929688 l 5
 485.959960938 427.470703125 l 5
 384.15625 435.109375 l 5
 222.334960938 434.88671875 220.0234375 408.731445312 212.645507812 323.168945312 c 6
 212.614257812 322.8125 l 5
 212.56640625 322.45703125 l 6
 211.426757812 314.016601562 211.400390625 306.174804688 211.400390625 297.497070312 c 4
 211.400390625 231.5546875 238.424804688 208 364.374023438 208 c 4
 495.506835938 208 513.21875 213.665039062 565.8984375 284.543945312 c 6
 578.274414062 301.1953125 l 5
 591.234375 284.995117188 l 5
 651.234375 209.995117188 l 5
 660.712890625 198.146484375 l 5
 649.383789062 188.053710938 l 6
 601.205078125 145.130859375 589.346679688 100.997070312 476.232421875 88.576171875 c 5
 479.865234375 42.1630859375 486.77734375 -44.8447265625 486.780273438 -44.87890625 c 6
 488.124023438 -61.7900390625 l 5
 468.95703125 -61.9990234375 l 5
 285.224609375 -63.9990234375 l 5
 264.920898438 -64.2197265625 l 5
 267.006835938 -46.8671875 l 5xbc
EndSplineSet
EndChar

StartChar: quotesingle
Encoding: 39 39 8
Width: 301
VWidth: 1024
Flags: W
HStem: 702.683 219.56
VStem: 89.7002 147.406
LayerCount: 2
Fore
SplineSet
98.947265625 922.2421875 m 1
 115.862304688 920.954101562 l 1
 220.862304688 912.954101562 l 1
 237.106445312 911.715820312 l 1
 235.576171875 897.78515625 l 1
 225.545898438 806.465820312 l 1
 211.50390625 716.865234375 l 1
 209.594726562 702.682617188 l 1
 195.287109375 703.00390625 l 1
 106.287109375 705.00390625 l 1
 89.7001953125 705.376953125 l 1
 90.6748046875 719.654296875 l 1
 96.6552734375 807.295898438 l 1
 98.6494140625 905.280273438 l 1
 98.947265625 922.2421875 l 1
EndSplineSet
EndChar

StartChar: parenleft
Encoding: 40 40 9
Width: 413
VWidth: 1024
Flags: W
HStem: 920.325 20G<270.807 292.062>
VStem: 87.0996 126<126.822 751.653>
LayerCount: 2
Fore
SplineSet
283.416992188 940.325195312 m 1
 292.061523438 928.379882812 l 1
 347.061523438 854.696289062 l 1
 357.109375 841.236328125 l 1
 342.568359375 832.44140625 l 2
 235.190429688 767.495117188 213.099609375 805.028320312 213.099609375 440.342773438 c 0
 213.099609375 102.893554688 244.875 58.9619140625 365.907226562 -6.638671875 c 2
 383.084960938 -15.9501953125 l 1
 370.177734375 -30.353515625 l 1
 317.177734375 -89.494140625 l 1
 308.642578125 -99.3173828125 l 1
 297.286132812 -92.962890625 l 2
 100.676757812 13.728515625 87.099609375 31.6298828125 87.099609375 417.086914062 c 2
 87.099609375 567.396484375 l 2
 87.099609375 822.451171875 104.13671875 834.727539062 270.806640625 932.68359375 c 2
 283.416992188 940.325195312 l 1
EndSplineSet
EndChar

StartChar: parenright
Encoding: 41 41 10
Width: 409
VWidth: 1024
Flags: W
VStem: 207.114 141<95.2507 760.831>
LayerCount: 2
Fore
SplineSet
142.206054688 -119 m 1
 72.2060546875 -41 l 1
 59.7998046875 -24.5029296875 l 1
 75.30859375 -14.28125 l 2
 202.201171875 66.9970703125 207.114257812 79.1982421875 207.114257812 446.724609375 c 1
 195.071289062 785.578125 191.197265625 796.51953125 79.8779296875 872.869140625 c 2
 65.2587890625 883.204101562 l 1
 77.1640625 899 l 1
 142.1640625 972 l 1
 151.673828125 980.255859375 l 1
 163.350585938 972 l 2
 324.263671875 860.997070312 335.137695312 825.16015625 348.114257812 447.267578125 c 1
 348.114257812 31.814453125 336.48046875 -6.6455078125 162.952148438 -119 c 2
 151.434570312 -126.6328125 l 1
 142.206054688 -119 l 1
EndSplineSet
EndChar

StartChar: asterisk
Encoding: 42 42 11
Width: 665
VWidth: 1024
Flags: W
LayerCount: 2
Fore
SplineSet
578.365234375 735 m 1
 615.365234375 625.939453125 l 1
 620.176757812 611.114257812 l 1
 605.482421875 605.916015625 l 1
 480.411132812 561.672851562 l 1
 586.325195312 447.754882812 l 1
 597.483398438 437.180664062 l 1
 583.614257812 427 l 1
 489.614257812 358 l 1
 475.3515625 347.530273438 l 1
 466.364257812 358 l 1
 357.026050518 510.806640625 l 1
 250.219974822 404 l 1
 239.044296406 394.62109375 l 1
 224.681838618 404 l 1
 131.64453125 474 l 1
 118.71484375 483.732421875 l 1
 128.59375 483.766601562 l 1
 251 584 l 5
 89.3701171875 583.11328125 l 1
 70.2001953125 585.401367188 l 1
 76.0078125 603.813476562 l 1
 123.0078125 748 l 1
 128.96875 757.809570312 l 1
 146.1875 748 l 1
 253.208635801 689.200195312 l 1
 234.624905445 812.42578125 l 1
 231.581086504 817 l 1
 289.764856245 817 l 1
 388.31975116 817 l 1
 446.453991303 817 l 1
 443.465330324 812.499023438 l 1
 419.133915238 666.178710938 l 1
 554.549804688 735 l 1
 571.983398438 746.106445312 l 1
 578.365234375 735 l 1
EndSplineSet
EndChar

StartChar: plus
Encoding: 43 43 12
Width: 949
VWidth: 1024
Flags: W
HStem: 382.857 134.23<592.572 891.38> 396.61 112.394<385.955 412.201 548.029 760.011> 406.145 93.3535<68.9004 394.585>
VStem: 403.05 152.796<529.028 777> 425.761 108.829<126 377.599>
LayerCount: 2
Fore
SplineSet
425.229423764 141.485351562 m 1x88
 416.041276549 396.610351562 l 1x48
 84.4228515625 405.703125 l 1
 68.900390625 406.14453125 l 1
 68.900390625 420.9296875 l 1
 68.900390625 484.717773438 l 1
 68.900390625 499.498046875 l 1x28
 84.4189453125 499.943359375 l 1
 412.200645593 509.00390625 l 1
 403.049988268 761.274414062 l 1
 402.479308831 777 l 1
 420.102681302 777 l 1
 538.790466204 777 l 1
 556.339900281 777 l 1
 555.846283396 761.337890625 l 1x50
 548.028599939 513.470703125 l 1
 875.1875 517.087890625 l 1
 891.379882812 517.2734375 l 1
 891.379882812 501.85546875 l 1
 891.379882812 398.08203125 l 1
 891.379882812 382.341796875 l 1
 874.856445312 382.857421875 l 1
 542.892485005 392.829101562 l 1
 535.05189106 141.5546875 l 1
 534.589515749 126 l 1
 517.996073868 126 l 1
 442.283158183 126 l 1
 425.760530539 126 l 1
 425.229423764 141.485351562 l 1x88
EndSplineSet
EndChar

StartChar: comma
Encoding: 44 44 13
Width: 304
VWidth: 1024
Flags: W
HStem: -99 215.948
VStem: 89.8984 150.636
LayerCount: 2
Fore
SplineSet
98.6640625 107.84375 m 1
 112.329101562 108.948242188 l 1
 211.329101562 116.948242188 l 1
 226.936523438 118.208984375 l 1
 228.534179688 102.6328125 l 1
 240.534179688 1.6572265625 l 1
 242.342773438 -13.5595703125 l 1
 226.698242188 -13.5595703125 l 1
 163.33984375 -88.01953125 164.004882812 -99 128.618164062 -99 c 2
 121.618164062 -99 l 1
 108.635742188 -99 l 1
 105.9609375 -86.2958984375 l 1
 93.9609375 -50.4326171875 l 1
 89.8984375 -38.2919921875 l 1
 107.110351562 -38.2919921875 l 2
 109.170898438 -36.8056640625 111.549804688 -34.8974609375 115.040039062 -32 c 1
 105.618164062 -32 l 1
 88.400390625 -32 l 1
 89.6611328125 -14.8291015625 l 1
 97.6611328125 94.1708984375 l 1
 98.6640625 107.84375 l 1
EndSplineSet
EndChar

StartChar: hyphen
Encoding: 45 45 14
Width: 457
VWidth: 1024
Flags: W
HStem: 397.709 119.166<90.9238 103.203>
VStem: 86.3906 303.99
LayerCount: 2
Fore
SplineSet
90.923828125 397.708984375 m 1
 90.390625 413.458007812 l 1
 86.390625 503.573242188 l 1
 85.7998046875 516.875 l 1
 103.203125 515.978515625 l 1
 375.203125 501.978515625 l 1
 390.380859375 501.197265625 l 1
 390.380859375 489.744140625 l 1
 390.380859375 415.131835938 l 1
 390.380859375 403.295898438 l 1
 374.6796875 403.002929688 l 1
 106.6796875 398.002929688 l 1
 90.923828125 397.708984375 l 1
EndSplineSet
EndChar

StartChar: period
Encoding: 46 46 15
Width: 308
VWidth: 1024
Flags: W
HStem: -9.11133 129.306
VStem: 89.7002 150.959
LayerCount: 2
Fore
SplineSet
89.7001953125 -9.111328125 m 1
 89.7001953125 8 l 1
 89.7001953125 103 l 1
 89.7001953125 120.194335938 l 1
 106.850585938 118.958984375 l 1
 217.850585938 110.958984375 l 1
 231.663085938 109.962890625 l 1
 232.659179688 99.2880859375 l 1
 240.659179688 13.5068359375 l 1
 241.814453125 1.1142578125 l 1
 225.7734375 0.0361328125 l 1
 106.7734375 -7.9638671875 l 1
 89.7001953125 -9.111328125 l 1
EndSplineSet
EndChar

StartChar: slash
Encoding: 47 47 16
Width: 484
VWidth: 1024
Flags: W
VStem: 63.7002 379.972
LayerCount: 2
Fore
SplineSet
63.7001953125 4.4140625 m 1
 67.818359375 18.697265625 l 1
 329.818359375 927.299804688 l 1
 334.166992188 942.884765625 l 1
 349.702148438 938.362304688 l 1
 428.702148438 916.106445312 l 1
 443.671875 911.889648438 l 1
 439.703125 897.30078125 l 1
 190.703125 -18.072265625 l 1
 186.387695312 -34.4677734375 l 1
 170.26953125 -29.2119140625 l 1
 78.26953125 -0.1826171875 l 1
 63.7001953125 4.4140625 l 1
EndSplineSet
EndChar

StartChar: zero
Encoding: 48 48 17
Width: 947
VWidth: 1024
Flags: W
HStem: -15 134<315.458 679.166> 808 133<329.327 665.073>
VStem: 113.1 155.06<167.024 741.527> 727 154<167.04 741.52>
LayerCount: 2
Fore
SplineSet
496.889206425 -15 m 0
 137.223632812 -15 113.099609375 21.359375 113.099609375 463 c 0
 113.099609375 884.525390625 148.471679688 941 496.889206425 941 c 0
 845.620117188 941 881 884.532226562 881 463 c 0
 881 21.3935546875 857.881835938 -15 496.889206425 -15 c 0
268.159492361 463.022460938 m 0
 268.159492361 120.858398438 272.69613087 119 496.889206425 119 c 0
 722.53081533 119 727 120.900390625 727 463.022460938 c 0
 727 789.704101562 711.792774621 808 496.889206425 808 c 0
 283.432072256 808 268.159492361 789.745117188 268.159492361 463.022460938 c 0
EndSplineSet
EndChar

StartChar: one
Encoding: 49 49 18
Width: 480
VWidth: 1024
Flags: W
HStem: 718.557 21G<67.1709 205.075>
VStem: 228.101 149<5.66895 741.875>
LayerCount: 2
Fore
SplineSet
377.100585938 14.23046875 m 1
 370.642578125 -8.23828125 l 2
 369.810546875 -8.79296875 362.100585938 -11 361.100585938 -11 c 2
 287.100585938 -11 l 1
 287.100585938 -1.6435546875 l 1
 228.100585938 5.6689453125 l 1
 228.100585938 741.875 l 1
 66.2998046875 718.556640625 l 1
 71.5185546875 838.37890625 l 1
 266.620117188 929.080078125 l 1
 377.100585938 926.65234375 l 1
 377.100585938 14.23046875 l 1
EndSplineSet
EndChar

StartChar: two
Encoding: 50 50 19
Width: 719
VWidth: 1024
Flags: W
HStem: 0 133.458<231.582 618.235> 813 128<229.115 476.588>
VStem: 63.7002 167.882<140.851 239.476> 67.7002 152.216<683.291 802.221> 495.923 152.157<548.528 793.193>
LayerCount: 2
Fore
SplineSet
63.7001953125 0 m 1xe8
 63.7001953125 16 l 1
 63.7001953125 74.6455078125 l 2xe8
 63.7001953125 318.727539062 76.77734375 288.146484375 226.154578964 396.469726562 c 2
 226.999140299 397.01953125 l 1
 227.91371708 397.48046875 l 2
 474.831944268 521.905273438 495.923003806 549.94921875 495.923003806 644.754882812 c 0
 495.923003806 801.811523438 487.404093042 813 359.319583954 813 c 0
 224.104439145 813 219.916640198 806.590820312 219.916640198 709 c 0
 219.916640198 665.4296875 227.920281029 618 198.700195312 618 c 0
 185.565429688 618 184.1484375 624.939453125 184.1484375 624.939453125 c 1
 77.2861328125 680.821289062 l 1
 72.7021484375 683.21875 l 1
 70.3896484375 687.844726562 l 2
 66.677734375 695.266601562 67.7001953125 699.94140625 67.7001953125 709 c 0xd8
 67.7001953125 902.674804688 111.122070312 941 354.951276431 941 c 0
 607.729492188 941 648.080078125 890.3515625 648.080078125 636.303710938 c 0
 647.051757812 500.038085938 619.5 455.311523438 464.525451613 350.154296875 c 2
 463.829673104 349.717773438 l 1
 463.090134941 349.340820312 l 2
 253.943053643 242.794921875 236.319946734 262.603515625 231.581870129 140.850585938 c 1
 607.434570312 133.458007812 l 1
 618.235351562 133.2265625 l 1
 622.049804688 123.451171875 l 1
 662.049804688 20.9365234375 l 1
 670.21875 0 l 1
 647.080078125 0 l 1
 79.7001953125 0 l 1
 63.7001953125 0 l 1xe8
EndSplineSet
EndChar

StartChar: three
Encoding: 51 51 20
Width: 836
VWidth: 1024
Flags: W
HStem: -15 143<270.85 584.78> 418 143<281.492 558.561> 807 133<254.499 558.289>
VStem: 592.719 156.867<597.816 767.804> 608.28 170.305<150.959 389.186>
LayerCount: 2
Fore
SplineSet
77.787109375 748.791015625 m 2xf0
 94.509765625 897.212890625 137.130859375 940 349.831467691 940 c 0
 575.500391258 940 749.5859375 925.559570312 749.5859375 733.90625 c 0xf0
 749.5859375 718.720703125 748.536132812 702.59375 746.479492188 685.678710938 c 0
 733.333007812 574.375976562 713.522460938 523.212890625 637.135742188 494.9765625 c 1
 756.813476562 460.411132812 778.5859375 404.840820312 778.5859375 263.663085938 c 0
 778.5859375 30.9921875 728.409179688 -15 429.052679654 -15 c 0
 142.301757812 -15 93.1826171875 27.6455078125 76.7294921875 251.829101562 c 2
 75.400390625 269.931640625 l 1
 93.52734375 268.977539062 l 1
 226.52734375 261.977539062 l 1
 241.333890907 261.249023438 l 1
 242.682459166 247.428710938 l 2
 253.287157868 138.725585938 267.624064391 128 429.052679654 128 c 0
 595.385662539 128 608.280483068 140.270507812 608.280483068 270.157226562 c 0xe8
 608.280483068 405.14453125 590.060465105 418 390.857060778 418 c 2
 298.903621622 418 l 1
 281.492319534 418 l 1
 281.492319534 434 l 1
 281.492319534 488.443359375 l 1
 277.289334929 543.888671875 l 1
 275.992839046 561 l 1
 294.659191658 561 l 1
 402.174832216 561 l 2
 555.408955876 561 568.40367035 562.6875 590.048775388 680.381835938 c 0
 591.629012583 691.924804688 592.719344367 700.081054688 592.719344367 708.375 c 0
 592.719344367 771.708007812 557.959439581 806 400.75931376 806 c 0
 388.326768403 806 377.008996964 807 366.808124848 807 c 0
 270.808980917 807 243.975766944 791.166992188 237.17766517 741.021484375 c 2
 235.215918121 726.548828125 l 1
 220.182617188 727.0078125 l 1
 93.1826171875 731.0078125 l 1
 75.8447265625 731.553710938 l 1
 77.787109375 748.791015625 l 2xf0
EndSplineSet
EndChar

StartChar: four
Encoding: 52 52 21
Width: 793
VWidth: 1024
Flags: W
HStem: 238.741 138.322<627.44 739.44> 251.251 132.882<241.593 467.933> 918.68 20G<495.51 514.909>
VStem: 469.104 158.336<8.02148 238.741 378.449 652.813>
LayerCount: 2
Fore
SplineSet
466.712429451 652.813476562 m 1x70
 241.593250054 384.1328125 l 1
 467.933403929 378.44921875 l 1
 466.712429451 652.813476562 l 1x70
497.005245767 938.6796875 m 1
 514.909298215 936.90625 l 1
 613.168945312 926.90625 l 1
 627.440429688 925.35546875 l 1
 627.440429688 911.471679688 l 1
 627.440429688 898.408203125 l 1
 639.811523438 895.416992188 l 1
 629.33203125 877.681640625 l 1
 627.440429688 874.479492188 l 1
 627.440429688 377.063476562 l 1
 724.01171875 373.727539062 l 1
 739.440429688 373.194335938 l 1
 739.440429688 358.263671875 l 1
 739.440429688 250.91015625 l 1
 739.440429688 234.873046875 l 1
 722.869140625 235.4453125 l 1
 627.440429688 238.741210938 l 1xb0
 627.440429688 20.728515625 l 1
 627.440429688 8.021484375 l 1
 614.552734375 5.5498046875 l 1
 490.083531802 -16.6943359375 l 1
 469.183321613 -20.4697265625 l 1
 469.103995791 -1.0595703125 l 1
 468.069544191 243.950195312 l 1
 177.453125 251.250976562 l 1
 87.85546875 249.327148438 l 1
 71.5 248.975585938 l 1
 71.5 264.787109375 l 1
 71.5 358.538085938 l 1
 71.5 363.412109375 l 1
 74.3916015625 367.405273438 l 1
 494.805562159 914.892578125 l 1
 495.509846823 922.329101562 l 1
 497.005245767 938.6796875 l 1
EndSplineSet
EndChar

StartChar: five
Encoding: 53 53 22
Width: 776
VWidth: 1024
Flags: W
HStem: -15 143<283.379 528.874> 479 129<288.235 529.017> 787.977 139.023<312.843 677.265>
VStem: 559.009 159.493<154.474 450.318>
LayerCount: 2
Fore
SplineSet
109.4765625 478.5390625 m 1
 110.706054688 494.602539062 l 1
 142.706054688 912.1796875 l 1
 143.80078125 927 l 1
 158.662109375 927 l 1
 671.501953125 927 l 1
 688.815429688 927 l 1
 687.453125 910.565429688 l 1
 678.453125 802.009765625 l 1
 677.264648438 787.680664062 l 1
 662.173828125 787.9765625 l 1
 312.843060615 794.356445312 l 1
 288.23526302 608 l 1
 439.043493203 608 l 2
 679.598632812 608 718.501953125 555.513671875 718.501953125 297.962890625 c 0
 718.501953125 36.0498046875 673.07421875 -15 390.307067922 -15 c 0
 187.169921875 -15 142.604492188 21.8896484375 71.658203125 213.443359375 c 2
 66.2998046875 227.911132812 l 1
 80.5634765625 233.791992188 l 1
 194.563476562 280.791992188 l 1
 209.665039062 287.018554688 l 1
 215.577148438 271.791015625 l 2
 271.412630463 140.192382812 291.038137791 128 390.307067922 128 c 0
 543.62205664 128 559.009333043 141.301757812 559.009333043 298.240234375 c 0
 559.009333043 465.09765625 543.422851172 479 406.075526679 479 c 2
 273.208710032 479 l 1
 273.208710032 473.482421875 l 1
 255.005637422 474.0078125 l 1
 126.153320312 478.0078125 l 1
 109.4765625 478.5390625 l 1
EndSplineSet
EndChar

StartChar: six
Encoding: 54 54 23
Width: 821
VWidth: 1024
Flags: W
HStem: -15 134<278.401 579.357> 412 133<250.341 567.339> 813 128<291.129 530.25>
VStem: 606.686 159.454<147.212 366.729>
LayerCount: 2
Fore
SplineSet
738.747070312 762.989257812 m 1
 725.879882812 754.598632812 l 1
 633.879882812 694.598632812 l 1
 621.424804688 686.475585938 l 1
 612.413085938 698.303710938 l 2
 524.91313802 803.28515625 505.724192862 813 434.960348203 813 c 0
 240.190429688 813 237.384765625 761.951171875 237.108398438 531.448242188 c 1
 265.078381765 537.720703125 316.017319456 545 415.040314175 545 c 2
 436.483450017 545 l 2
 716.259765625 542.049804688 726.483398438 520.44921875 756.990234375 311.844726562 c 0
 763.075195312 267.4765625 766.139648438 229.997070312 766.139648438 195.97265625 c 0
 766.139648438 20.0234375 668.440429688 -15 417.885575246 -15 c 0
 107.34375 -15 87.099609375 24.0537109375 87.099609375 489.125976562 c 0
 87.099609375 865.897460938 107.016601562 941 434.960348203 941 c 0
 602.068666077 941 648.526367188 914.470703125 730.885742188 776.1875 c 2
 738.747070312 762.989257812 l 1
450.611421782 412 m 2
 403.904035024 412 l 2
 250.457673203 408.243164062 228.099609375 381.427734375 228.099609375 331.401367188 c 2
 228.099609375 328.86328125 l 1
 235.96875 144.1796875 259.810052757 119 417.885575246 119 c 0
 553.911927698 119 606.686069468 129.859375 606.686069468 217.615234375 c 0
 606.686069468 240.778320312 602.622326946 270.208007812 594.235112962 305.611328125 c 0
 570.496101545 407.043945312 577.445721186 412 450.611421782 412 c 2
EndSplineSet
EndChar

StartChar: seven
Encoding: 55 55 24
Width: 681
VWidth: 1024
Flags: W
HStem: 795.068 139.932<62.6398 421>
LayerCount: 2
Fore
SplineSet
43 935 m 1
 217.947265625 935 474.052734375 941 649 941 c 1
 642 916 l 1
 610 809 l 1
 586 770 353.612063887 -5.00000725933 373 53 c 5
 366 30 358 1.5126953125 358 -18 c 5
 163 -19 l 1
 175 0 l 1
 192.971679688 54.3837890625 l 2
 237.920194333 190.401711792 274 266 421 800 c 1
 84.3740234375 795.5703125 l 1
 63.7001953125 795.068359375 l 1
 52 893 53 881 43 935 c 1
EndSplineSet
EndChar

StartChar: eight
Encoding: 56 56 25
Width: 817
VWidth: 1024
Flags: W
HStem: -15 134<235.872 586.515> 423 143<258.413 572.056> 813 128<282.326 559.152>
VStem: 81.9004 144<132.874 399.052> 102.9 150.506<576.109 784.33> 581.456 138.544<574.549 789.46> 598.542 159.458<136.951 395.665>
LayerCount: 2
Fore
SplineSet
225.900390625 216.849609375 m 0xf2
 225.900390625 125.827148438 211.247070312 119 420.990966393 119 c 0
 576.290484268 119 598.542448082 115.659179688 598.542448082 211.150390625 c 0
 598.542448082 227.448242188 597.142274039 246.469726562 595.727124871 269.123046875 c 0
 584.509687746 412.256835938 592.237921104 423 420.990966393 423 c 0
 240.830604266 423 225.900390625 433.322265625 225.900390625 216.849609375 c 0xf2
102.900390625 595.5625 m 0xe8
 102.900390625 621.875976562 105.958007812 653.96484375 108.951171875 691.6171875 c 0
 128.399414062 920.408203125 170.838867188 941 420.990966393 941 c 0
 697.444335938 941 720 899.173828125 720 698.129882812 c 0xec
 720 594.061523438 714.68359375 533.62890625 681.950195312 498.638671875 c 1
 747.376953125 461.409179688 748.87109375 386.994140625 754.9765625 258.720703125 c 0
 756.970703125 228.814453125 758 202.063476562 758 177.5546875 c 0
 758 -9.515625 686.333007812 -15 420.990966393 -15 c 0
 94.8505859375 -15 81.900390625 33.6865234375 81.900390625 275.283203125 c 0xf2
 81.900390625 394.53125 89.935546875 460.323242188 137.538085938 495.469726562 c 1
 109.362304688 518.745117188 102.900390625 552.637695312 102.900390625 595.5625 c 0xe8
253.40649902 620.471679688 m 0
 253.40649902 575.723632812 267.070229529 566 420.990966393 566 c 0
 574.810086348 566 581.455832211 560.482421875 581.455832211 658.038085938 c 0
 581.455832211 799.918945312 582.718021189 813 374.001168269 813 c 0
 283.127840488 813 275.893786204 818.235351562 259.010404151 679.053710938 c 0
 256.151225221 654.52734375 253.40649902 634.916015625 253.40649902 620.471679688 c 0
EndSplineSet
EndChar

StartChar: nine
Encoding: 57 57 26
Width: 804
VWidth: 1024
Flags: W
HStem: -15 129<281.843 545.451> 295 138<283.552 561.836> 808 133<268.135 545.742>
VStem: 78 159.482<479.447 782.813> 588 149<153.966 722.785>
LayerCount: 2
Fore
SplineSet
395.835771981 433 m 2
 401.557197259 433 l 2
 424.201102602 433 447.016951605 431 468.794690761 431 c 0
 533.619599787 431 588 439.48046875 588 552.829101562 c 0
 588 569.330078125 586.75390625 587.001953125 584.205078125 608.624023438 c 0
 557.080237514 809.751953125 550.405599571 808 445.905765703 808 c 2
 397.266128301 808 l 2
 252.785094947 808 237.482109228 795.485351562 237.482109228 646.875 c 0
 237.482109228 451.20703125 276.844311539 433 395.835771981 433 c 2
375.807559562 114 m 0
 573.520200683 114 590.547851562 143.4609375 591.935546875 316.305664062 c 1
 544.36715317 309.684570312 428.426618041 295 340.043278332 295 c 0
 156.495117188 295 78 368.786132812 78 647.275390625 c 0
 78 889.911132812 121.31640625 941 385.821128448 941 c 2
 397.266128301 941 l 1
 413.002197112 941 l 2
 718.732421875 941 737 888.737304688 737 345.918945312 c 0
 737 45.1943359375 714.55859375 -14.0126953125 375.776394774 -15 c 0
 210.455078125 -13.9765625 171.3125 13.0341796875 89.25390625 150.8125 c 2
 81.392578125 164.010742188 l 1
 94.259765625 172.401367188 l 1
 186.259765625 232.401367188 l 1
 199.397460938 240.969726562 l 1
 208.224609375 228.005859375 l 2
 284.245411444 123.342773438 303.245185847 114 375.807559562 114 c 0
EndSplineSet
EndChar

StartChar: colon
Encoding: 58 58 27
Width: 304
VWidth: 1024
Flags: W
HStem: 0 21G<88.0713 239.799> 552.02 144.98<88.3525 239.071>
VStem: 88.0713 150.984<0 148.895 552.787 697>
LayerCount: 2
Fore
SplineSet
88.0712890625 0 m 1
 88.0712890625 16 l 1
 88.0712890625 135 l 1
 88.0712890625 148.89453125 l 1
 101.828125 150.841796875 l 1
 214.828125 166.841796875 l 1
 232.2734375 169.3125 l 1
 233.055664062 151.709960938 l 1
 239.055664062 16.7099609375 l 1
 239.798828125 -0 l 1
 223.071289062 0 l 1
 104.071289062 0 l 1
 88.0712890625 0 l 1
85.7998046875 552.787109375 m 1
 86.07421875 568.283203125 l 1
 88.07421875 681.283203125 l 1
 88.3525390625 697 l 1
 104.071289062 697 l 1
 223.071289062 697 l 1
 239.071289062 697 l 1
 239.071289062 681 l 1
 239.071289062 562 l 1
 239.071289062 545.186523438 l 1
 222.279296875 546.01953125 l 1
 101.279296875 552.01953125 l 1
 85.7998046875 552.787109375 l 1
EndSplineSet
EndChar

StartChar: semicolon
Encoding: 59 59 28
Width: 302
VWidth: 1024
Flags: W
HStem: -119 91<87.6602 133.073> 546.011 150.989<87.6602 225.122>
VStem: 87.6602 151<-104.458 -28 679.446 697>
LayerCount: 2
Fore
SplineSet
103.452148438 160.12890625 m 1
 118.875976562 158.954101562 l 1
 223.875976562 150.954101562 l 1
 238.66015625 149.827148438 l 1
 238.66015625 135 l 1
 238.66015625 16 l 1
 238.66015625 -9 l 2
 238.66015625 -106.2109375 221.337890625 -119 115.66015625 -119 c 2
 103.66015625 -119 l 1
 87.66015625 -119 l 1
 87.66015625 -103 l 1
 87.66015625 -44 l 1
 87.66015625 -28 l 1
 103.66015625 -28 l 1
 111.66015625 -28 l 2
 123.275390625 -28 131.16015625 -27.4501953125 133.171875 -26.96875 c 0
 133.989257812 -24.041015625 134.62890625 -14.22265625 134.659179688 0 c 1
 103.66015625 0 l 1
 85.7998046875 0 l 1
 87.7568359375 17.7529296875 l 1
 101.756835938 144.752929688 l 1
 103.452148438 160.12890625 l 1
87.66015625 546.586914062 m 1
 87.66015625 562 l 1
 87.66015625 681 l 1
 87.66015625 697 l 1
 103.66015625 697 l 1
 222.66015625 697 l 1
 240.297851562 697 l 1
 238.584960938 679.446289062 l 1
 226.584960938 556.446289062 l 1
 225.122070312 541.448242188 l 1
 210.0625 542.010742188 l 1
 103.0625 546.010742188 l 1
 87.66015625 546.586914062 l 1
EndSplineSet
EndChar

StartChar: less
Encoding: 60 60 29
Width: 743
VWidth: 1024
Flags: W
LayerCount: 2
Fore
SplineSet
664.17578125 673 m 1
 691.17578125 568 l 1
 694.365234375 545.331054688 l 1
 682.958984375 539.502929688 l 1
 253.117866061 349.396484375 l 1
 665.642578125 178.810546875 l 1
 678.9609375 172.373046875 l 1
 673.5859375 150 l 1
 634.5859375 50 l 1
 628.096679688 41.728515625 l 1
 612.268554688 50 l 1
 86.5888671875 293.819335938 l 1
 78 298.30859375 l 1
 78 308 l 1
 78 389 l 1
 78 398.515625 l 1
 86.361328125 403.05859375 l 1
 641.041015625 673 l 1
 659.06640625 682.793945312 l 1
 664.17578125 673 l 1
EndSplineSet
EndChar

StartChar: equal
Encoding: 61 61 30
Width: 817
VWidth: 1024
Flags: W
HStem: 186.004 117.988<439.451 747.285> 200.004 122.452<102.367 418.227> 417 116.999<120.684 745.796>
LayerCount: 2
Fore
SplineSet
87.099609375 540.211914062 m 1x20
 108.129882812 539.999023438 l 1
 732.510742188 533.999023438 l 1
 745.795898438 533.864257812 l 1
 748.104492188 520.780273438 l 1
 763.104492188 435.780273438 l 1
 766.40234375 417.09765625 l 1
 747.430664062 417 l 1
 133.049804688 414 l 1
 120.68359375 413.936523438 l 1
 117.504882812 425.887695312 l 1
 92.5048828125 519.887695312 l 1
 87.099609375 540.211914062 l 1x20
102.3671875 322.456054688 m 1x60
 117.458984375 321.9921875 l 1
 734.83984375 303.9921875 l 1
 747.28515625 303.609375 l 1
 749.971679688 291.451171875 l 1
 768.971679688 205.451171875 l 1
 773.37109375 185.538085938 l 1
 752.982421875 186.00390625 l 1xa0
 108.6015625 200.00390625 l 1
 91.517578125 200.39453125 l 1
 93.0302734375 217.416992188 l 1
 101.030273438 307.416992188 l 1
 102.3671875 322.456054688 l 1x60
EndSplineSet
EndChar

StartChar: greater
Encoding: 62 62 31
Width: 740
VWidth: 1024
Flags: W
LayerCount: 2
Fore
SplineSet
536.32421875 358.13671875 m 1
 89.5556640625 533.916015625 l 1
 76.7001953125 539.814453125 l 1
 80.978515625 563 l 1
 113.978515625 667 l 1
 119.71484375 675.700195312 l 1
 136.568359375 667 l 1
 674.1484375 420.217773438 l 1
 682.615234375 415.846679688 l 1
 682.805664062 406.3203125 l 1
 684.805664062 306.3203125 l 1
 685.005859375 296.318359375 l 1
 676.1015625 291.758789062 l 1
 130.521484375 43 l 1
 113.219726562 34.1396484375 l 1
 107.8515625 43 l 1
 82.8515625 130 l 1
 79.2294921875 152.39453125 l 1
 90.8759765625 158.420898438 l 1
 536.32421875 358.13671875 l 1
EndSplineSet
EndChar

StartChar: question
Encoding: 63 63 32
Width: 670
VWidth: 1024
Flags: W
HStem: 837 134<255.972 464.419>
VStem: 253.882 156.495<191.687 398.861> 266.539 152.814<185.924 348.009> 478.14 137<666.082 820.463>
LayerCount: 2
Fore
SplineSet
343.827148438 529.555664062 m 2xd0
 441.8046875 643.905273438 437.131835938 631.890625 465.002929688 702.1875 c 0
 473.57421875 727.901367188 478.139648438 750.807617188 478.139648438 767 c 0
 478.139648438 817.259765625 443.291992188 837 374.705078125 837 c 0
 298.201171875 837 200.08203125 794.399414062 178.224609375 748.162109375 c 2
 171.513671875 733.96484375 l 1
 157.193359375 740.409179688 l 1
 77.193359375 776.409179688 l 1
 62.400390625 783.06640625 l 1
 69.2607421875 797.766601562 l 2
 134.059570312 936.62109375 203.861328125 971 327.526367188 971 c 2
 346.194335938 971 l 1
 622.720703125 963.7109375 606.196289062 854.319335938 614.104492188 702.080078125 c 0
 615.122070312 689.868164062 615.139648438 677.86328125 615.139648438 670 c 0
 615.139648438 593.439453125 587.262695312 608.354492188 477.439453125 444.106445312 c 2
 477.116210938 443.623046875 l 1
 476.758789062 443.1640625 l 2
 418.0234375 375.014648438 410.376953125 370.5625 410.376953125 349 c 0xd0
 410.376953125 328.12890625 419.353515625 289.552734375 419.353515625 198 c 2
 419.353515625 185.923828125 l 1
 402.03515625 182.028320312 l 1
 286.043945312 176.028320312 l 1
 266.5390625 175.01953125 l 1
 266.5390625 192 l 2xb0
 266.5390625 303.34765625 253.881835938 341.3359375 253.881835938 375 c 0
 253.881835938 416.8828125 275.3203125 438.325195312 343.173828125 528.740234375 c 2
 343.485351562 529.157226562 l 1
 343.827148438 529.555664062 l 2xd0
246.530273438 -8 m 1
 248.578125 9.6083984375 l 1
 260.084960938 108.608398438 l 1
 261.487304688 120.678710938 l 1
 275.239257812 122.76171875 l 1
 407.225585938 140.76171875 l 1
 428.799804688 144.03125 l 1
 428.799804688 127 l 1
 428.799804688 8 l 1
 428.799804688 -8 l 1
 410.388671875 -8 l 1
 266.895507812 -8 l 1
 246.530273438 -8 l 1
EndSplineSet
EndChar

StartChar: at
Encoding: 64 64 33
Width: 1397
VWidth: 1024
Flags: W
HStem: -294 135<423.54 1094.36> -49 128.107<1002.6 1141.14> -33 128<550.424 809.308> 313 125.976<572.394 831.908> 647 139<603.586 732.567> 890 127<448.702 1014.98>
VStem: 79.2998 136<66.2766 639.263> 398.118 142.787<102.907 284.66 513.001 575.352> 833.463 162.704<119.639 306.679> 1205.3 131<161.315 692.024>
LayerCount: 2
Fore
SplineSet
830.708984375 148.32421875 m 1xbfc0
 833.462890625 304.485351562 l 1
 800.888671875 307.356445312 729.2578125 313 665.584960938 313 c 0
 582.918945312 313 540.905273438 301.065429688 540.905273438 168 c 0
 540.905273438 108.236328125 553.01953125 95 625.231445312 95 c 0
 644.84765625 95 668.424804688 95.966796875 697.50390625 98.9150390625 c 0
 798.219726562 108.8984375 796.110351562 102.759765625 830.708984375 148.32421875 c 1xbfc0
1205.29980469 484 m 0
 1205.29980469 850.623046875 1053.34570312 890 759.741210938 890 c 0
 370.245117188 890 215.299804688 852.474609375 215.299804688 364.043945312 c 0
 215.299804688 -117.299804688 313.271484375 -159 746.290039062 -159 c 2
 809.509765625 -159 l 2
 968.626953125 -159 1165.21972656 -153.368164062 1267.54980469 -75.3134765625 c 2
 1284.41503906 -62.3525390625 l 1
 1292.19140625 -82.1494140625 l 1
 1336.19140625 -194.149414062 l 1
 1342.25097656 -209.573242188 l 1
 1326.625 -215.087890625 l 2
 1117.86230469 -287.938476562 943.645507812 -294 746.290039062 -294 c 0
 228.28515625 -294 79.2998046875 -207.497070312 79.2998046875 352.2265625 c 0
 79.2998046875 912.159179688 215.68359375 1017 738.219726562 1017 c 0
 1215.42382812 1017 1336.29980469 932.913085938 1336.29980469 470.20703125 c 0
 1336.29980469 49.6328125 1292.54882812 -49 1050.28222656 -49 c 0xdfc0
 1003.53710938 -49 910.80859375 -39.5498046875 892.35546875 -7.6376953125 c 0
 885.921875 -1.599609375 881.73046875 5.2431640625 879.103515625 10.9755859375 c 1
 833.056640625 -21.822265625 756.151367188 -19.3193359375 619.72265625 -30.9580078125 c 0
 601.723632812 -31.9873046875 585.810546875 -33 570.083007812 -33 c 0xbfc0
 424.795898438 -33 398.118164062 54.826171875 398.118164062 124 c 0
 398.118164062 137.778320312 399.209960938 151.323242188 400.240234375 163.2734375 c 0
 411.522460938 306.025390625 429.793945312 429.2890625 612.21875 438.975585938 c 0
 668.999023438 441.991210938 715.038085938 443 751.670898438 443 c 0
 801.767578125 443 832.426757812 440.915039062 849.811523438 439.044921875 c 1
 838.73046875 593.71875 851.005859375 647 701.90234375 647 c 0
 599.771484375 647 561.586914062 595.7421875 544.72265625 496.409179688 c 2
 541.778320312 479.0703125 l 1
 524.19140625 483.522460938 l 1
 413.583007812 511.522460938 l 1
 399.624023438 515.055664062 l 1
 401.33984375 528.90234375 l 2
 423.000976562 703.712890625 539.1875 786 704.592773438 786 c 0
 714.021484375 786 723.247070312 785 731.494140625 785 c 2
 732.03125 785 l 1
 732.567382812 784.966796875 l 2
 931.708007812 772.46875 978.307617188 701.942382812 996.115234375 483.255859375 c 2
 996.1640625 482.670898438 l 1
 996.166992188 482.084960938 l 1
 998.21875 109.22265625 l 1
 1007.67773438 94.8291015625 1072.85742188 80.6884765625 1106.85058594 79.107421875 c 1xdfc0
 1184.66894531 107.595703125 1205.29980469 201.068359375 1205.29980469 484 c 0
EndSplineSet
EndChar

StartChar: A
Encoding: 65 65 34
Width: 979
VWidth: 1024
Flags: W
HStem: 184.223 110.835<331.835 705.706>
LayerCount: 2
Fore
SplineSet
506.631958359 735.984375 m 1
 331.834722092 295.057617188 l 1
 705.706100261 295.939453125 l 1
 506.631958359 735.984375 l 1
59.7998046875 10.8759765625 m 1
 65.548828125 26.7294921875 l 1
 398.757003918 917.2890625 l 1
 402.753521521 928.06640625 l 1
 414.845443085 928 l 1
 595.166456075 927 l 1
 607.172553329 926.93359375 l 1
 611.084280649 916.212890625 l 1
 938.756835938 25.693359375 l 1
 944.005859375 10.9814453125 l 1
 928.73828125 5.837890625 l 1
 836.73828125 -25.162109375 l 1
 821.647460938 -30.2470703125 l 1
 816.491210938 -15.1806640625 l 1
 742.710854582 192.780273438 l 1
 267.614355014 184.22265625 l 1
 203.92578125 -10.7568359375 l 1
 199.392578125 -25.314453125 l 1
 184.633789062 -21.48828125 l 1
 76.6337890625 6.51171875 l 1
 59.7998046875 10.8759765625 l 1
EndSplineSet
EndChar

StartChar: B
Encoding: 66 66 35
Width: 941
VWidth: 1024
Flags: W
HStem: 0 129<241.712 714.677> 356 109.432<237.294 592.945> 798 129<229.267 623.297>
VStem: 97 137.746<241.438 356 465.432 796.025> 632.479 153.521<502.401 789.69> 721.303 145.689<131.231 334.515>
LayerCount: 2
Fore
SplineSet
237.293945312 356 m 1xf4
 241.711914062 129 l 1
 472.513311701 129 l 1
 525.119347153 129 l 2
 568.946876251 129 604.298895333 127.962890625 632.149396085 127.962890625 c 0
 713.328125 127.962890625 721.302734375 129.759765625 721.302734375 188.756835938 c 0
 721.302734375 193.202148438 721.200195312 198.09765625 721.01171875 203.11328125 c 0
 719.9921875 225.969726562 720.004882812 253.510742188 717.041015625 289.51171875 c 0
 713.046875 344.760742188 694.162996033 356 447.820682815 356 c 2
 237.293945312 356 l 1xf4
229.266601562 796.025390625 m 1
 234.74609375 465.431640625 l 1
 363.322448056 461 l 1
 607.828959933 461 632.478603179 478.786132812 632.478603179 633 c 2
 632.478603179 669 l 2xf8
 632.478603179 803.916015625 640.053511624 798 473.586904261 798 c 2
 428.496016731 798 l 2
 340.7287765 798 305.891536664 796.264648438 229.266601562 796.025390625 c 1
786 682.442382812 m 2
 786 565.40625 776.93359375 493.411132812 733.45703125 449.520507812 c 1
 829.836914062 433.341796875 855.59375 382.99609375 860.979492188 276.2734375 c 0
 863.979492188 221.166992188 865.990234375 174.552734375 866.9921875 140.637695312 c 0xf4
 867.139648438 136.331054688 867.2265625 131.971679688 867.2265625 127.78125 c 0
 867.2265625 36.9248046875 819.287109375 -0 602.418011492 0 c 2
 521.898569473 0 l 1
 108 0 l 1
 92 0 l 1
 92 16 l 1
 92 20.8720703125 l 1
 97 911.626953125 l 1
 97.0869140625 927 l 1
 113 927 l 1
 422.054461369 927 l 1
 498.279533147 927 l 2
 763.443359375 927 786 911.123046875 786 728.840820312 c 2
 786 682.442382812 l 2
EndSplineSet
EndChar

StartChar: C
Encoding: 67 67 36
Width: 856
VWidth: 1024
Flags: W
HStem: -9 134<340.577 754.568> 807 134<352.937 783.976>
VStem: 76.7002 159.393<227.682 679.227> 802.679 0.392578<12.7373 15.4824>
LayerCount: 2
Fore
SplineSet
781.200195312 823.4296875 m 2
 773.19921875 798.942382812 741.153320312 807 673.83984375 807 c 0
 645.944924045 807 591.327213746 808 532.429386907 808 c 0
 279.783119989 808 243.073011575 738.883789062 236.093389294 464.895507812 c 1
 236.093389294 416.349609375 l 2
 236.093389294 183.947265625 281.40493655 125 546.494287273 125 c 0
 684.747070312 125 737.018554688 125.604492188 754.568359375 126.782226562 c 1
 770.563476562 174.768554688 l 1
 782.516601562 116.19921875 l 1
 802.516601562 18.19921875 l 1
 803.071289062 15.482421875 l 1
 802.678710938 12.7373046875 l 2
 798.122070312 -19.1591796875 744.251953125 -9 546.494287273 -9 c 0
 144.279296875 -9 76.7001953125 93.51171875 76.7001953125 412.791992188 c 2
 76.7001953125 465.159179688 l 1
 82.748046875 824.01171875 138.256835938 941 523.990658 941 c 0
 731.712890625 941 787.03515625 937.094726562 789.94140625 936.892578125 c 2
 807.747070312 935.651367188 l 1
 803.41015625 917.31640625 l 1
 781.200195312 823.4296875 l 2
EndSplineSet
EndChar

StartChar: D
Encoding: 68 68 37
Width: 967
VWidth: 1024
Flags: W
HStem: 0 128<241.04 675.935> 798 129<229.563 669.55>
VStem: 92.2998 148.74<128.94 653.33> 97.2998 132.264<273.61 798> 742.772 159.327<204.457 733.893>
LayerCount: 2
Fore
SplineSet
900.096679688 462.708984375 m 0xd8
 891.037109375 21.9296875 871.56640625 0 429.371296249 0 c 2
 108.299804688 0 l 1
 92.2998046875 0 l 1
 92.2998046875 16 l 1
 92.2998046875 20.8720703125 l 1xe8
 97.2998046875 911.626953125 l 1
 97.38671875 927 l 1
 113.299804688 927 l 1
 387.712581892 927 l 2
 835.02734375 927 902.099609375 901.239257812 902.099609375 584.8125 c 0
 902.099609375 547.822265625 901.094726562 508.061523438 900.096679688 462.708984375 c 0xd8
229.563476562 798 m 1xd8
 241.040039062 128.940429688 l 1xe8
 311.231872275 128.80859375 340.715092993 128 416.873473314 128 c 0
 734.925907397 128 730.342363955 122.918945312 740.002854582 463.435546875 c 0
 741.396485451 502.720703125 742.772382993 536.858398438 742.772382993 567.985351562 c 0
 742.772382993 791.8828125 707.200372318 798 394.655700951 798 c 2
 229.563476562 798 l 1xd8
EndSplineSet
EndChar

StartChar: E
Encoding: 69 69 38
Width: 833
VWidth: 1024
Flags: W
HStem: -6 146<268.8 746.588> 354 131<268.8 716.14> 808.193 130.807<268.8 736.14>
VStem: 117.8 151<131.018 360.726 477.314 814.853>
LayerCount: 2
Fore
SplineSet
746.587890625 140 m 1
 747.129882812 124.561523438 l 1
 751.129882812 10.5615234375 l 1
 751.7109375 -6 l 1
 735.139648438 -6 l 1
 133.799804688 -6 l 1
 117.799804688 -6 l 1
 117.799804688 10 l 1
 117.799804688 923 l 1
 117.799804688 939 l 1
 133.799804688 939 l 1
 720.139648438 939 l 1
 736.139648438 939 l 1
 736.139648438 923 l 1
 736.139648438 823.629882812 l 1
 736.139648438 808.193359375 l 1
 720.139648438 808.193359375 l 2
 551.37890625 808.193359375 464.427734375 813.653320312 268.799804688 814.852539062 c 1
 268.799804688 477.314453125 l 1
 695.984375 485 l 1
 700.139648438 485 l 1
 716.139648438 485 l 1
 716.139648438 469 l 1
 716.139648438 370 l 1
 716.139648438 354 l 1
 700.139648438 354 l 1
 696.00390625 354 l 1
 268.799804688 360.725585938 l 1
 268.799804688 131.017578125 l 1
 488.9765625 131.478515625 568.513671875 140 731.139648438 140 c 2
 746.587890625 140 l 1
EndSplineSet
EndChar

StartChar: F
Encoding: 70 70 39
Width: 738
VWidth: 1024
Flags: W
HStem: 350.267 148.305<232.748 591.725> 777.883 135.117<236.087 438.805> 916.932 20G<104.686 125.067>
VStem: 87.374 145.374<-6.59863 350.267> 104.374 128.191<498.571 777.883>
LayerCount: 2
Fore
SplineSet
677.40234375 797.46484375 m 1xe8
 236.086914062 777.8828125 l 1
 232.565429688 498.571289062 l 1xe8
 298.368168638 497.953125 663.611328125 506.809570312 663.611328125 475.533203125 c 2
 663.611328125 474.82421875 l 1
 663.543945312 474.118164062 l 1
 654.543945312 379.380859375 l 1
 653.208984375 365.328125 l 1
 638.611328125 365.328125 l 1
 618.611328125 365.328125 l 2
 547.930664062 365.328125 443.063728647 355.213867188 232.748046875 350.266601562 c 1
 241.486977047 -2.6181640625 l 1
 241.967435037 -20.5439453125 l 1
 224.036132812 -18.935546875 l 1
 101.935546875 -7.935546875 l 1
 87.099609375 -6.5986328125 l 1
 87.3740234375 8.294921875 l 1xf0
 104.374023438 900.548828125 l 1
 105.067382812 936.931640625 l 1
 128.260742188 913.73828125 l 2
 133.173828125 913.299804688 140.383789062 913 150.37109375 913 c 0
 265.109312477 913 676.06640625 925.990234375 676.06640625 925.990234375 c 1
 692.611328125 926.5546875 l 1
 692.611328125 910.55078125 l 1
 692.611328125 812.9140625 l 1
 692.611328125 798.193359375 l 1
 677.40234375 797.46484375 l 1xe8
EndSplineSet
EndChar

StartChar: G
Encoding: 71 71 40
Width: 938
VWidth: 1024
Flags: W
HStem: -15 134<293.744 691.81> 350 133<426.491 733.294> 817 134<326.093 646.319>
VStem: 74.0996 153<187.061 613.631> 733.294 137.406<169.597 350>
LayerCount: 2
Fore
SplineSet
426.490804227 350 m 1
 426.490804227 366 l 1
 426.490804227 467 l 1
 426.490804227 483 l 1
 443.613117559 483 l 1
 851.700195312 483 l 1
 866.67578125 483 l 1
 867.665039062 468.522460938 l 2
 867.680664062 468.302734375 870.700195312 424.397460938 870.700195312 364.797851562 c 0
 870.700195312 297.295898438 866.796875 211.451171875 851.326171875 142.499023438 c 0
 820.934570312 10.501953125 805.036132812 -15 506.216575682 -15 c 0
 161.663085938 -15 74.099609375 36.451171875 74.099609375 292.803710938 c 0
 74.099609375 341.78515625 77.1318359375 399.302734375 82.140625 464.267578125 c 0
 111.180664062 873.297851562 158.01953125 951 461.698979042 951 c 0
 758.189453125 951 811.950195312 912.260742188 862.26953125 699.685546875 c 2
 865.747070312 684.99609375 l 1
 851.284179688 680.670898438 l 1
 744.284179688 648.670898438 l 1
 729.130859375 644.138671875 l 1
 724.424804688 659.239257812 l 2
 677.917302832 800.356445312 652.081253625 817 461.698979042 817 c 0
 295.571573242 817 267.399808075 782.291015625 235.297560702 461.875976562 c 0
 229.762906685 405.771484375 227.099609375 358.380859375 227.099609375 317.881835938 c 0
 227.099609375 144.678710938 279.72946217 119 506.216575682 119 c 0
 692.703900205 119 692.216900814 127.052734375 713.621882606 194.768554688 c 0
 727.89453125 249.086914062 732.250976562 321.583007812 733.293945312 350 c 1
 443.613117559 350 l 1
 426.490804227 350 l 1
EndSplineSet
EndChar

StartChar: H
Encoding: 72 72 41
Width: 928
VWidth: 1024
Flags: W
HStem: 387.767 85.4736<248.361 723.44> 909.94 20G<99.8887 116.798>
VStem: 99.8887 155.715<487 921.102> 104.982 135.904<3.31641 387.767 487 729.929> 717.428 146.345<1.55469 381.237 479.771 734.062> 732.69 125.998<479.771 927>
LayerCount: 2
Fore
SplineSet
717.690429688 13.25 m 1xc8
 723.440429688 381.237304688 l 1
 246.750392551 387.766601562 l 1
 240.88671875 8.7568359375 l 1
 240.625976562 -8.421875 l 1
 223.508789062 -6.9404296875 l 1
 119.508789062 2.0595703125 l 1
 104.982421875 3.31640625 l 1xd8
 104.888671875 17.4306640625 l 1
 101.913085938 465.873046875 l 1
 91 487 l 1
 101.818359375 487 l 1
 99.888671875 913.5234375 l 1
 99.814453125 929.940429688 l 1
 116.797851562 928.974609375 l 1
 239.797851562 921.974609375 l 1
 255.860600709 921.1015625 l 1
 255.603635362 905.750976562 l 1
 248.361407947 473.240234375 l 1
 725.93359375 479.770507812 l 1
 732.690429688 911.250976562 l 1
 732.936523438 927 l 1
 748.688476562 927 l 1
 842.688476562 927 l 1
 858.602539062 927 l 1
 858.688476562 911.618164062 l 1xe4
 863.688476562 16.5673828125 l 1
 863.772460938 1.5546875 l 1
 848.249023438 1.009765625 l 1
 734.249023438 -2.990234375 l 1
 717.427734375 -3.580078125 l 1
 717.690429688 13.25 l 1xc8
EndSplineSet
EndChar

StartChar: I
Encoding: 73 73 42
Width: 315
VWidth: 1024
Flags: W
HStem: 1 21G<156.8 275.992> 910.834 20G<85.7998 102.612>
VStem: 85.7998 150<240.687 923.212> 97.8008 143.95<28.5781 666.813>
LayerCount: 2
Fore
SplineSet
97.80078125 19.2626953125 m 1xd0
 85.7998046875 903.272460938 l 1
 85.7998046875 914 l 1
 85.7998046875 930.833984375 l 1
 102.612304688 929.979492188 l 1
 220.612304688 923.979492188 l 1
 235.701171875 923.211914062 l 1
 235.799804688 908.611328125 l 1xe0
 241.750976562 28.578125 l 1
 275.9921875 1 l 1
 231.799804688 1 l 1
 172.799804688 1 l 1
 156.799804688 1 l 1
 156.799804688 3.2685546875 l 1
 113.528320312 4.001953125 l 1
 98.0048828125 4.265625 l 1
 97.80078125 19.2626953125 l 1xd0
EndSplineSet
EndChar

StartChar: J
Encoding: 74 74 43
Width: 699
VWidth: 1024
Flags: W
HStem: -15 138.192<241.031 374.193>
VStem: 79.2998 150<136.593 298.657> 489.3 130<144.418 844.632> 495.44 133.779<398.613 918.949>
LayerCount: 2
Fore
SplineSet
630.049804688 911.163085938 m 2xd0
 629.219726562 901.611328125 l 1xd0
 619.299804688 290.497070312 l 1
 619.299804688 38.8291015625 601.291015625 -13.9990234375 352.555070279 -15 c 2
 318.066631414 -15 l 2
 153.196289062 -15 79.2998046875 7.2353515625 79.2998046875 224.784179688 c 2
 79.2998046875 298.657226562 l 1
 229.299804688 324.467773438 l 1
 229.299804688 253.790039062 l 2
 229.299804688 127.372070312 227.9296875 133.419921875 354.273135269 123.192382812 c 0
 366.02956034 122.247070312 374.199088758 124.549804688 374.199088758 124.549804688 c 1
 375.732633344 124.93359375 l 1
 377.321309026 125.090820312 l 2
 495.591796875 137.063476562 489.299804688 136.178710938 489.299804688 244.122070312 c 2
 489.299804688 289.637695312 l 1xe0
 495.440429688 918.94921875 l 1
 612.750976562 927 l 1
 613.299804688 927 l 1
 613.299804688 927 630.049804688 926.696289062 630.049804688 911.163085938 c 2xd0
EndSplineSet
EndChar

StartChar: K
Encoding: 75 75 44
Width: 858
VWidth: 1024
Flags: W
VStem: 96.4248 149.936<1.16895 352.593 556.948 924.087>
LayerCount: 2
Fore
SplineSet
96.4248046875 1.1689453125 m 1
 96.361328125 15.9306640625 l 1
 92.361328125 910.413085938 l 1
 92.2998046875 924.086914062 l 1
 106.342773438 925.872070312 l 1
 224.342773438 940.872070312 l 1
 242.272460938 943.151367188 l 1
 242.360351562 925.078125 l 1
 244.15625 556.948242188 l 1
 609.116492207 938.611328125 l 1
 615.02676925 944.790039062 l 1
 623.889021982 943.908203125 l 1
 786.310546875 926.908203125 l 1
 816.231445312 923.694335938 l 1
 796.833984375 901.455078125 l 1
 514.863071253 592.189453125 l 1
 821.911132812 22.294921875 l 1
 834.8125 -2.642578125 l 1
 806.095703125 0.0712890625 l 1
 678.974996914 12.0712890625 l 1
 669.951439795 12.8603515625 l 1
 665.525584814 20.1884765625 l 1
 384.016748789 486.274414062 l 1
 246.360351562 352.592773438 l 1
 246.360351562 7 l 1
 246.360351562 -10.2666015625 l 1
 229.143554688 -8.9541015625 l 1
 111.143554688 0.0458984375 l 1
 96.4248046875 1.1689453125 l 1
EndSplineSet
EndChar

StartChar: L
Encoding: 76 76 45
Width: 722
VWidth: 1024
Flags: W
HStem: 912.132 20G<88.5488 105.631>
VStem: 88.5488 149.997<512.305 921.972> 96.5488 159.156<128.539 385.591>
LayerCount: 2
Fore
SplineSet
96.681640625 2.4853515625 m 1xa0
 96.548828125 17.3408203125 l 1xa0
 88.548828125 914.862304688 l 1
 88.400390625 932.131835938 l 1
 105.630859375 930.962890625 l 1
 223.630859375 922.962890625 l 1
 238.259765625 921.971679688 l 1
 238.545898438 907.802734375 l 1xc0
 255.705300362 128.5390625 l 1
 255.705300362 128.5390625 659.288085938 141.245117188 659.288085938 111.142578125 c 2
 659.288085938 108.208007812 l 1
 678.939453125 18.671875 l 1
 683.038085938 -0 l 1
 663.288085938 0 l 1
 259.040020077 0 l 1
 259.040020077 -2.5048828125 l 1
 240.705078125 -1.9921875 l 1
 112.051757812 2.0078125 l 1
 96.681640625 2.4853515625 l 1xa0
EndSplineSet
EndChar

StartChar: M
Encoding: 77 77 46
Width: 1112
VWidth: 1024
Flags: W
HStem: 0 21G<485.995 605.823>
VStem: 87.3447 153.218<19.3506 585.233> 99.3447 130.546<254.599 688.135> 887.353 144.591<19.5859 238.857> 917.69 121.853<516.326 725.674>
LayerCount: 2
Fore
SplineSet
99.5537109375 927.387695312 m 1xa0
 115.731445312 926.995117188 l 1
 282.687844223 922.995117188 l 1
 294.303950179 922.727539062 l 1
 298.160571344 912.310546875 l 1
 549.971318342 232.232421875 l 1
 828.801020922 918.76171875 l 1
 833.051216803 929.225585938 l 1
 844.852292599 928.997070312 l 1
 944.909179688 926.99609375 l 1
 1023.94824219 924.995117188 l 1
 1039.671875 924.596679688 l 1
 1039.54296875 909.40234375 l 1xa8
 1031.94335938 13.869140625 l 1
 1031.7890625 -4.9169921875 l 1
 1013.26757812 -1.7744140625 l 1
 901.267578125 17.2255859375 l 1
 887.352539062 19.5859375 l 1x90
 887.958007812 33.6865234375 l 1
 917.690429688 725.673828125 l 1
 605.82296155 9.8515625 l 1
 601.508026226 0 l 1
 590.279329323 0 l 1
 499.78386268 0 l 1
 488.731914736 0 l 1
 485.995388713 6 l 1
 465.006449917 6 l 1
 472.971456752 27.3466796875 l 1
 475.076002488 32.9853515625 l 1
 229.890625 688.134765625 l 1xa8
 240.340820312 33.2548828125 l 1
 240.5625 19.3505859375 l 1
 226.825195312 17.193359375 l 1
 105.825195312 -1.806640625 l 1
 87.099609375 -4.7470703125 l 1
 87.3447265625 14.20703125 l 1xc0
 99.3447265625 911.754882812 l 1
 99.5537109375 927.387695312 l 1xa0
EndSplineSet
EndChar

StartChar: N
Encoding: 78 78 47
Width: 935
VWidth: 1024
Flags: W
HStem: 0 21G<93.5996 249.734> 915.363 22.3496G<94.5996 113.088 713.701 730.988>
VStem: 93.5996 156.135<0 494.563> 94.5996 143.161<177.922 651.335> 713.701 143.398<250.338 923.765> 723.324 137.775<184.959 869.962>
LayerCount: 2
Fore
SplineSet
713.470703125 935.36328125 m 1xc8
 730.98828125 933.948242188 l 1
 842.387695312 924.948242188 l 1
 857.036132812 923.764648438 l 1
 857.099609375 909.569335938 l 1xc8
 861.099609375 15.0693359375 l 1
 861.166992188 -0.4892578125 l 1
 845.616210938 -0.9912109375 l 1
 656.499449831 -6.9912109375 l 1
 646.206956658 -7.30078125 l 1
 641.053886898 0.9931640625 l 1
 237.760742188 651.334960938 l 1xd4
 249.734451131 21.150390625 l 1
 249.734451131 16 l 1
 249.734451131 0 l 1
 233.599609375 0 l 1
 109.599609375 0 l 1
 93.599609375 0 l 1
 93.599609375 16 l 1
 93.599609375 20.845703125 l 1xe0
 94.599609375 919.017578125 l 1
 94.6201171875 937.712890625 l 1
 113.087890625 934.805664062 l 1
 246.48828125 913.805664062 l 1
 254.319623001 912.64453125 l 1
 258.455515209 906.244140625 l 1
 723.32421875 184.958984375 l 1xd4
 713.701171875 917.790039062 l 1
 713.470703125 935.36328125 l 1xc8
EndSplineSet
EndChar

StartChar: O
Encoding: 79 79 48
Width: 980
VWidth: 1024
Flags: W
HStem: -15 134<317.233 692.452> 808 133<325.255 641.967>
VStem: 76.7002 159.309<203.645 709.48> 754.091 159.309<181.611 636.456>
LayerCount: 2
Fore
SplineSet
491.590222612 808 m 0
 277.825755771 808 236.009685418 757.627929688 236.009685418 463.022460938 c 0
 236.009685418 149.697265625 264.961591534 119 512.347526167 119 c 0
 708.589701906 119 754.090900519 147.94140625 754.090900519 339.748046875 c 0
 754.090900519 375.3125 751.345505953 415.408203125 748.583478933 462.137695312 c 0
 727.892705197 757.435546875 685.552712518 808 491.590222612 808 c 0
913.400390625 325.599609375 m 0
 913.400390625 47.6923828125 840.450195312 -15 533.104829722 -15 c 0
 136.4609375 -15 76.7001953125 51.9580078125 76.7001953125 463 c 0
 76.7001953125 846.194335938 142.563476562 941 491.590222612 941 c 0
 824.779296875 941 890.263671875 846.38671875 909.385742188 463.666015625 c 0
 911.391601562 412.233398438 913.400390625 366.783203125 913.400390625 325.599609375 c 0
EndSplineSet
EndChar

StartChar: P
Encoding: 80 80 49
Width: 804
VWidth: 1024
Flags: W
HStem: 309 129<241.2 587.537> 798 129<225.617 578.991>
VStem: 89.2021 136.415<527.71 798> 95.0996 146.101<157.78 309 438 645.803> 95.1982 157.479<-7.37207 242.937> 606 134<457.051 769.976>
LayerCount: 2
Fore
SplineSet
225.6171875 798 m 1xe4
 237.59765625 438 l 1
 436.535487956 438 l 2
 590.61328125 438 606 438.526367188 606 551.936523438 c 0
 606 576.237304688 604.706054688 605.109375 603.416015625 639.33984375 c 0
 594.509765625 800.502929688 598.0859375 798 422.20428962 798 c 2
 225.6171875 798 l 1xe4
87.099609375 891.245117188 m 1
 87.099609375 906.70703125 l 1
 87.099609375 911.538085938 l 1
 87.099609375 927 l 1
 103.099609375 927 l 1
 329.051500436 927 l 2
 646.857421875 927 725.662109375 911.642578125 735.989257812 644.881835938 c 0
 737.989257812 588.342773438 740 541.524414062 740 502.002929688 c 0
 740 328.047851562 689.235351562 309 429.369888788 309 c 2
 241.200195312 309 l 1xd4
 252.094515622 3.4921875 l 1
 252.676935866 -13.6787109375 l 1
 234.455078125 -12.9873046875 l 1
 110.455078125 -7.9873046875 l 1
 95.1982421875 -7.3720703125 l 1xcc
 95.099609375 7.896484375 l 1xd4
 89.2021484375 891.245117188 l 1
 87.099609375 891.245117188 l 1
EndSplineSet
EndChar

StartChar: Q
Encoding: 81 81 50
Width: 981
VWidth: 1024
Flags: W
HStem: -15 134<318.604 542.093> 808 133<320.59 642.038>
VStem: 76.7002 138<231.509 690.739> 776.3 138<214.799 593.958>
LayerCount: 2
Fore
SplineSet
492.733078547 119 m 0
 510.999749328 119 528.858969618 119.348632812 544.813982507 119.958984375 c 1
 482.541619174 185.528320312 l 1
 463.486032771 205.59375 l 1
 492.34745576 210.474609375 l 1
 627.947395264 233.41015625 l 1
 637.596280257 235.041992188 l 1
 644.003231361 228.362304688 l 1
 706.354590197 163.362304688 l 1
 743.599930707 193.4140625 776.299804688 237.26953125 776.299804688 320.634765625 c 0
 776.299804688 357.026367188 768.5859375 409.71484375 764.639648438 462.890625 c 0
 741.582427123 756.963867188 676.359165967 808 492.733078547 808 c 0
 281.230933103 808 214.700195312 764.954101562 214.700195312 472.578125 c 0
 214.700195312 164.86328125 270.903310428 119 492.733078547 119 c 0
492.733078547 -15 m 0
 127.203125 -15 76.7001953125 60.798828125 76.7001953125 463 c 0
 76.7001953125 846.178710938 141.584960938 941 492.733078547 941 c 0
 823.772460938 941 887.151367188 846.2734375 909.27734375 463.83203125 c 0
 912.288085938 405.564453125 914.299804688 355.116210938 914.299804688 309.166015625 c 0
 914.299804688 160.852539062 893.303710938 74.3798828125 821.829101562 28.3818359375 c 1
 850.68359375 -14.2314453125 l 1
 860.171875 -28.7138671875 l 1
 844.986328125 -37.0322265625 l 1
 751.358120688 -88.0322265625 l 1
 739.117975295 -94.3330078125 l 1
 730.138473254 -84.29296875 l 1
 662.585884157 -8.7578125 l 1
 611.823997223 -13.2861328125 557.105059211 -15 492.733078547 -15 c 0
EndSplineSet
EndChar

StartChar: R
Encoding: 82 82 51
Width: 816
VWidth: 1024
Flags: W
HStem: 347 113<243.653 411.1> 813 114<248.465 580.227>
VStem: 93.5996 150<4.42188 347 460 803.725> 593.119 152.782<477.998 805.902>
LayerCount: 2
Fore
SplineSet
244.849609375 802.330078125 m 1
 243.653320312 460 l 1
 424.555438604 460 l 2
 595.729399246 460 593.118865926 456.65625 593.118865926 640.8046875 c 0
 593.118865926 819.548828125 594.678571571 813 491.303799135 813 c 0
 380.632975463 813 322.262431917 806.325195312 244.849609375 802.330078125 c 1
769.435546875 26.845703125 m 1
 769.755859375 26.0712890625 l 1
 771.755859375 21.23828125 l 1
 780.192382812 0.8515625 l 1
 757.4921875 0.0107421875 l 1
 622.168650273 -4.9892578125 l 1
 611.113089671 -5.3642578125 l 1
 606.011508006 3.623046875 l 1
 411.099510218 347 l 1
 243.599609375 347 l 1
 243.599609375 8 l 1
 243.599609375 -9.560546875 l 1
 226.114257812 -7.9306640625 l 1
 108.114257812 3.0693359375 l 1
 93.599609375 4.421875 l 1
 93.599609375 18.51171875 l 1
 93.599609375 911.536132812 l 1
 93.599609375 927 l 1
 109.599609375 927 l 1
 418.87563501 927 l 2
 721.594726562 927 745.900390625 903.327148438 745.900390625 642.819335938 c 0
 745.900390625 427.497070312 736.392578125 355.469726562 594.395861587 340.430664062 c 1
 769.030273438 27.5830078125 l 1
 769.435546875 26.845703125 l 1
EndSplineSet
EndChar

StartChar: S
Encoding: 83 83 52
Width: 843
VWidth: 1024
Flags: W
HStem: -2 136<244.033 609.957> 799 143<254.937 588.863>
VStem: 78.7324 147.9<561.188 768.782> 630.933 149<153.675 352.332>
LayerCount: 2
Fore
SplineSet
285.433218286 -2 m 0
 148.866210938 -2 110.580078125 29.76953125 82.005859375 193.051757812 c 0
 79.890625 203.624023438 78.8154296875 214.000976562 77.04296875 222.862304688 c 2
 74.099609375 237.581054688 l 1
 88.6005859375 241.45703125 l 1
 189.600585938 268.45703125 l 1
 205.9296875 272.822265625 l 1
 209.393554688 256.278320312 l 2
 233.615519628 142.607421875 249.277976373 134 366.021534071 134 c 0
 405.298221727 134 453.318993359 134.958984375 514.170723147 135.920898438 c 0
 629.579101562 137.7109375 615.84446334 142.48828125 628.401367188 263.349609375 c 0
 629.70703125 276.869140625 630.932617188 289.083984375 630.932617188 298.477539062 c 0
 630.932617188 358.0703125 606.855039465 366.30078125 399.900743923 395.837890625 c 0
 102.78515625 443.354492188 85.86328125 468.724609375 79.732421875 683.97265625 c 0
 79.732421875 696.193359375 78.732421875 708.213867188 78.732421875 720.734375 c 0
 78.732421875 905.170898438 139.606445312 941 397.12659752 941 c 0
 452.041314139 941 497.182793695 942 535.682040629 942 c 0
 675.438476562 942 712.223632812 917.302734375 764.884765625 762.728515625 c 0
 768.137695312 754.056640625 768.290039062 751.6875 769.788085938 747.942382812 c 2
 776.090820312 732.1875 l 1
 759.9921875 726.821289062 l 1
 651.9921875 690.821289062 l 1
 638.03125 686.166992188 l 1
 632.228515625 699.692382812 l 2
 587.453007878 796.879882812 575.581105695 799 484.784101077 799 c 2
 397.12659752 799 l 2
 254.900614604 799 226.6328125 786.0234375 226.6328125 674.973632812 c 0
 226.6328125 662.35546875 226.625976562 647.803710938 227.8984375 632.743164062 c 0
 232.945348732 548.928710938 225.56640625 547.400390625 527.273573141 504.583007812 c 0
 737.59765625 469.971679688 779.932617188 450.430664062 779.932617188 310.5859375 c 0
 779.932617188 296.23828125 778.932617188 282.397460938 778.932617188 266.133789062 c 0
 772.814453125 65.1611328125 755.825195312 5.908203125 463.86754699 1.001953125 c 0
 391.899052114 0.00390625 334.04131877 -2 285.433218286 -2 c 0
EndSplineSet
EndChar

StartChar: T
Encoding: 84 84 53
Width: 807
VWidth: 1024
Flags: W
HStem: 794 133<493.286 757.68> 812.991 114.009<64.5264 329.859>
VStem: 329.859 163.427<5.04785 798.677>
LayerCount: 2
Fore
SplineSet
477.032898785 4.037109375 m 1xa0
 429.004841289 1.0478515625 l 1
 429.004841289 -4 l 1
 411.572592861 -4 l 1
 347.291176785 -4 l 1
 329.858928358 -4 l 1
 329.858928358 12 l 1
 329.858928358 807.541992188 l 1
 75.431640625 812.991210938 l 1
 59.7998046875 813.338867188 l 1
 59.7998046875 828.446289062 l 1
 59.7998046875 869.994140625 l 1
 59.7998046875 885.453125 l 1
 62.5263671875 885.453125 l 1
 63.8173828125 912.258789062 l 1
 64.5263671875 927 l 1
 79.7998046875 927 l 1x60
 741.6796875 927 l 1
 757.6796875 927 l 1
 757.6796875 911 l 1
 757.6796875 810 l 1
 757.6796875 794 l 1
 741.6796875 794 l 1
 736.51953125 794 l 1
 493.286257365 798.676757812 l 1
 493.286257365 19.4169921875 l 1
 493.286257365 5.0478515625 l 1
 477.032898785 4.037109375 l 1xa0
EndSplineSet
EndChar

StartChar: U
Encoding: 85 85 54
Width: 888
VWidth: 1024
Flags: W
HStem: -15 148<270.645 614.953> 909.97 24.8584G<88.0967 215.115 647.714 817.587>
VStem: 87.0996 150<166.664 889.826> 647.714 167.885<505.266 920.072> 659.274 156.325<187.144 801.794>
LayerCount: 2
Fore
SplineSet
222.685546875 913.635742188 m 2xe8
 222.524414062 912.686523438 236.107421875 889.826171875 236.107421875 889.826171875 c 1
 237.099609375 385.907226562 l 2
 237.099609375 132.91796875 237.958007812 133 452.943121539 133 c 0
 640.705953069 133 642.477968424 133.244140625 659.27354628 386.98828125 c 1xe8
 647.713708486 920.072265625 l 1xf0
 817.659179688 929.969726562 l 1
 815.598632812 361.850585938 l 1
 799.461914062 14.5859375 775.087890625 -15 452.943121539 -15 c 0
 111.91796875 -15 87.099609375 14.9072265625 87.099609375 362.31640625 c 2
 88.1328125 934.828125 l 1
 222.685546875 913.635742188 l 2xe8
EndSplineSet
EndChar

StartChar: V
Encoding: 86 86 55
Width: 831
VWidth: 1024
Flags: W
HStem: 918.932 20G<189.144 208.032 655.445 674.99>
LayerCount: 2
Fore
SplineSet
54.599609375 905.829101562 m 1
 71.1435546875 909.490234375 l 1
 189.143554688 935.596679688 l 1
 203.71875 938.931640625 l 1
 208.032226562 924.616210938 l 1
 425.865168913 255.0859375 l 1
 655.4453125 926.849609375 l 1
 660.124023438 941.557617188 l 1
 674.990234375 937.412109375 l 1
 778.990234375 909.380859375 l 1
 794.47265625 905.208007812 l 1
 790.084960938 890.26171875 l 1
 523.482870527 11.6318359375 l 1
 520.6824016 2.4951171875 l 1
 523.09048844 -7.787109375 l 1
 499.770124031 -5.94140625 l 1
 424.681693909 0 l 1
 345.381485096 0 l 1
 320.525345637 0 l 1
 329.182011733 20.8583984375 l 1
 329.998419623 22.8251953125 l 1
 59.3525390625 890.076171875 l 1
 54.599609375 905.829101562 l 1
EndSplineSet
EndChar

StartChar: W
Encoding: 87 87 56
Width: 1109
VWidth: 1024
Flags: W
HStem: 921.474 20G<177.978 197.449 639.087 655.857>
LayerCount: 2
Fore
SplineSet
55.900390625 907.728515625 m 1
 70.9775390625 911.407226562 l 1
 177.977539062 937.513671875 l 1
 193.668945312 941.473632812 l 1
 197.44921875 925.737304688 l 1
 356.354807397 292.114257812 l 1
 488.451227039 916.16796875 l 1
 491.061557236 928.5 l 1
 504.233952623 928.98828125 l 1
 639.087028303 933.98828125 l 1
 652.238958537 934.475585938 l 1
 655.857197493 922.3984375 l 1
 849.130097411 277.211914062 l 1
 925.971679688 935.787109375 l 1
 928.25 956.060546875 l 1
 947.396484375 949.015625 l 1
 1053.39648438 911.28515625 l 1
 1065.53515625 906.963867188 l 1
 1063.71191406 894.576171875 l 1
 931.711914062 -2.255859375 l 1
 929.51171875 -17.7099609375 l 1
 914.006835938 -15.890625 l 1
 771.275541131 0.109375 l 1
 759.970590907 1.375 l 1
 757.03281827 11.8701171875 l 1
 591.530106995 603.047851562 l 1
 446.258222193 28.2294921875 l 1
 442.167238215 12.2109375 l 1
 439.276535428 0.8935546875 l 1
 427.10386274 0.04296875 l 1
 284.077005164 -9.95703125 l 1
 269.628607521 -10.9677734375 l 1
 266.486183359 2.529296875 l 1
 59.2734375 893.051757812 l 1
 55.900390625 907.728515625 l 1
EndSplineSet
EndChar

StartChar: X
Encoding: 88 88 57
Width: 827
VWidth: 1024
Flags: W
HStem: 915.719 20G<223.573 239.766>
LayerCount: 2
Fore
SplineSet
616.953255209 944.134765625 m 1
 628.151689453 942.885742188 l 1
 762.907226562 926.885742188 l 1
 785.555664062 924.161132812 l 1
 775.28125 904.477539062 l 1
 540.243717391 469.79296875 l 1
 792.27734375 3.21484375 l 1
 806.541992188 -25.0224609375 l 1
 775.344726562 -19.7783203125 l 1
 656.344726562 0.2216796875 l 1
 648.553162277 1.484375 l 1
 644.50445709 8.1162109375 l 1
 445.093354098 334.743164062 l 1
 233.373976741 -5.9892578125 l 1
 228.395490883 -14 l 1
 218.425883414 -14 l 1
 149.916015625 -14 l 1
 126.283203125 -14 l 1
 129.865234375 -5.0458984375 l 1
 80.26953125 0.0849609375 l 1
 57.2001953125 2.4716796875 l 1
 67.623046875 22.49609375 l 1
 326.356255773 503.557617188 l 1
 105.673828125 904.42578125 l 1
 94.71875 925.109375 l 1
 118.689453125 926.953125 l 1
 223.572845952 934.953125 l 1
 234.30691635 935.71875 l 1
 239.765560744 927.112304688 l 1
 422.809154389 638.537109375 l 1
 611.227154088 935.122070312 l 1
 616.953255209 944.134765625 l 1
EndSplineSet
EndChar

StartChar: Y
Encoding: 89 89 58
Width: 817
VWidth: 1024
Flags: W
VStem: 342.421 158.921<4.00781 431.323>
LayerCount: 2
Fore
SplineSet
649.106445312 951 m 1
 771.106445312 919 l 1
 791.141601562 913.745117188 l 1
 780.997070312 903.327148438 l 1
 501.342042273 431.323242188 l 1
 503.459809336 -4.8564453125 l 1
 503.544224565 -6.1533203125 l 1
 485.012971373 -5 l 1
 356.43169424 3 l 1
 340.229246184 4.0078125 l 1
 340.303109509 3.1455078125 l 1
 342.420876572 434.32421875 l 1
 64.1083984375 905.360351562 l 1
 53.2998046875 916.76953125 l 1
 75.005859375 921 l 1
 193.005859375 944 l 1
 204.568359375 946.25390625 l 1
 210.368023138 944 l 1
 419.126884974 592.8359375 l 1
 630.45513535 951 l 1
 636.889686197 954.203125 l 1
 649.106445312 951 l 1
EndSplineSet
EndChar

StartChar: Z
Encoding: 90 90 59
Width: 869
VWidth: 1024
Flags: W
HStem: 0.000976562 124.383<238.173 792.272> 794 133<100.448 572.59 784.294 796.28>
LayerCount: 2
Fore
SplineSet
784.293945312 794 m 1
 238.172600637 132.555664062 l 1
 808.532226562 124.383789062 l 1
 829.456054688 124.06640625 l 1
 823.65234375 104.750976562 l 1
 795.65234375 11.5625 l 1
 792.272460938 -0.146484375 l 1
 780.0859375 0.0009765625 l 1
 88.60546875 8.0009765625 l 1
 72.7998046875 8.193359375 l 1
 72.7998046875 24 l 1
 72.7998046875 125 l 1
 72.7998046875 141 l 1
 82.3291015625 141 l 1
 572.58983614 794 l 1
 114.799804688 794 l 1
 100.448242188 794 l 1
 98.8935546875 808.267578125 l 1
 87.8935546875 909.267578125 l 1
 85.962890625 927 l 1
 103.799804688 927 l 1
 780.280273438 927 l 1
 796.280273438 927 l 1
 796.280273438 911 l 1
 796.280273438 810 l 1
 796.280273438 794 l 1
 784.293945312 794 l 1
EndSplineSet
EndChar

StartChar: bracketleft
Encoding: 91 91 60
Width: 410
VWidth: 1024
Flags: W
HStem: -115 114.36<228.449 359.583> 889.522 122.478<215.881 350.718>
VStem: 93.6562 122.225<252.932 891.233> 97.6562 130.793<-0.639648 637.661>
LayerCount: 2
Fore
SplineSet
336.422851562 889.522460938 m 1xe0
 215.880859375 891.233398438 l 1xe0
 228.44921875 -0.6396484375 l 1
 357.43359375 -6.734375 l 1
 374.91796875 -7.560546875 l 1
 372.50390625 -24.4140625 l 1
 361.50390625 -101.20703125 l 1
 359.583007812 -115 l 1
 345.65625 -115 l 1
 113.65625 -115 l 1
 97.712890625 -115 l 1
 97.65625 -99.056640625 l 1xd0
 93.65625 996.392578125 l 1
 93.599609375 1012 l 1
 109.65625 1012 l 1
 348.65625 1012 l 1
 366.829101562 1012 l 1
 364.52734375 994.477539062 l 1
 352.52734375 903.104492188 l 1
 350.717773438 889.319335938 l 1
 336.422851562 889.522460938 l 1xe0
EndSplineSet
EndChar

StartChar: backslash
Encoding: 92 92 61
Width: 514
VWidth: 1024
Flags: W
LayerCount: 2
Fore
SplineSet
387.252929688 -9.75 m 1
 380.853515625 11.3583984375 l 1
 67.853515625 907.05078125 l 1
 62.400390625 924.43359375 l 1
 81.03125 926.857421875 l 1
 185.03125 940.857421875 l 1
 198.463867188 942.665039062 l 1
 202.456054688 929.712890625 l 1
 504.456054688 82.9482421875 l 1
 507.891601562 72.1748046875 l 1
 498.33203125 65.716796875 l 1
 405.33203125 2.8857421875 l 1
 387.252929688 -9.75 l 1
EndSplineSet
EndChar

StartChar: bracketright
Encoding: 93 93 62
Width: 410
VWidth: 1024
Flags: W
HStem: -115 127.241<74.752 173.728> 898.786 113.214<70.7578 194.028>
VStem: 173.728 154.648<13.2041 403.469> 194.028 138.348<503.727 893.992>
LayerCount: 2
Fore
SplineSet
89.216796875 12.3818359375 m 1xe0
 173.727539062 13.2041015625 l 1xe0
 194.028320312 893.9921875 l 1
 84.7373046875 898.243164062 l 1
 70.7578125 898.786132812 l 1
 69.447265625 912.331054688 l 1
 61.447265625 994.984375 l 1
 59.7998046875 1012 l 1
 77.3759765625 1012 l 1
 316.375976562 1012 l 1
 332.43359375 1012 l 1
 332.375976562 996.392578125 l 1xd0
 328.375976562 -99.056640625 l 1
 328.319335938 -115 l 1
 312.375976562 -115 l 1
 80.3759765625 -115 l 1
 62.85546875 -115 l 1
 64.4423828125 -98.033203125 l 1
 73.4423828125 -1.7666015625 l 1
 74.751953125 12.2412109375 l 1
 89.216796875 12.3818359375 l 1xe0
EndSplineSet
EndChar

StartChar: asciicircum
Encoding: 94 94 63
Width: 884
VWidth: 1024
Flags: W
LayerCount: 2
Fore
SplineSet
724.951171875 339 m 1
 462.660289627 669.78515625 l 1
 196.256835938 336 l 1
 189.6640625 332.91015625 l 1
 178.91015625 336 l 1
 91.91015625 361 l 1
 71.5 366.865234375 l 1
 82.765625 377.9765625 l 1
 382.587261155 823 l 1
 387.575320825 822.916992188 l 1
 396.978232468 823 l 1
 509.972454765 824 l 1
 519.30830006 824.083007812 l 1
 524.457738131 824 l 1
 838.255859375 384.6484375 l 1
 849.88671875 373.4609375 l 1
 829.810546875 367 l 1
 742.810546875 339 l 1
 731.760742188 335.443359375 l 1
 724.951171875 339 l 1
EndSplineSet
EndChar

StartChar: underscore
Encoding: 95 95 64
Width: 940
VWidth: 1024
Flags: W
HStem: -164 96<128.2 843.605>
LayerCount: 2
Fore
SplineSet
128.200195312 -164 m 1
 125.041015625 -120.107421875 l 1
 108.041015625 -80.45703125 l 1
 102.700195312 -68 l 1
 123.504882812 -68 l 1
 831.484375 -68 l 1
 843.60546875 -68 l 1
 846.88671875 -79.66796875 l 1
 864.88671875 -119.3828125 l 1
 870.60546875 -132 l 1
 849.484375 -164 l 1
 140.504882812 -164 l 1
 128.200195312 -164 l 1
EndSplineSet
EndChar

StartChar: grave
Encoding: 96 96 65
Width: 372
VWidth: 1024
Flags: W
HStem: 777.189 245.291
VStem: 75.4004 245.19
LayerCount: 2
Fore
SplineSet
75.400390625 951.157226562 m 1
 89.208984375 959.720703125 l 1
 175.208984375 1013.05078125 l 1
 188.502929688 1022.48046875 l 1
 197.685546875 1009.01367188 l 1
 257.685546875 932.118164062 l 1
 257.887695312 931.858398438 l 1
 258.076171875 931.591796875 l 1
 313.076171875 853.822265625 l 1
 320.590820312 843.196289062 l 1
 309.350585938 835.478515625 l 1
 239.350585938 787.418945312 l 1
 226.331054688 777.189453125 l 1
 216.552734375 790.551757812 l 1
 156.75 862.005859375 l 1
 85.9580078125 939.587890625 l 1
 75.400390625 951.157226562 l 1
EndSplineSet
EndChar

StartChar: a
Encoding: 97 97 66
Width: 774
VWidth: 1024
Flags: W
HStem: -17 119<209.947 508.582> 309 121.344<228.145 565.56> 588 126<232.803 532.931>
VStem: 79.2998 127<109.504 286.14 538.955 554.431> 571.581 131.019<145.678 295.702>
LayerCount: 2
Fore
SplineSet
571.581054688 175.291015625 m 1
 570.430664062 293.625976562 l 1
 521.624863495 297.63671875 369.957611434 309 305.518731648 309 c 0
 226.700195312 309 218.022460938 298.321289062 207.599609375 171.991210938 c 0
 207.432617188 162.780273438 206.299804688 157.90625 206.299804688 153.053710938 c 0
 206.299804688 109.696289062 220.513671875 102 275.130929954 102 c 0
 305.68287252 102 339.980705431 104.715820312 384.765074667 108.422851562 c 0
 493.910057843 117.7578125 560.5 139.21875 571.581054688 175.291015625 c 1
86.033203125 540.754882812 m 1
 88.5498046875 554.818359375 l 2
 106.369140625 654.39453125 138.606445312 714 319.989216934 714 c 0
 342.363465629 714 365.559505705 712.987304688 390.348038341 711.979492188 c 0
 640.013671875 699.451171875 674.111328125 690.780273438 691.548828125 478.721679688 c 0
 700.608398438 371.772460938 702.599609375 247.043945312 702.599609375 152.078125 c 0
 702.599609375 61.8935546875 700.595703125 -2.3720703125 700.592773438 -2.4755859375 c 2
 700.071289062 -20.0244140625 l 1
 682.645507812 -17.8798828125 l 2
 618.245117188 -9.9541015625 611.616210938 -12.072265625 597.1015625 -5.62109375 c 2
 596.76953125 -5.4736328125 l 1
 596.444335938 -5.310546875 l 2
 581.008789062 2.4072265625 582.103515625 19.771484375 581.672851562 26.7919921875 c 1
 530.936325105 -4.3095703125 445.380885286 -2.3974609375 299.918375564 -13.9326171875 c 0
 276.436447745 -15.9609375 254.029588281 -17 233.200195312 -17 c 0
 129.868164062 -17 79.2998046875 27.005859375 79.2998046875 169.154296875 c 0
 79.2998046875 400.249023438 120.703125 426.388671875 293.49840215 430.333984375 c 2
 293.945169687 430.34375 l 1
 294.391937224 430.333984375 l 2
 451.214951882 426.948242188 535.049630117 424.022460938 567.374023438 422.654296875 c 1
 554.989257812 559.655273438 577.799804688 583.41015625 389.257751627 585.151367188 c 2
 388.730544192 585.15625 l 1
 388.204423784 585.1875 l 2
 356.549150197 587.076171875 333.794442529 588 314.200805414 588 c 0
 243.390868367 588 232.919921875 577.484375 213.268554688 518.911132812 c 2
 208.34765625 504.243164062 l 1
 193.5234375 508.668945312 l 1
 99.7236328125 536.668945312 l 1
 86.033203125 540.754882812 l 1
EndSplineSet
EndChar

StartChar: b
Encoding: 98 98 67
Width: 784
VWidth: 1024
Flags: W
HStem: -15 127<264.884 545.632> 585 126<266.596 515.519>
VStem: 92.2998 141<0 16.1533 144.408 552.061 680.999 909.25> 598.6 123<173.097 482.554>
LayerCount: 2
Fore
SplineSet
390.233452409 585 m 0
 264.081349619 585 239.654296875 570.040039062 233.299804688 420.790039062 c 1
 233.299804688 286.3828125 l 2
 237.1171875 127.779296875 261.652635814 112 390.233452409 112 c 0
 547.168065414 112 598.360351562 123.321289062 598.599609375 334.375976562 c 1
 581.654296875 550.193359375 524.047013711 585 390.233452409 585 c 0
721.599609375 348.4140625 m 1
 721.599609375 348 l 2
 721.599609375 46.1044921875 685.696289062 -15 446.548372429 -15 c 0
 350.397773181 -15 281.511899927 -9.076171875 232.299804688 16.1533203125 c 1
 232.299804688 0 l 1
 216.299804688 0 l 1
 210.481445312 0 l 1
 110.650390625 -14.826171875 l 1
 92.2998046875 -17.5517578125 l 1
 92.2998046875 1 l 1
 92.2998046875 11.025390625 l 1
 95.2998046875 926.05078125 l 1
 95.3662109375 946.880859375 l 1
 115.474609375 941.446289062 l 1
 222.774414062 912.446289062 l 1
 234.599609375 909.25 l 1
 234.599609375 897 l 1
 234.599609375 886.956054688 l 1
 233.46484375 680.999023438 l 1
 283.716074314 705.540039062 351.601825135 711 446.548372429 711 c 0
 669.055664062 711 704.551757812 650.004882812 721.576171875 348.828125 c 2
 721.599609375 348.4140625 l 1
EndSplineSet
EndChar

StartChar: c
Encoding: 99 99 68
Width: 744
VWidth: 1024
Flags: W
HStem: -10 126<255.196 549.412> 586 122<235.591 551.581>
VStem: 76.7002 131<169.986 560.143>
LayerCount: 2
Fore
SplineSet
562.6484375 189.771484375 m 1
 578.938476562 186.727539062 l 1
 669.938476562 169.727539062 l 1
 685.708984375 166.78125 l 1
 682.719726562 151.018554688 l 2
 659.750976562 29.9130859375 642.494140625 -10 391.865516978 -10 c 0
 120.926757812 -10 90.77734375 5.7060546875 78.7080078125 354.264648438 c 0
 77.7060546875 386.8671875 76.7001953125 417.548828125 76.7001953125 444.733398438 c 0
 76.7001953125 673.365234375 131.8125 708 322.161751794 708 c 0
 344.708734838 708 367.400802248 707 392.107687873 707 c 0
 670.466796875 699.857421875 661.40625 618.510742188 683.939453125 559.7265625 c 2
 690.509765625 542.588867188 l 1
 672.635742188 538.418945312 l 1
 582.635742188 517.418945312 l 1
 570.42578125 514.569335938 l 1
 564.740234375 525.744140625 l 2
 546.678710938 561.241210938 576.2578125 584.015625 391.813155703 585 c 0
 366.708106219 585 344.701098819 586 325.066711678 586 c 0
 236.683061756 586 207.700195312 580.716796875 207.700195312 375.342773438 c 0
 207.700195312 125.045898438 251.656204591 116 391.865516978 116 c 0
 534.741981793 116 551.669921875 116.934570312 560.178710938 173.384765625 c 2
 562.6484375 189.771484375 l 1
EndSplineSet
EndChar

StartChar: d
Encoding: 100 100 69
Width: 775
VWidth: 1024
Flags: W
HStem: -15 127<263.031 522.548> 585 126<278.103 522.221>
VStem: 75.4004 151<155.139 513.767> 555.3 141<0 16 144.408 551.838 680.999 909.25>
LayerCount: 2
Fore
SplineSet
75.400390625 348.4140625 m 1
 75.423828125 348.828125 l 2
 92.43359375 649.744140625 127.6015625 711 341.453811805 711 c 0
 436.956988219 711 506.203074151 704.86328125 555.134765625 680.999023438 c 1
 554 886.956054688 l 1
 554 897 l 1
 554 909.25 l 1
 565.825195312 912.446289062 l 1
 673.125 941.446289062 l 1
 693.233398438 946.880859375 l 1
 693.299804688 926.05078125 l 1
 696.299804688 11.025390625 l 1
 696.299804688 1 l 1
 696.299804688 -17.5517578125 l 1
 677.94921875 -14.826171875 l 1
 578.118164062 -0 l 1
 572.299804688 0 l 1
 556.299804688 0 l 1
 556.299804688 16 l 1
 556.299804688 16 399.59497843 -15 341.453811805 -15 c 0
 110.973632812 -15 75.400390625 46.36328125 75.400390625 348 c 2
 75.400390625 348.4140625 l 1
555.299804688 286.3828125 m 2
 555.299804688 420.790039062 l 1
 548.96875 569.4921875 524.459226396 585 397.9379987 585 c 0
 264.480956311 585 244.898567499 564.9375 226.400390625 347.489257812 c 1
 226.5 130.737304688 245.397946157 112 397.9379987 112 c 0
 526.904985052 112 551.483398438 127.778320312 555.299804688 286.3828125 c 2
EndSplineSet
EndChar

StartChar: e
Encoding: 101 101 70
Width: 749
VWidth: 1024
Flags: W
HStem: -12 116<243.116 518.302> 295.649 107.011<213.18 530.861> 312.153 84.1865<351.215 538.736> 592 125<237.6 508.454>
VStem: 76.7002 136<131.613 295.649 402.66 569.604> 539.83 126.47<396.34 561.626>
LayerCount: 2
Fore
SplineSet
539.830032299 427 m 0xbc
 539.830032299 571.9296875 518.954278328 592 365.096872008 592 c 2
 353.514335942 592 l 2
 228.74609375 592 212.831054688 601.388671875 212.700195312 402.66015625 c 1xdc
 538.735944855 396.33984375 l 1
 539.186195552 407.994140625 539.830032299 418.034179688 539.830032299 427 c 0xbc
646.088867188 312.153320312 m 2xbc
 527.417686372 306.665039062 368.271465696 301.08203125 213.1796875 295.649414062 c 1xdc
 220.352539062 94.1552734375 237.042963407 104 388.260856579 104 c 2
 396.947214847 104 l 2
 508.972633631 104 524.060382256 113.75390625 562.341796875 200.181640625 c 2
 567.688476562 212.944335938 l 1
 581.087890625 209.495117188 l 1
 682.087890625 183.495117188 l 1
 698.6328125 179.235351562 l 1
 693.299804688 163.005859375 l 2
 645.754882812 18.3017578125 602.80859375 -12 399.842305083 -12 c 0
 126.41015625 -12 83.7509765625 0.1630859375 77.7001953125 360.498046875 c 0
 77.7001953125 383.337890625 76.7001953125 403.15625 76.7001953125 424.799804688 c 0
 76.7001953125 698.534179688 131.1875 711.142578125 385.17544298 716 c 0
 411.169264062 716 433.848195949 717 456.305265173 717 c 0
 629.821289062 717 666.299804688 681.8125 666.299804688 520.26953125 c 0
 666.299804688 470.467773438 664.291992188 406.68359375 661.290039062 326.798828125 c 2
 660.765625 312.841796875 l 1
 646.088867188 312.153320312 l 2xbc
EndSplineSet
EndChar

StartChar: f
Encoding: 102 102 71
Width: 480
VWidth: 1024
Flags: W
HStem: 591.711 118.309<69.6949 154.842> 806 121<293.275 413.635>
VStem: 154.842 136<-6.35449 578.074 704.155 805.537>
LayerCount: 2
Fore
SplineSet
290.841796875 709.7578125 m 2
 290.841796875 695.008789062 l 1
 400.86328125 687.967773438 l 1
 414.411132812 687.100585938 l 1
 415.762695312 674.190429688 l 1
 424.762695312 588.178710938 l 1
 426.630859375 570.32421875 l 1
 407.887695312 571.393554688 l 1
 290.787109375 578.07421875 l 1
 288.841796875 -3.05078125 l 1
 288.78515625 -20.8310546875 l 1
 271.109375 -18.90625 l 1
 170.109375 -7.90625 l 1
 155.865234375 -6.3544921875 l 1
 155.841796875 7.974609375 l 1
 154.866210938 586.836914062 l 1
 73.017578125 590.868164062 l 1
 55.900390625 591.7109375 l 1
 57.95703125 607.970703125 l 1
 68.95703125 694.919921875 l 1
 70.7822265625 710.01953125 l 1
 85.955078125 708.9609375 l 1
 154.841796875 704.155273438 l 1
 154.841796875 746.299804688 l 1
 160.801757812 905.24609375 164.215820312 927 270.841796875 927 c 2
 292.841796875 927 l 1
 399.841796875 927 l 1
 413.634765625 927 l 1
 415.666992188 913.357421875 l 1
 429.666992188 819.357421875 l 1
 432.54296875 800.044921875 l 1
 413.04296875 801.01953125 l 1
 333.491210938 804.997070312 l 2
 321.782226562 805.102539062 315.709960938 806 309.841796875 806 c 0
 293.005859375 806 294.041015625 815.33203125 290.841796875 709.7578125 c 2
EndSplineSet
EndChar

StartChar: g
Encoding: 103 103 72
Width: 734
VWidth: 1024
Flags: W
HStem: -261 129<157.272 494.704> -6 133<232.558 512.186> 581 120<243.832 486.28> 701 20G<645.639 663.403>
VStem: 88.3096 130<139.509 555.539> 525.109 140.966<137.18 541.079 683.048 693.408> 527.109 128.994<-99.0558 -0.867188 138.533 537.805>
LayerCount: 2
Fore
SplineSet
527.109375 307.291992188 m 0xea
 527.109375 528.366210938 518.272460938 581 386.683986569 581 c 2
 356.014091995 581 l 2
 235.129396459 581 218.309570312 587.61328125 218.309570312 344.658203125 c 0
 218.309570312 120.5390625 222.149414062 127 329.724984008 127 c 2
 372.079170379 127 l 1
 407.130948657 127 l 2
 515.9453125 127 527.109375 120.5078125 527.109375 307.291992188 c 0xea
130.596679688 -94.287109375 m 1
 130.596679688 -94.287109375 217.993164062 -132 345.791159509 -132 c 0
 520.7890625 -132 525.109375 -87.5185546875 525.109375 -20 c 2
 525.109375 -0.8671875 l 1
 487.585800339 -2.5927734375 400.818139736 -6 315.120167819 -6 c 2
 300.51535163 -6 l 2
 95.580078125 -6 88.3095703125 13.4189453125 88.3095703125 340.325195312 c 2
 88.3095703125 351.8046875 l 2
 88.3095703125 664.747070312 120.599609375 701 278.608127346 701 c 2
 369.158645988 701 l 1
 386.683986569 701 l 2xec
 460.04488231 701 493.011041929 700.75390625 525.109375 683.047851562 c 1
 525.109375 693.834960938 l 1
 537.638671875 696.619140625 l 1
 645.638671875 720.619140625 l 1
 647.353515625 721 l 1
 649.109375 721 l 2
 677.697265625 721 666.260742188 693.408203125 666.260742188 693.408203125 c 2
 666.591796875 685.813476562 666.791992188 680.412109375 666.075195312 674.350585938 c 2xdc
 656.103515625 8.4306640625 l 1
 644.067382812 -203.19140625 636.267578125 -228.62890625 478.547753782 -255.811523438 c 0
 452.158808184 -259 424.431380334 -261 395.446656859 -261 c 0
 256.776604108 -261 128.35546875 -228.515625 86.95703125 -219.64453125 c 2
 68.900390625 -215.775390625 l 1
 75.3017578125 -198.453125 l 2
 92.75390625 -151.229492188 87.0966796875 -173.04296875 109.06640625 -104.139648438 c 2
 114.412109375 -87.37109375 l 1
 130.596679688 -94.287109375 l 1
EndSplineSet
EndChar

StartChar: h
Encoding: 104 104 73
Width: 692
VWidth: 1024
Flags: W
HStem: 568 137<230.525 474.414>
VStem: 98.1309 125.999<8.3623 559.281 683.638 924.366> 478.93 141<159.183 558.972> 492.315 130.614<2.20996 328.224>
LayerCount: 2
Fore
SplineSet
492.315429688 2.2099609375 m 1xd0
 491.935546875 15.8076171875 l 1
 478.9296875 480.724609375 l 1
 478.9296875 497.9609375 l 2
 478.9296875 571.400390625 475.465820312 568 364.266869107 568 c 0
 229.708984375 568 224.129882812 561.849609375 224.129882812 487.59765625 c 2
 224.129882812 22.2080078125 l 1
 224.129882812 8.3623046875 l 1
 209.549804688 7.0634765625 l 1
 108.549804688 -1.9365234375 l 1
 91 -3.5009765625 l 1
 91.130859375 14.1181640625 l 1
 98.130859375 928.118164062 l 1
 98.271484375 947.127929688 l 1
 116.977539062 943.744140625 l 1
 210.977539062 926.744140625 l 1
 224.129882812 924.366210938 l 1
 224.129882812 911 l 1
 224.129882812 683.637695312 l 1
 270.411202832 701.120117188 334.846087615 705 431.018629036 705 c 0
 588.982421875 705 619.9296875 682.190429688 619.9296875 486.11328125 c 2xe0
 622.9296875 9.095703125 l 1
 623.034179688 -8.353515625 l 1
 605.640625 -6.9482421875 l 1
 506.640625 1.0517578125 l 1
 492.315429688 2.2099609375 l 1xd0
EndSplineSet
EndChar

StartChar: i
Encoding: 105 105 74
Width: 313
VWidth: 1024
Flags: W
HStem: 686.148 20G<219.352 235.5>
VStem: 91.4141 145.086<4.96582 704.854>
LayerCount: 2
Fore
SplineSet
91.4140625 4.9658203125 m 1
 91.5 19.4150390625 l 1
 95.5 689.090820312 l 1
 95.58984375 704.853515625 l 1
 111.3515625 704.999023438 l 1
 219.3515625 705.999023438 l 1
 235.477539062 706.1484375 l 1
 235.5 690.022460938 l 1
 236.5 13.0224609375 l 1
 236.524414062 -4.0234375 l 1
 219.510742188 -2.9697265625 l 1
 106.510742188 4.0302734375 l 1
 91.4140625 4.9658203125 l 1
84.5 796.96875 m 5
 84.5 812 l 5
 84.5 931 l 5
 84.5 947 l 5
 100.5 947 l 5
 220.5 947 l 5
 235.5234375 947 l 5
 236.46875 932.005859375 l 5
 244.46875 805.005859375 l 5
 245.609375 786.899414062 l 5
 227.501953125 788.03125 l 5
 99.501953125 796.03125 l 5
 84.5 796.96875 l 5
EndSplineSet
EndChar

StartChar: j
Encoding: 106 106 75
Width: 361
VWidth: 1024
Flags: W
HStem: 677 20G<128.429 284.171> 795 151<123.8 274.8>
VStem: 123.8 151<795 946> 128.804 154.992<515.309 697> 144.8 123<-53.6055 390.072>
LayerCount: 2
Fore
SplineSet
46.7998046875 -37.6669921875 m 1xc8
 67.2802734375 -43.6396484375 l 1
 110.23828125 -56.169921875 l 1
 152.645507812 -40.8486328125 144.799804688 -53.4169921875 144.799804688 -18 c 2
 144.799804688 15.81640625 l 1xc8
 128.803710938 681.3671875 l 1xd0
 128.428710938 697 l 1
 144.799804688 697 l 1
 267.799804688 697 l 1xc8
 284.170898438 697 l 1
 283.795898438 681.3671875 l 1xd0
 267.799804688 15.81640625 l 1
 267.799804688 -56 l 2
 267.799804688 -145.4765625 245.890625 -145.932617188 147.43359375 -182.975585938 c 2
 143.328125 -184.520507812 l 1
 139.0078125 -183.754882812 l 1
 60.0078125 -169.754882812 l 1
 46.7998046875 -167.4140625 l 1
 46.7998046875 -154 l 1
 46.7998046875 -59 l 1
 46.7998046875 -37.6669921875 l 1xc8
123.799804688 795 m 5xe0
 123.799804688 811 l 5
 123.799804688 930 l 5
 123.799804688 946 l 5
 139.799804688 946 l 5
 258.799804688 946 l 5
 274.799804688 946 l 5
 274.799804688 930 l 5
 274.799804688 811 l 5
 274.799804688 795 l 5
 258.799804688 795 l 5
 139.799804688 795 l 5
 123.799804688 795 l 5xe0
EndSplineSet
EndChar

StartChar: k
Encoding: 107 107 76
Width: 667
VWidth: 1024
Flags: W
HStem: 690.885 20G<494.342 513.608>
VStem: 81.9004 140.404<-0.614258 266.501> 109.318 141.969<639.35 905.367>
LayerCount: 2
Fore
SplineSet
81.900390625 -0.6142578125 m 1xc0
 82.318359375 13.474609375 l 1
 109.318359375 891.474609375 l 1
 109.73046875 905.3671875 l 1
 123.544921875 906.90234375 l 1
 231.544921875 918.90234375 l 1
 251.873589383 920.932617188 l 1
 251.287325321 902.555664062 l 1xa0
 236.607138413 443.043945312 l 1
 494.341796875 701.526367188 l 1
 502.517578125 710.884765625 l 1
 513.608398438 705.280273438 l 1
 606.608398438 660.356445312 l 1
 625.091796875 651.427734375 l 1
 611.38671875 636.587890625 l 1
 412.659316407 431.1015625 l 1
 626.764648438 30.2373046875 l 1
 635.540039062 13.087890625 l 1
 616.115234375 8.439453125 l 1
 499.115234375 -19.560546875 l 1
 486.028320312 -22.6923828125 l 1
 480.603053472 -10.3369140625 l 1
 307.23398821 339.189453125 l 1
 230.129882812 266.500976562 l 1
 222.3046875 -4.4619140625 l 1
 221.780273438 -22.6318359375 l 1
 203.823242188 -19.8056640625 l 1
 95.8232421875 -2.8056640625 l 1
 81.900390625 -0.6142578125 l 1xc0
EndSplineSet
EndChar

StartChar: l
Encoding: 108 108 77
Width: 311
VWidth: 1024
Flags: W
HStem: 898.883 20G<101.102 117.971>
VStem: 87.0996 141.757<-12 560.843> 101.102 141.998<344.563 915>
LayerCount: 2
Fore
SplineSet
243.099609375 915 m 1xa0
 243.099609375 899 l 1
 243.099609375 885.877929688 l 1xa0
 229.09765625 3.7548828125 l 1
 228.856445312 -12 l 1
 213.099609375 -12 l 1
 103.099609375 -12 l 1
 87.099609375 -12 l 1
 87.099609375 4 l 1
 87.099609375 9.12109375 l 1xc0
 101.1015625 902.2421875 l 1
 101.353515625 918.8828125 l 1
 117.970703125 917.9765625 l 1
 172.536132812 915 l 1
 227.099609375 915 l 1
 243.099609375 915 l 1xa0
EndSplineSet
EndChar

StartChar: m
Encoding: 109 109 78
Width: 1043
VWidth: 1024
Flags: W
HStem: 568 146<235.95 451.654> 568 130<612.032 829.514>
VStem: 84.8389 145.998<199.402 560.952 686.251 692.443> 96.8389 133.998<8.31445 509.107> 456.511 142.852<1.19434 557.695> 828.521 146.112<8.10449 419.945> 832.637 132<54.3968 558.782>
LayerCount: 2
Fore
SplineSet
828.521484375 8.1044921875 m 1x4c
 828.637695312 21.373046875 l 1
 832.63671875 481.036132812 l 2
 832.63671875 572.82421875 830.831054688 568 731.84688832 568 c 0x4a
 610.569604992 568 605.712768124 562.223632812 605.712768124 487.592773438 c 2
 605.712768124 480.880859375 l 1
 599.362712261 7.8076171875 l 1
 599.145704657 -9.2744140625 l 1
 581.121673029 -7.9521484375 l 1
 472.130120237 0.0478515625 l 1
 456.510739544 1.1943359375 l 1
 456.510739544 16 l 1
 456.510739544 481.041015625 l 2
 456.510739544 572.6328125 453.481933404 568 353.761772181 568 c 0
 235.600585938 568 230.836914062 562.36328125 230.836914062 487.596679688 c 2xaa
 230.836914062 21.259765625 l 1
 230.836914062 8.314453125 l 1
 217.31640625 6.193359375 l 1
 115.31640625 -9.806640625 l 1
 97.142578125 -12.6572265625 l 1
 96.8388671875 5.736328125 l 1x98
 84.8388671875 700.736328125 l 1
 84.5 721.28125 l 1
 104.501953125 716.57421875 l 1
 138.05078125 708.680664062 l 1
 217.594726562 694.760742188 l 1
 230.836914062 692.443359375 l 1
 230.836914062 686.250976562 l 1
 264.929192499 704.262695312 306.801326517 714 388.152310684 714 c 0xa8
 477.051026017 714 540.849195069 704.963867188 574.967957381 665.828125 c 1
 611.423168237 698.206054688 664.846307044 698 770.363671421 698 c 0
 926.208007812 698 964.63671875 683.083007812 964.63671875 485.96875 c 1x6a
 974.633789062 6.318359375 l 1
 975.0078125 -12.4541015625 l 1
 956.413085938 -9.8447265625 l 1
 842.413085938 6.1552734375 l 1
 828.521484375 8.1044921875 l 1x4c
EndSplineSet
EndChar

StartChar: n
Encoding: 110 110 79
Width: 722
VWidth: 1024
Flags: W
HStem: 585 129<233.483 510.102>
VStem: 92.0244 140<7.83398 580.211 697.882 704.188> 507.363 143.361<3.79395 472.765> 516.725 131<22.8801 576.039>
LayerCount: 2
Fore
SplineSet
507.36328125 3.7939453125 m 1xe0
 507.626953125 17.5341796875 l 1
 516.724609375 491.3046875 l 1
 516.724609375 505.383789062 l 2
 516.724609375 585.23828125 507.545898438 585 350.301246856 585 c 0
 282.967931675 585 246.234158439 580.694335938 231.986328125 572.1171875 c 1
 229.024414062 21.1787109375 l 1
 228.953125 7.833984375 l 1
 214.97265625 6.119140625 l 1
 108.97265625 -6.880859375 l 1
 91 -9.0849609375 l 1
 91.0244140625 9.021484375 l 1
 92.0244140625 712.021484375 l 1
 92.05078125 731.405273438 l 1
 111.078125 727.706054688 l 1
 219.078125 706.706054688 l 1
 232.024414062 704.188476562 l 1
 232.024414062 697.881835938 l 1
 280.217486488 710.87109375 344.554181566 714 436.696333301 714 c 0
 613.676757812 714 646.704101562 693.1171875 647.724609375 495.936523438 c 2xd0
 650.724609375 5.09375 l 1
 650.830078125 -12.994140625 l 1
 632.865234375 -10.8916015625 l 1
 521.764648438 2.1083984375 l 1
 507.36328125 3.7939453125 l 1xe0
EndSplineSet
EndChar

StartChar: o
Encoding: 111 111 80
Width: 755
VWidth: 1024
Flags: W
HStem: -15 118<245.482 520.265> 594 117<242.321 521.126>
VStem: 79.2998 138<129.915 570.511> 548.8 138<126.115 566.55>
LayerCount: 2
Fore
SplineSet
383.778115567 -15 m 0
 87.828125 -15 79.2998046875 46.8056640625 79.2998046875 348 c 0
 79.2998046875 696.551757812 121.736328125 711 383.778115567 711 c 0
 678.31640625 711 686.799804688 649.155273438 686.799804688 348 c 0
 686.799804688 -0.4697265625 645.416992188 -15 383.778115567 -15 c 0
217.299804688 348.030273438 m 0
 217.299804688 121.475585938 213.092773438 103 383.778115567 103 c 0
 535.220703125 103 548.799804688 89.955078125 548.799804688 348.030273438 c 0
 548.799804688 575.608398438 552.911132812 594 383.778115567 594 c 0
 230.759765625 594 217.299804688 607.936523438 217.299804688 348.030273438 c 0
EndSplineSet
EndChar

StartChar: p
Encoding: 112 112 81
Width: 785
VWidth: 1024
Flags: W
HStem: -206.743 21G<216.029 232.749> -15 126<255.708 548.564> 586 124.978<262.893 514.401>
VStem: 92.749 140<-200.293 8.78418 133.202 556.728 676.225 702.253> 578.549 142<138.603 489.653>
LayerCount: 2
Fore
SplineSet
89.7001953125 -200.29296875 m 1
 89.7490234375 -184.948242188 l 1
 92.7490234375 717.051757812 l 1
 92.81640625 737.875 l 1
 112.919921875 732.447265625 l 1
 212.919921875 705.447265625 l 1
 224.749023438 702.252929688 l 1
 224.749023438 690 l 1
 224.749023438 676.224609375 l 1
 273.632269938 703.868164062 344.59995078 706.14453125 448.056494754 710.977539062 c 0
 468.209845999 711.974609375 488.691696111 713 506.732029895 713 c 0
 672.491210938 713 699.645507812 634.186523438 715.522460938 361.377929688 c 0
 718.529296875 311.448242188 720.548828125 268.100585938 720.548828125 230.220703125 c 0
 720.548828125 28.826171875 662.586914062 -15 449.002961785 -15 c 0
 350.227797695 -15 280.562186618 -15.876953125 231.029296875 8.7841796875 c 1
 232.749023438 -189.861328125 l 1
 232.89453125 -206.743164062 l 1
 216.029296875 -205.983398438 l 1
 105.029296875 -200.983398438 l 1
 89.7001953125 -200.29296875 l 1
232.749023438 348.03125 m 0
 232.749023438 97.9541015625 246.686689657 111 389.830883802 111 c 0
 549.755624 111 578.548828125 124.78125 578.548828125 238.416015625 c 0
 578.548828125 259.431640625 577.284179688 284.231445312 574.698242188 312.18359375 c 0
 555.189407229 552.801757812 533.723144673 586 421.582521756 586 c 0
 414.793545184 586 404.97760876 585.138671875 394.630436546 585.061523438 c 0
 246.286636582 577.923828125 232.749023438 588.811523438 232.749023438 348.03125 c 0
EndSplineSet
EndChar

StartChar: q
Encoding: 113 113 82
Width: 791
VWidth: 1024
Flags: W
HStem: -15 135<276.249 527.935> 586 127<273.626 535.96>
VStem: 75.4004 148<207.25 543.249> 573.1 140<-173.161 24.8779 162.953 549.343 683.157 694.805>
LayerCount: 2
Fore
SplineSet
349.003515633 120 m 0
 552.303336103 120 573.099609375 139.822265625 573.099609375 333.349609375 c 0
 573.099609375 555.629882812 555.14706088 586 432.518595994 586 c 0
 424.082609104 586 412.895921528 585.12890625 401.313340734 585.063476562 c 0
 267.023332746 578.581054688 223.400390625 561.321289062 223.400390625 435.345703125 c 0
 223.400390625 410.500976562 224.659179688 382.251953125 228.512695312 349.881835938 c 0
 253.185458625 136.668945312 276.02719925 120 349.003515633 120 c 0
346.123013891 -15 m 0
 142.206054688 -15 92.4638671875 57.076171875 78.421875 347.208007812 c 0
 76.4189453125 380.778320312 75.400390625 411.874023438 75.400390625 439.946289062 c 0
 75.400390625 653.27734375 136.24609375 700.151367188 345.216569858 710.979492188 c 0
 369.917710595 711.98828125 392.930355942 713 413.80020221 713 c 0
 482.285402095 713 534.852665955 705.587890625 573.099609375 683.157226562 c 1
 573.099609375 694.8046875 l 1
 586.754882812 696.827148438 l 1
 694.754882812 712.827148438 l 1
 713.099609375 715.544921875 l 1
 713.099609375 697 l 1
 713.099609375 -161 l 1
 713.099609375 -173.161132812 l 1
 701.381835938 -176.416015625 l 1
 593.381835938 -206.416015625 l 1
 573.099609375 -212.049804688 l 1
 573.099609375 -191 l 1
 573.099609375 24.8779296875 l 1
 522.327945838 -7.8994140625 449.913019018 -15 346.123013891 -15 c 0
EndSplineSet
EndChar

StartChar: r
Encoding: 114 114 83
Width: 498
VWidth: 1024
Flags: W
HStem: 578 130<261.697 446.507>
VStem: 89.7529 139.007<-0.998047 547.364 684.828 702.286>
LayerCount: 2
Fore
SplineSet
446.752929688 704.125 m 1
 446.752929688 690 l 1
 446.752929688 592 l 1
 446.752929688 574.479492188 l 1
 429.3046875 576.065429688 l 2
 418.484375 577.048828125 405.99609375 578 392.752929688 578 c 0
 318.731445312 578 234.9140625 554.198242188 228.759765625 511.86328125 c 1
 232.751953125 14.12109375 l 1
 232.8671875 -0.998046875 l 1
 217.778320312 -1.966796875 l 1
 108.778320312 -8.966796875 l 1
 91.798828125 -10.0576171875 l 1
 91.7529296875 6.9560546875 l 1
 89.7529296875 708.956054688 l 1
 89.7001953125 728.27734375 l 1
 108.692382812 724.727539062 l 1
 215.692382812 704.727539062 l 1
 228.752929688 702.286132812 l 1
 228.752929688 689 l 1
 228.752929688 684.828125 l 1
 273.755859375 700.220703125 348.325195312 708 398.752929688 708 c 0
 412.5703125 708 424.244140625 706.938476562 432.737304688 705.875976562 c 2
 446.752929688 704.125 l 1
EndSplineSet
EndChar

StartChar: s
Encoding: 115 115 84
Width: 715
VWidth: 1024
Flags: W
HStem: -7 112<223.847 489.662> 583 123<241.177 506.186>
VStem: 104.413 124.88<446.337 572.722> 506.613 142<125.694 266.921> 512.613 123.04<513.72 576.845>
LayerCount: 2
Fore
SplineSet
74.4130859375 145.921875 m 1xf0
 74.4130859375 146.79296875 l 2
 72.2294921875 161.815429688 71.43359375 174.881835938 69.5224609375 191.130859375 c 2
 67.599609375 207.473632812 l 1
 83.990234375 208.936523438 l 1
 195.990234375 218.936523438 l 1
 212.020507812 220.368164062 l 1
 213.357421875 204.329101562 l 2
 222.111846389 99.7158203125 208.958007812 105 345.198730923 105 c 0
 480.333626943 105 506.61328125 122.192382812 506.61328125 191.399414062 c 2
 506.61328125 212.287109375 l 2xf0
 506.61328125 264.430664062 513.326171875 269.485351562 365.785130197 290.348632812 c 0
 136.8828125 323.879882812 104.413085938 356.061523438 104.413085938 501.869140625 c 0
 104.413085938 669.415039062 143.575195312 706 373.182779641 706 c 2
 410.005061047 706 l 2
 560.688476562 706 617.297851562 699.25390625 631.505859375 576.844726562 c 2
 631.61328125 575.92578125 l 1
 631.61328125 575 l 2
 631.61328125 543.055664062 635.609375 528.3125 635.615234375 526.096679688 c 2
 635.653320312 513.719726562 l 1
 622.55078125 511.272460938 l 1
 531.55078125 494.272460938 l 1
 512.61328125 490.734375 l 1
 512.61328125 510 l 1
 512.61328125 519 l 2xe8
 512.61328125 585.147460938 499.190429688 583 392.330808547 583 c 2
 370.237439704 583 l 2
 245.464342523 583 229.292633838 580.666992188 229.292633838 506.166992188 c 0
 229.292633838 438.723632812 267.286633874 427.616210938 423.331009282 406.357421875 c 0
 628.038085938 373.814453125 648.61328125 342.6328125 648.61328125 233.932617188 c 2
 648.61328125 195.041992188 l 2
 648.61328125 26.9560546875 606.640625 -7 368.764769735 -7 c 2
 314.267129391 -7 l 2
 142.018554688 -7 93.677734375 3.576171875 74.5576171875 144.854492188 c 2
 74.4130859375 145.921875 l 1xf0
EndSplineSet
EndChar

StartChar: t
Encoding: 116 116 85
Width: 469
VWidth: 1024
Flags: W
HStem: -9 120.721<286.683 385.274> 579.814 117.186<83.164 146.8 284.8 403.8> 589.84 107.16<59.7998 146.8>
VStem: 146.8 138<113.501 158.77 158.799 583.103 697 876.699>
LayerCount: 2
Fore
SplineSet
403.799804688 697 m 1xd0
 403.799804688 681 l 1
 403.799804688 595.080078125 l 1
 403.799804688 579.283203125 l 1
 387.262695312 579.814453125 l 1xd0
 284.799804688 583.102539062 l 1
 284.799804688 158.798828125 l 2
 284.599609375 158.798828125 286.196289062 119.216796875 286.682617188 111.720703125 c 1
 290.497070312 112.024414062 291.1640625 111.997070312 292.083007812 112.024414062 c 2
 385.274414062 120.54296875 l 1
 402.629882812 122.12890625 l 1
 402.798828125 105.485351562 l 1
 403.798828125 7.1552734375 l 1
 403.956054688 -9 l 1
 387.799804688 -9 l 1
 242.799804688 -9 l 1
 208.799804688 -9 l 2
 190.006835938 -9 173.63671875 -9.9765625 161.150390625 2.2431640625 c 0
 139.069335938 22.8798828125 151.854492188 56.814453125 146.833984375 129.93359375 c 2
 146.799804688 130.432617188 l 1
 146.799804688 130.932617188 l 1
 146.799804688 586.974609375 l 1
 75.248046875 589.331054688 l 1
 59.7998046875 589.83984375 l 1
 59.7998046875 604.6015625 l 1
 59.7998046875 681 l 1
 59.7998046875 697 l 1
 75.7998046875 697 l 1xb0
 146.799804688 697 l 1
 146.799804688 862 l 1
 146.799804688 876.69921875 l 1
 161.446289062 877.942382812 l 1
 267.446289062 886.942382812 l 1
 284.799804688 888.416015625 l 1
 284.799804688 871 l 1
 284.799804688 697 l 1
 387.799804688 697 l 1
 403.799804688 697 l 1xd0
EndSplineSet
EndChar

StartChar: u
Encoding: 117 117 86
Width: 704
VWidth: 1024
Flags: W
HStem: -15 137<230.927 480.519> 691.541 11.998G<88.0996 106.444 610.755 629.1>
VStem: 88.0996 140<130.344 682.809> 489.1 141<132.269 690.805>
LayerCount: 2
Fore
SplineSet
348.641720138 122 m 0
 483.16015625 122 489.099609375 128.264648438 489.099609375 220.4609375 c 2
 489.099609375 677.735351562 l 1
 489.099609375 690.8046875 l 1
 502.754882812 692.827148438 l 1
 610.754882812 708.827148438 l 1
 629.073242188 711.541015625 l 1
 629.099609375 693.022460938 l 1
 630.099609375 11 l 1
 630.099609375 1 l 1
 630.099609375 -11.8212890625 l 1
 617.586914062 -14.615234375 l 1
 514.586914062 -37.615234375 l 1
 497.651367188 -41.3974609375 l 1
 495.252929688 -24.2109375 l 1
 490.875976562 7.162109375 l 1
 461.399040983 -11.5166015625 425.219991671 -15 342.620171173 -15 c 0
 110.474609375 -15 87.099609375 5.3740234375 87.099609375 204.004882812 c 2
 88.099609375 685.032226562 l 1
 88.13671875 703.5390625 l 1
 106.444335938 700.827148438 l 1
 214.444335938 684.827148438 l 1
 228.071289062 682.80859375 l 1
 228.099609375 669.776367188 l 1
 229.099609375 209.049804688 l 1
 229.099609375 163.625 l 2
 229.099609375 120.266601562 221.432617188 122 348.641720138 122 c 0
EndSplineSet
EndChar

StartChar: v
Encoding: 118 118 87
Width: 694
VWidth: 1024
Flags: W
HStem: 680.437 20G<62.318 80.8789 631.634 648.675>
LayerCount: 2
Fore
SplineSet
55.900390625 700.436523438 m 1
 80.87890625 696.8359375 l 1
 191.87890625 680.8359375 l 1
 201.685546875 679.422851562 l 1
 204.790039062 670.013671875 l 1
 381.085900995 193.120117188 l 1
 522.510742188 677.1015625 l 1
 525.400390625 687.998046875 l 1
 536.633789062 688.943359375 l 1
 631.633789062 696.943359375 l 1
 653.48046875 698.783203125 l 1
 648.569335938 678.344726562 l 1
 482.356752847 -5.583984375 l 1
 478.717739954 -19.6650390625 l 1
 462.596934801 -17.876953125 l 1
 300.341321926 0.123046875 l 1
 288.781910725 1.4052734375 l 1
 285.366904661 11.3095703125 l 1
 63.298828125 677.379882812 l 1
 55.900390625 700.436523438 l 1
EndSplineSet
EndChar

StartChar: w
Encoding: 119 119 88
Width: 1005
VWidth: 1024
Flags: W
HStem: 0 21G<625.962 642.73> 690.188 20G<177.52 195.686 556.513 573.35 838.903 858.593>
VStem: 740.482 33.2809<-20.7188 0.113281>
LayerCount: 2
Fore
SplineSet
629.219568229 0 m 1
 625.961673123 12.0283203125 l 1
 505.825242661 455.59765625 l 1
 397.58281328 0.48828125 l 1
 394.348660756 -13.109375 l 1
 379.668519342 -11.9443359375 l 1
 228.466469324 0.0556640625 l 1
 216.000581714 1.044921875 l 1
 213.385742188 12.6103515625 l 1
 63.3857421875 673.357421875 l 1
 59.7998046875 689.154296875 l 1
 76.51953125 691.802734375 l 1
 177.51953125 707.802734375 l 1
 192.573242188 710.1875 l 1
 195.685546875 695.267578125 l 1
 307.402294758 183.95703125 l 1
 425.036463579 684.47265625 l 1
 427.898993088 696.651367188 l 1
 441.08128729 696.994140625 l 1
 556.512557456 699.994140625 l 1
 569.975633493 700.34375 l 1
 573.350176935 688.009765625 l 1
 713.014364595 177.6484375 l 1
 838.903320312 707.556640625 l 1
 842.584960938 723.700195312 l 1
 858.592773438 719.46875 l 1
 945.592773438 696.46875 l 1
 961.002929688 692.39453125 l 1
 956.987304688 677.662109375 l 1
 773.763372545 11.9697265625 l 1
 740.4824669 -108.975585938 l 1
 740.4824669 0.11328125 l 1
 734.856507354 0.1201171875 732.567928948 0.12109375 727.802896055 0.12109375 c 0
 693.974878748 0.12109375 643.114139879 0 642.345086693 0 c 2
 629.219568229 0 l 1
EndSplineSet
EndChar

StartChar: x
Encoding: 120 120 89
Width: 756
VWidth: 1024
Flags: W
HStem: 699 7.58789G<87.3301 260.422 590.288 609.389>
LayerCount: 2
Fore
SplineSet
597.522460938 726.587890625 m 1
 609.388671875 721.866210938 l 1
 707.388671875 682.866210938 l 1
 725.577148438 675.956054688 l 1
 714.86328125 660.317382812 l 1
 517.056973017 378.625 l 1
 713.6171875 32.447265625 l 1
 722.466796875 16.4697265625 l 1
 704.486328125 10.8056640625 l 1
 604.486328125 -22.1943359375 l 1
 591.987304688 -26.318359375 l 1
 585.530273438 -14.849609375 l 1
 411.16097049 269.567382812 l 1
 362.296693287 203.560546875 224.191791026 16.935546875 214.940709043 4.091796875 c 2
 209.780273438 -5.6015625 l 1
 198.23828125 -3.810546875 l 1
 82.23828125 14.189453125 l 1
 57.2001953125 17.9013671875 l 1
 71.4716796875 37.9033203125 l 1
 310.316566781 360.344726562 l 1
 101.998046875 675.80859375 l 1
 87.330078125 699 l 1
 115.692382812 699 l 1
 245.569711332 699 l 1
 255.254889968 699 l 1
 260.422247892 691.536132812 l 1
 410.286346125 475.078125 l 1
 590.288085938 716.064453125 l 1
 597.522460938 726.587890625 l 1
EndSplineSet
EndChar

StartChar: y
Encoding: 121 121 90
Width: 696
VWidth: 1024
Flags: W
HStem: 701.247 20G<193.517 212.932 491.948 512.342>
LayerCount: 2
Fore
SplineSet
57.2001953125 685.774414062 m 1
 73.5166015625 689.581054688 l 1
 193.516601562 717.581054688 l 1
 209.2265625 721.247070312 l 1
 212.931571606 705.5078125 l 1
 337.601758653 211.887695312 l 1
 491.947849411 709.2578125 l 1
 496.626932798 724.336914062 l 1
 512.341796875 720.514648438 l 1
 639.341796875 688.514648438 l 1
 655.77734375 684.374023438 l 1
 650.697265625 668.745117188 l 1
 336.895999653 -240.795898438 l 1
 332.340945453 -253.696289062 l 1
 317.285119318 -251.850585938 l 1
 174.96875 -233.850585938 l 1
 154.955078125 -231.092773438 l 1
 162.223632812 -212.243164062 l 1
 258.431623848 15.6611328125 l 1
 61.7548828125 670.205078125 l 1
 57.2001953125 685.774414062 l 1
EndSplineSet
EndChar

StartChar: z
Encoding: 122 122 91
Width: 594
VWidth: 1024
Flags: W
HStem: 0 118.002<214.243 534.85> 570.339 126.661<99.2002 331.522>
LayerCount: 2
Fore
SplineSet
99.2001953125 697 m 1
 115.200195312 697 l 1
 503.200195312 697 l 1
 519.200195312 697 l 1
 519.200195312 681 l 1
 519.200195312 614.213867188 l 1
 519.200195312 610.42578125 l 1
 517.34375 607.077148438 l 1
 214.243164062 118.001953125 l 1
 518.666992188 126.666015625 l 1
 535.200195312 127.19140625 l 1
 535.200195312 111.409179688 l 1
 535.200195312 16 l 1
 535.200195312 0 l 1
 519.200195312 0 l 1
 86.2001953125 0 l 1
 70.2001953125 0 l 1
 70.2001953125 16 l 1
 70.2001953125 82.7861328125 l 1
 70.2001953125 86.1591796875 l 1
 71.689453125 89.2177734375 l 1
 331.522409209 577.901367188 l 1
 115.854492188 570.338867188 l 1
 99.2001953125 569.688476562 l 1
 99.2001953125 585.590820312 l 1
 99.2001953125 681 l 1
 99.2001953125 697 l 1
EndSplineSet
EndChar

StartChar: braceleft
Encoding: 123 123 92
Width: 415
VWidth: 1024
Flags: W
HStem: 419 84<59.7998 124.779>
VStem: 127.829 133.971<560.344 892.977>
LayerCount: 2
Fore
SplineSet
355.005859375 1035 m 1
 353.7578125 1018.30664062 l 1
 345.7578125 911.302734375 l 1
 344.751953125 897.849609375 l 1
 330.919921875 896.905273438 l 1
 276.411132812 893.184570312 l 2
 266.95703125 888.850585938 261.799804688 879.020507812 261.799804688 839.474609375 c 0
 261.799804688 809.282226562 264.799804688 767.99609375 264.799804688 711.069335938 c 0
 264.799804688 578.684570312 267.041015625 569.698242188 268.418945312 563.66796875 c 2
 269.190429688 560.291015625 l 1
 268.418945312 556.915039062 l 2
 265.219726562 542.909179688 274.833984375 487.025390625 242.353515625 453.8125 c 1
 271.924804688 436.025390625 272.799804688 410.149414062 272.799804688 374.493164062 c 2
 272.799804688 343.307617188 l 1
 270.805664062 79.443359375 l 1
 275.484375 29.0166015625 269.446289062 13.576171875 291.528320312 11.6435546875 c 2
 354.053710938 10.677734375 l 1
 372.965820312 10.3857421875 l 1
 369.534179688 -7.7080078125 l 1
 350.534179688 -107.90234375 l 1
 347.903320312 -122.1640625 l 1
 333.452148438 -120.943359375 l 1
 262.569335938 -114.953125 l 2
 213.305664062 -111.616210938 139.799804688 -79.171875 139.799804688 43.1494140625 c 2
 135.799804688 316.944335938 l 2
 135.799804688 378.918945312 123.658203125 419 85.7998046875 419 c 2
 75.7998046875 419 l 1
 59.7998046875 419 l 1
 59.7998046875 435 l 1
 59.7998046875 487 l 1
 59.7998046875 503 l 1
 75.7998046875 503 l 1
 85.7998046875 503 l 2
 122.158203125 503 133.799804688 539.39453125 133.799804688 552.510742188 c 2
 133.799804688 575.810546875 l 2
 133.799804688 619.267578125 132.793945312 709.401367188 127.829101562 788.44140625 c 2
 127.799804688 788.9140625 l 1
 127.799804688 789.38671875 l 2
 127.799804688 842.420898438 125.799804688 882.946289062 125.799804688 915.590820312 c 0
 125.799804688 1008.8515625 151.421875 1035 263.799804688 1035 c 2
 337.799804688 1035 l 1
 355.005859375 1035 l 1
EndSplineSet
EndChar

StartChar: bar
Encoding: 124 124 93
Width: 279
VWidth: 1024
Flags: W
VStem: 67.5996 156.321
LayerCount: 2
Fore
SplineSet
95.8271484375 977 m 1
 205.827148438 991 l 1
 223.920898438 993.302734375 l 1
 223.846679688 990.869140625 l 1
 218.846679688 -234 l 1
 218.799804688 -230.459960938 l 1
 207.713867188 -234 l 1
 88.7138671875 -272 l 1
 67.599609375 -278.7421875 l 1
 67.84765625 -271.641601562 l 1
 81.84765625 977 l 1
 82.00390625 975.241210938 l 1
 95.8271484375 977 l 1
EndSplineSet
EndChar

StartChar: braceright
Encoding: 125 125 94
Width: 466
VWidth: 1024
Flags: W
HStem: -97 122.999<66.0342 171.124> 412 98<327.716 419.691>
VStem: 175.691 130.986<691.242 889.046> 197.691 118<28.5796 170.439>
LayerCount: 2
Fore
SplineSet
62.400390625 1009 m 1xe0
 79.69140625 1009 l 1
 168.69140625 1009 l 2
 309.146484375 1009 304.819335938 887.953125 306.677734375 790.84375 c 1xe0
 327.630859375 558.829101562 l 1
 327.69140625 558.154296875 l 1
 327.69140625 557.477539062 l 2
 327.69140625 501.831054688 322.8359375 510 391.69140625 510 c 2
 403.69140625 510 l 1
 419.69140625 510 l 1
 419.69140625 494 l 1
 419.69140625 428 l 1
 419.69140625 412 l 1
 403.69140625 412 l 1
 391.69140625 412 l 2
 336.319335938 412 326.028320312 394.321289062 318.677734375 353.422851562 c 1
 315.69140625 62.8984375 l 2
 315.69140625 -69.60546875 237.318359375 -86.9404296875 171.124023438 -96.8134765625 c 2
 169.915039062 -97 l 1
 168.69140625 -97 l 1
 79.69140625 -97 l 1
 63.3359375 -97 l 1
 63.6953125 -80.6484375 l 1
 65.6953125 10.3515625 l 1
 66.0341796875 25.794921875 l 1
 81.48046875 25.9990234375 l 1
 157.48046875 26.9990234375 l 1
 159.920898438 27.0302734375 l 1
 162.258789062 26.333984375 l 2
 162.286132812 26.326171875 163.532226562 26 165.69140625 26 c 0
 176.846679688 26 197.189453125 27.46484375 197.69140625 66.9931640625 c 2xd0
 173.7578125 342.23828125 l 2
 172.684570312 352.640625 172.69140625 363.084960938 172.69140625 370.776367188 c 0
 172.69140625 415.068359375 186.485351562 440.493164062 220.533203125 455.65234375 c 1
 181.415039062 479.63671875 180.69140625 518.999023438 180.69140625 577.841796875 c 2
 175.69140625 777.346679688 l 2
 175.69140625 850.897460938 168.45703125 889.291015625 142.462890625 890.807617188 c 1
 91.5029296875 878.702148438 l 1
 73.19921875 874.354492188 l 1
 71.7392578125 892.551757812 l 1
 63.7392578125 992.3046875 l 1
 62.400390625 1009 l 1xe0
EndSplineSet
EndChar

StartChar: asciitilde
Encoding: 126 126 95
Width: 740
VWidth: 1024
Flags: W
HStem: 336 108<434.318 552.54> 399 112<205.835 332.437>
VStem: 553.2 123<447.1 493.093>
LayerCount: 2
Fore
SplineSet
204.799804688 360.885742188 m 1x60
 191.341796875 359.588867188 l 1
 104.341796875 351.203125 l 1
 85.7998046875 348.219726562 l 1
 85.7998046875 363.915039062 l 2
 85.7998046875 482.068359375 110.0390625 511 240.902204528 511 c 0x60
 475.492014496 511 396.621255043 444 525 444 c 0
 546.2734375 444 553.200195312 444.66015625 553.200195312 483.614257812 c 2
 553.200195312 493.092773438 l 1
 568.498046875 493.508789062 l 1
 659.498046875 495.984375 l 1
 676.200195312 496.71875 l 1
 676.200195312 482.776367188 l 2
 676.200195312 364.465820312 648.696289062 336 518.0519757 336 c 0xa0
 283.391665744 336 371.906603175 399 245.301844372 399 c 0
 215.0390625 399 204.799804688 402.22265625 204.799804688 369.05078125 c 2
 204.799804688 360.885742188 l 1x60
EndSplineSet
EndChar

StartChar: exclamdown
Encoding: 161 161 96
Width: 317
VWidth: 1024
Flags: W
HStem: 618.009 150.991<96.5117 247>
VStem: 91.4531 155.547<-166.479 226.932 618.512 769>
LayerCount: 2
Fore
SplineSet
242.653320312 -181.645507812 m 1
 225.408203125 -179.920898438 l 1
 105.408203125 -167.920898438 l 1
 91 -166.479492188 l 1
 91 -152 l 1
 91 226 l 1
 91 226.465820312 l 1
 91.02734375 226.931640625 l 1
 111.02734375 569.931640625 l 1
 111.864257812 584.2890625 l 1
 126.229492188 584.981445312 l 1
 209.229492188 588.981445312 l 1
 224.7890625 589.731445312 l 1
 225.955078125 574.198242188 l 1
 250.955078125 241.198242188 l 1
 251.01171875 240.44140625 l 1
 250.997070312 239.68359375 l 1
 242.997070312 -164.31640625 l 1
 242.653320312 -181.645507812 l 1
91.453125 613.453125 m 1
 92.0087890625 630.520507812 l 1
 96.0087890625 753.520507812 l 1
 96.51171875 769 l 1
 112 769 l 1
 231 769 l 1
 247 769 l 1
 247 753 l 1
 247 634 l 1
 247 618.51171875 l 1
 231.520507812 618.008789062 l 1
 108.520507812 614.008789062 l 1
 91.453125 613.453125 l 1
EndSplineSet
EndChar

StartChar: cent
Encoding: 162 162 97
Width: 743
VWidth: 1024
Flags: W
HStem: -17.0029 115.886<259.91 332.48> 595.571 117.317<442.922 508.256> 607.138 110.309<249.459 311.53>
VStem: 81.9004 131<147.48 574.342> 313.196 129.585<413.969 595.571 717.446 771.256> 332.48 115.173<107.792 311.893>
LayerCount: 2
Fore
SplineSet
212.900390625 348 m 0xb4
 212.900390625 129.743164062 249.999057103 104.758789062 332.479839705 98.8828125 c 1
 311.631621785 607.137695312 l 1
 233.515625 601.190429688 212.900390625 574.057617188 212.900390625 348 c 0xb4
529.403799183 472.889648438 m 1
 526.596615934 493.329101562 l 2
 517.405900158 560.2421875 521.683772494 593.979492188 442.922262218 595.571289062 c 1xd8
 447.652906046 107.791992188 l 1
 535.247278966 112.151367188 560.868164062 119.6171875 566.055664062 179.603515625 c 2
 567.859375 200.463867188 l 1
 587.997070312 192.618164062 l 1
 681.997070312 155.997070312 l 1
 695.337890625 150.799804688 l 1
 691.384765625 137.465820312 l 2
 659.298828125 29.2421875 633.780273438 -0.033203125 452.298450653 -15.65234375 c 1
 464.714208669 -58.900390625 l 1
 470.404946262 -78.7236328125 l 1
 446.744090015 -77.990234375 l 1
 349.99391382 -74.990234375 l 1
 332.737319397 -74.455078125 l 1
 332.737319397 -59.5703125 l 1
 332.737319397 -17.0029296875 l 1
 116.622070312 -13.7568359375 81.900390625 29.2568359375 81.900390625 347.81640625 c 0
 81.900390625 665.741210938 102.399414062 714.006835938 311.53015733 717.446289062 c 1xb4
 313.196138217 760.533203125 l 1
 313.800560883 776.75390625 l 1
 331.911420555 775.981445312 l 1
 425.756222093 771.981445312 l 1
 442.7815212 771.255859375 l 1
 442.7815212 756.553710938 l 1
 442.7815212 712.888671875 l 1xd8
 639.493164062 705.267578125 652.155273438 574.689453125 652.155273438 544.967773438 c 0
 652.155273438 541.178710938 651.966796875 538.719726562 651.966796875 538.719726562 c 1
 651.380859375 530.020507812 l 1
 643.345703125 526.018554688 l 2
 643.00390625 525.848632812 566.275390625 487.525390625 550.282226562 480.958007812 c 2
 529.403799183 472.889648438 l 1
EndSplineSet
EndChar

StartChar: sterling
Encoding: 163 163 98
Width: 729
VWidth: 1024
Flags: W
HStem: -11 125.25<316.085 645.233> 411 121.507<79.6963 94.2197 94.2367 150.852 366.73 592.17> 836 133<248.051 545.971>
VStem: 89.2236 144.205<626.462 742.239> 202.958 166.659<190.789 411>
LayerCount: 2
Fore
SplineSet
94.2197265625 532.509765625 m 1xe8
 94.2197265625 532.509765625 117.484375 532.526367188 150.8515625 533.028320312 c 1
 118.221679688 594.706054688 90.1474609375 643.3515625 89.2236328125 740.390625 c 2
 89.21484375 741.317382812 l 1
 89.3193359375 742.239257812 l 2
 112.538085938 946.934570312 189.040039062 968.037109375 288.600864838 968.037109375 c 0
 302.645775354 968.037109375 316.871559039 967.77734375 331.241169582 967.77734375 c 0
 345.243585799 967.77734375 359.380022497 968.0234375 373.60253739 968.95703125 c 2
 374.254116637 969 l 1
 374.906785481 969 l 2
 379.8481097 969 388.733776517 970.5546875 399.282168969 969.965820312 c 0
 569.938476562 959.142578125 684.462890625 891.223632812 684.462890625 865 c 2
 684.462890625 859.259765625 l 1
 680.8125 854.827148438 l 2
 678.130859375 851.5703125 674.43359375 847.483398438 600.640625 786.654296875 c 2
 591.47265625 779.096679688 l 1
 581.587890625 785.6875 l 2
 553.754882812 804.2421875 525.270137408 836 380.707802051 836 c 2
 362.057163315 836 l 2
 266.217265401 834.12890625 233.42910037 836.955078125 233.42910037 740.204101562 c 2
 233.42910037 729.771484375 l 2xf0
 233.42910037 638.653320312 271.366702725 621.228515625 318.946152493 539.788085938 c 1
 348.194215565 541.180664062 405.46018624 541.5 460.478317474 541.5 c 0
 525.217836733 541.5 579.583984375 541 579.611328125 540.999023438 c 2
 592.169921875 540.8828125 l 1
 595.040039062 528.65625 l 1
 618.040039062 430.65625 l 1
 622.65234375 411 l 1
 602.462890625 411 l 1
 366.730446574 411 l 1
 368.548984638 398.418945312 369.616790092 387.283203125 369.616790092 373.883789062 c 0
 369.616790092 372.053710938 369.59281895 370.120117188 369.547055859 368.310546875 c 0
 366.550663002 213.918945312 343.528559488 166.84375 316.084869715 110.690429688 c 1
 632.26171875 114.25 l 1
 645.233398438 114.407226562 l 1
 648.07421875 102.211914062 l 1
 670.07421875 7.7919921875 l 1
 674.453125 -11 l 1
 654.462890625 -11 l 1
 118.22265625 -11 l 1
 94.4833984375 -11 l 1
 103.392578125 10.2001953125 l 1
 103.392578125 10.2001953125 113.364257812 33.9072265625 123.108398438 56.443359375 c 1
 122.108398438 43 122.747070312 43 121.747070312 56.443359375 c 2
 130.331054688 77.4951171875 l 2
 175.1953125 187.524414062 175.208007812 144.86328125 202.32421875 376.118164062 c 0
 202.76171875 379.848632812 202.958007812 383.51953125 202.958007812 387.141601562 c 0
 202.958007812 395.126953125 201.658203125 404.70703125 200.408203125 411 c 1
 85.22265625 411 l 1
 67.599609375 411 l 1
 69.296875 428.051757812 l 1
 78.296875 518.455078125 l 1
 79.6962890625 532.506835938 l 1
 94.2197265625 532.509765625 l 1xe8
EndSplineSet
EndChar

StartChar: currency
Encoding: 164 164 99
Width: 975
VWidth: 1024
Flags: W
HStem: -15 141<419.316 769.447> 351.266 98.4424<282.676 501.344> 365.89 77.3926<438.559 635.436> 477 90.2178<87.4072 126.344 282.676 500.862> 491.085 75.4824<414.851 634.055> 726.148 21G<822.84 849.031> 816 119<404.99 776.028>
VStem: 128.891 141.867<569.082 687.591>
LayerCount: 2
Fore
SplineSet
66.2998046875 364.676757812 m 1xc7
 67.4072265625 376.685546875 l 1
 72.4072265625 430.921875 l 1
 73.5927734375 443.783203125 l 1
 86.8681640625 444.973632812 l 1
 126.34375 448.513671875 l 1
 126.34375 463.44140625 l 1
 126.34375 477 l 1
 92.34375 477 l 1
 73.853515625 477 l 1
 76.509765625 494.680664062 l 1
 85.509765625 554.587890625 l 1
 87.4072265625 567.217773438 l 1xd7
 100.599609375 567.810546875 l 1
 128.890625 569.08203125 l 1
 141.506835938 852.979492188 268.629405377 931.1328125 565.197235511 935 c 1
 594.779209736 935 l 2
 856.461914062 935 904.177734375 869.0234375 919.913085938 842.348632812 c 1
 971.974609375 837.616210938 l 1
 918.856445312 812.532226562 l 2
 888.935546875 798.403320312 849.03125 744.682617188 849.03125 744.682617188 c 1
 835.755859375 726.1484375 l 1
 822.83984375 744.935546875 l 2
 802.066621303 773.92578125 780.123398174 816 594.779209736 816 c 0
 577.840436536 816 560.257791839 816.002929688 542.274791148 815.060546875 c 0
 383.335525116 809.647460938 282.724412804 756.13671875 270.758102326 567.479492188 c 1
 636.912550751 566.567382812 l 1
 659.803007908 566.510742188 l 1
 653.010369995 546.739257812 l 1
 637.578091 501.822265625 l 1
 634.055370988 491.571289062 l 1
 622.199467962 491.084960938 l 1
 286.434928669 477.306640625 l 1
 283.677837904 468.649414062 282.674884228 466.048828125 282.674884228 463.354492188 c 0
 282.674884228 461.372070312 284.387747502 455.830078125 286.337935206 449.708007812 c 1xcf
 624.59438101 443.282226562 l 1
 635.435980061 443.076171875 l 1
 639.750125453 434.077148438 l 1
 662.196889111 387.249023438 l 1
 671.980846682 366.8359375 l 1
 647.405386075 365.889648438 l 1xa7
 267.943228222 351.265625 l 1
 280.645244432 230.392578125 372.162703709 126 574.764505559 126 c 0
 786.171043747 126 768.15399216 155.220703125 777.930726814 165.629882812 c 2
 785.804738649 174.012695312 l 1
 796.815560337 169.866210938 l 1
 890.938476562 132.866210938 l 1
 929.995117188 117.328125 l 1
 894.924804688 104.575195312 l 1
 880.850585938 76.1298828125 837.744140625 -15 569.269929091 -15 c 0
 208.65234375 -15 164.864257812 121.442382812 126.124023438 344.346679688 c 1
 78.0458984375 360.684570312 l 1
 66.2998046875 364.676757812 l 1xc7
EndSplineSet
EndChar

StartChar: yen
Encoding: 165 165 100
Width: 830
VWidth: 1024
Flags: W
HStem: 154.555 94.1562<182.168 350.551 511.904 667.461 667.506 672.976> 266 115.3<242.145 350.793 511.772 679.748> 266 103.55<186.988 350.793>
VStem: 350.793 160.979<4.03418 18.1396 18.1853 155.488 245.91 266 377.792 426.931>
LayerCount: 2
Fore
SplineSet
646.59727284 953.677734375 m 1xb0
 658.806640625 950.4765625 l 1
 780.806640625 919.20703125 l 1
 800.841796875 914.072265625 l 1
 790.697265625 896.426757812 l 1
 510.960392001 427.391601562 l 2
 505.047768961 417.87109375 511.380310626 388.736328125 511.539626486 377.791992188 c 1
 663.342773438 381.299804688 l 1
 679.748046875 381.706054688 l 1
 679.748046875 365.669921875 l 1
 679.748046875 281.634765625 l 1
 679.748046875 266 l 1
 663.748046875 266 l 1
 511.771742308 266 l 1
 511.771484375 245.91015625 l 1
 658.43359375 248.44140625 l 1
 672.975585938 248.7109375 l 1
 674.642578125 245.064453125 l 1
 683.642578125 171.396484375 l 1
 685.731445312 154.293945312 l 1
 667.505859375 154.5546875 l 1
 667.505859375 154.5546875 605.812412695 155.384765625 511.903626298 155.48828125 c 1
 513.174987962 10.1650390625 l 1
 513.317422671 -6.115234375 l 1
 494.735496013 -4.9638671875 l 1
 365.520837953 3.0361328125 l 1
 349.387733222 4.0341796875 l 1
 349.388788294 18.1396484375 l 1
 349.388788294 18.1396484375 349.401449157 80.6513671875 350.55147755 157.62890625 c 1
 256.446447776 157.737304688 198.798828125 158.55078125 197.922851562 158.563476562 c 2
 182.16796875 158.791015625 l 1
 182.16796875 173.640625 l 1
 182.16796875 235.841796875 l 1
 182.16796875 240.638671875 l 1
 197.865234375 240.91796875 l 1
 350.79296875 243.465820312 l 1
 350.793089019 266 l 1xd0
 198.16796875 266 l 1
 181.279296875 266 l 1
 182.19140625 282.474609375 l 1
 186.19140625 354.767578125 l 1
 186.98828125 369.1796875 l 1
 201.756835938 369.549804688 l 1
 351.873482666 373.06640625 l 1
 351.873482666 429.849609375 l 1
 73.208984375 898.252929688 l 1
 62.400390625 917.1015625 l 1
 84.1064453125 921.235351562 l 1
 202.106445312 943.704101562 l 1
 213.662109375 945.95703125 l 1
 219.463011759 935.594726562 l 1
 428.52762288 576.797851562 l 1
 640.161334127 942.553710938 l 1
 646.59727284 953.677734375 l 1xb0
EndSplineSet
EndChar

StartChar: brokenbar
Encoding: 166 166 101
Width: 279
VWidth: 1024
Flags: W
VStem: 99.2705 106.11<34.4829 472.583 503.648 824.056>
LayerCount: 2
Fore
SplineSet
117.76171875 473.928710938 m 1
 191.76171875 480.928710938 l 1
 209.400390625 482.59765625 l 1
 209.268554688 464.880859375 l 1
 205.268554688 -73 l 1
 205.16015625 -71.7314453125 l 1
 190.663085938 -73 l 1
 110.663085938 -80 l 1
 92.9404296875 -81.55078125 l 1
 93.271484375 -79.4052734375 l 1
 103.271484375 458.296875 l 1
 103.537109375 472.583007812 l 1
 117.76171875 473.928710938 l 1
108.901367188 1042 m 1
 186.901367188 1034 l 1
 201.157226562 1032.53808594 l 1
 201.268554688 1034 l 1
 205.268554688 518.124023438 l 1
 205.380859375 503.6484375 l 1
 190.98828125 502.092773438 l 1
 116.98828125 494.092773438 l 1
 99.5341796875 492.206054688 l 1
 99.2705078125 509.759765625 l 1
 91.2705078125 1041.51855469 l 1
 91 1043.8359375 l 1
 108.901367188 1042 l 1
EndSplineSet
EndChar

StartChar: section
Encoding: 167 167 102
Width: 819
VWidth: 1024
Flags: W
HStem: 0.998047 127.53<224.51 600.68> 274 116.012<343.771 487.403> 520 106<330.43 487.178> 799 142<246.707 624.725>
VStem: 78 144<566.958 778.015> 609.74 150<140.24 335.451>
LayerCount: 2
Fore
SplineSet
335.513480633 424.08984375 m 2
 352.874595567 404.553710938 384.809049504 390.5078125 422.378869652 390.01171875 c 1
 490.386716887 404.783203125 507.758512955 432.516601562 507.758512955 454 c 0
 507.758512955 484.408203125 471.229035242 519.150390625 424.132711828 520 c 2
 418.618042429 520 l 2
 335.792258226 520 318.103232483 485.14453125 318.103232483 460 c 0
 318.103232483 443.611328125 328.189427163 429.170898438 330.675995119 427.859375 c 2
 333.475520297 426.3828125 l 1
 335.513480633 424.08984375 l 2
114.336914062 188.776367188 m 1
 131.083007812 183.4765625 l 2
 284.475818833 136.348632812 321.271256779 131.350585938 495.410054129 128.528320312 c 0
 611.48828125 130.2890625 609.740234375 136.212890625 609.740234375 252.2734375 c 0
 609.740234375 300.416992188 606.498046875 322.643554688 592.219578748 336.404296875 c 1
 548.535877593 297.973632812 484.874183715 274 412.931406776 274 c 0
 296.279539834 274 208.592773438 337.67578125 196.20703125 421.504882812 c 1
 85.9130859375 458.748046875 78 519.586914062 78 680.254882812 c 0
 78 897.779296875 122.478515625 941 377.384593376 941 c 2
 422.884087282 941 l 2
 486.46994511 941 579.867915582 936.747070312 723.141601562 896.3828125 c 2
 741.454101562 891.142578125 l 1
 733.1328125 874.009765625 l 1
 682.1328125 769.009765625 l 1
 676.239257812 756.875976562 l 1
 663.283203125 760.6328125 l 2
 573.316108088 785.924804688 550.232041646 799 377.384593376 799 c 0
 231.103515625 799 222 787.006835938 222 639.73046875 c 0
 222 597.669921875 225.213867188 579.515625 238.878058496 566.622070312 c 1
 282.183647513 604.955078125 344.201514894 626 412.931406776 626 c 0
 523.296358343 626 617.770507812 569.680664062 639.280273438 489.416992188 c 1
 750.325195312 459.044921875 759.740234375 411.673828125 759.740234375 270.110351562 c 0
 759.740234375 50.0693359375 735.655273438 5.9599609375 444.269853445 0.998046875 c 1
 167.198242188 3.8642578125 96.71484375 54.6416015625 91.3623046875 58.634765625 c 2
 84.1494140625 64.015625 l 1
 86.40234375 73.326171875 l 1
 110.40234375 172.512695312 l 1
 114.336914062 188.776367188 l 1
EndSplineSet
EndChar

StartChar: dieresis
Encoding: 168 168 103
Width: 512
VWidth: 1024
Flags: W
HStem: 934 201
VStem: 59 150<961 1047.95>
LayerCount: 2
Fore
SplineSet
215 1117 m 29
 209 952 l 29
 59 961 l 29
 41 1135 l 29
 215 1117 l 29
275 1120 m 29
 272 934 l 29
 422 934 l 29
 460 1123 l 29
 275 1120 l 29
EndSplineSet
EndChar

StartChar: copyright
Encoding: 169 169 104
Width: 1085
VWidth: 1024
Flags: W
HStem: -26 79<413.331 689.405> 98 97<467.421 638.458> 535 95<469.093 649.606> 697 88<418.897 676.918>
VStem: 108 102<248.125 489.514> 336.138 119.937<201.947 529.249> 650.817 113.625<421.968 530.833> 892 96<244.728 481.021>
LayerCount: 2
Fore
SplineSet
647.022790618 282.84375 m 1
 665.155815599 279.748046875 l 1
 753.004768403 264.748046875 l 1
 768.01750346 262.184570312 l 1
 766.808224158 247.732421875 l 2
 756.431230996 123.637695312 719.652495925 98 550.026672456 98 c 0
 370.138927432 98 336.138349738 112.231445312 336.138349738 368 c 0
 336.138349738 590.9375 361.383211024 630 499.421878278 630 c 0
 515.319226317 630 531.369660691 629 550.124277837 629 c 0
 732.560037024 626.981445312 765.494147499 601.475585938 765.494147499 488 c 0
 765.494147499 469.420898438 764.442064232 448.546875 764.442064232 426 c 2
 764.442064232 407.756835938 l 1
 745.413124594 410.13671875 l 1
 665.454796293 420.13671875 l 1
 650.817071385 421.967773438 l 1
 650.817071385 436 l 1
 650.817071385 472 l 2
 650.817071385 531.328125 655.671654819 534.021484375 549.944478451 535 c 2
 530.879578935 535 l 2
 464.433945097 535 456.075842188 540.163085938 456.075842188 368 c 0
 456.075842188 180.529296875 462.810613493 195 550.026672456 195 c 0
 636.688949309 195 639.158879166 197.75 645.41076069 265.400390625 c 2
 647.022790618 282.84375 l 1
548 697 m 0
 352.069335938 697 210 527.901367188 210 367 c 0
 210 208.204101562 352.950195312 53 550 53 c 0
 746.786132812 53 892 201.711914062 892 361 c 0
 892 519.599609375 748.513671875 697 548 697 c 0
108 373 m 0
 108 592.6484375 279.932617188 785 546 785 c 0
 813.747070312 785 988 580.489257812 988 361 c 0
 988 141.510742188 820.509677484 -26 552.762705406 -26 c 0
 286.694545885 -26 108 153.3515625 108 373 c 0
EndSplineSet
EndChar

StartChar: ordfeminine
Encoding: 170 170 105
Width: 769
VWidth: 1024
Flags: HMW
LayerCount: 2
Fore
SplineSet
473.534179688 736.874023438 m 5
 473.016601562 790.106445312 l 5
 456.369140625 791.450195312 413.673828125 794.584960938 380.078125 796.217773438 c 4
 369.704101562 796.633789062 361.245117188 797.043945312 353.805664062 797.043945312 c 4
 318.337890625 797.043945312 314.432617188 792.23828125 309.7421875 735.388671875 c 4
 309.666992188 731.244140625 309.157226562 729.049804688 309.157226562 726.8671875 c 4
 309.157226562 707.356445312 315.553710938 703.893554688 340.131835938 703.893554688 c 4
 353.879882812 703.893554688 369.313476562 705.115234375 389.466796875 706.783203125 c 4
 438.58203125 710.984375 468.547851562 720.641601562 473.534179688 736.874023438 c 5
255.026367188 898.120117188 m 5
 256.169921875 904.51171875 l 6
 264.188476562 949.3203125 278.6953125 976.143554688 360.318359375 976.143554688 c 4
 370.385742188 976.143554688 380.82421875 975.6875 391.979492188 975.233398438 c 4
 504.329101562 969.596679688 519.672851562 965.694335938 527.51953125 870.268554688 c 4
 531.596679688 822.140625 532.4921875 766.012695312 532.4921875 723.278320312 c 4
 532.4921875 682.6953125 531.590820312 653.776367188 531.58984375 653.729492188 c 6
 531.35546875 645.83203125 l 5
 523.513671875 646.797851562 l 6
 494.533203125 650.36328125 491.55078125 649.411132812 485.018554688 652.314453125 c 6
 484.869140625 652.379882812 l 5
 484.72265625 652.453125 l 6
 477.90625 655.862304688 478.317382812 663.05078125 478.079101562 666.838867188 c 5
 454.84375 652.627929688 417.26171875 653.303710938 351.936523438 648.124023438 c 4
 341.090820312 647.186523438 330.348632812 647.193359375 321.26171875 647.193359375 c 4
 274.762695312 647.193359375 252.0078125 666.99609375 252.0078125 730.962890625 c 4
 252.0078125 834.955078125 270.638671875 846.717773438 348.396484375 848.493164062 c 6
 348.59765625 848.498046875 l 5
 348.798828125 848.493164062 l 6
 419.369140625 846.969726562 457.094726562 845.653320312 471.640625 845.038085938 c 5
 466.068359375 906.6875 476.333007812 917.377929688 391.489257812 918.161132812 c 6
 391.251953125 918.163085938 l 5
 391.015625 918.177734375 l 6
 376.76953125 919.02734375 366.529296875 919.443359375 357.712890625 919.443359375 c 4
 325.721679688 919.443359375 321.109375 915.083007812 312.293945312 888.803710938 c 6
 310.1015625 882.267578125 l 5
 303.4765625 884.173828125 l 5
 261.265625 896.32421875 l 5
 255.026367188 898.120117188 l 5
EndSplineSet
EndChar

StartChar: guillemotleft
Encoding: 171 171 106
Width: 655
VWidth: 1024
Flags: W
LayerCount: 2
Fore
SplineSet
255.762119487 648 m 1
 380.985664191 630 l 1
 407.998997416 626.1171875 l 1
 393.814022437 613.426757812 l 1
 205.4140625 348.659179688 l 1
 408.200733238 105.420898438 l 1
 423.740058258 92.703125 l 1
 397.569935435 87 l 1
 287.433510172 63 l 1
 274.505417363 60.1826171875 l 1
 267.276928196 63 l 1
 77.865234375 339.327148438 l 1
 72.7998046875 347.1796875 l 1
 77.1513671875 355.450195312 l 1
 236.274212426 648 l 1
 242.523489514 649.903320312 l 1
 255.762119487 648 l 1
507.122070312 656 m 1
 593.122070312 630 l 1
 612.517578125 624.135742188 l 1
 602.315429688 613.887695312 l 1
 440.094259997 347.907226562 l 1
 584.395507812 106.833984375 l 1
 594.26953125 96.8681640625 l 1
 575.196289062 91 l 1
 497.196289062 67 l 1
 485.296875 63.3388671875 l 1
 478.82421875 67 l 1
 283.616396419 339.680664062 l 1
 277.840858508 347.856445312 l 1
 283.470194616 356.107421875 l 1
 488.698242188 656 l 1
 495.075195312 659.641601562 l 1
 507.122070312 656 l 1
EndSplineSet
EndChar

StartChar: logicalnot
Encoding: 172 172 107
Width: 709
VWidth: 1024
Flags: W
HStem: 260.232 111.767<332.262 484.953>
VStem: 484.953 148.631<140.569 260.232>
LayerCount: 2
Fore
SplineSet
632.90625 125.331054688 m 1
 615.950195312 127.084960938 l 1
 499.950195312 139.084960938 l 1
 484.953372198 140.569335938 l 1
 484.953372198 153.24609375 l 1
 484.953372198 260.232421875 l 1
 101.022460938 237.615234375 l 1
 81.900390625 236.388671875 l 1
 83.9482421875 253.134765625 l 1
 96.9482421875 359.426757812 l 1
 98.466796875 371.84375 l 1
 112.682617188 371.999023438 l 1
 511.233398438 375.997070312 l 1
 627.044921875 379.990234375 l 1
 644.258789062 380.583984375 l 1
 643.583984375 365.411132812 l 1
 639.583984375 275.483398438 l 1
 633.583984375 142.364257812 l 1
 632.90625 125.331054688 l 1
EndSplineSet
EndChar

StartChar: registered
Encoding: 174 174 109
Width: 1133
VWidth: 1024
Flags: W
HStem: -28 100<401.988 716.533> 309 76<474.658 555.021> 532.765 74.2354<474.658 647.922> 682 98<398.893 671.394>
VStem: 84.0996 97<257.756 478.916> 371.921 102.736<152.389 309 385 532.765> 649.624 102.736<385.856 536.639> 917 99.5996<256.498 458.15>
LayerCount: 2
Fore
SplineSet
84.099609375 366 m 4
 84.099609375 585.69140625 285.970703125 780 556.008789062 780 c 0
 841.107421875 780 1016.59960938 566.849609375 1016.59960938 346 c 2
 1016.59960938 345.302734375 l 1
 1016.53417969 344.609375 l 2
 995.8828125 126.10546875 846.723005665 -28 556.008720182 -28 c 0
 285.970307987 -28 84.099609375 146.30859375 84.099609375 366 c 4
474.657615064 532.764648438 m 1
 474.657615064 385 l 1
 565.548123395 385 l 2
 656.743712448 385 649.624479786 378.44140625 649.624479786 463 c 0
 649.624479786 547.782226562 654.694143309 537 600.981508735 537 c 0
 544.964388581 537 513.470434832 534.709960938 474.657615064 532.764648438 c 1
788.481253274 178.04296875 m 1
 789.457921086 176.888671875 l 1
 801.234375 157.3671875 l 1
 777.295642682 150.0078125 l 1
 673.720737934 147.0078125 l 1
 664.227403957 146.732421875 l 1
 659.097338546 154.356445312 l 1
 555.020791002 309 l 1
 474.657615064 309 l 1
 474.657615064 162 l 1
 474.657615064 145.000976562 l 1
 456.869771017 146.029296875 l 1
 422.02197686 148.043945312 l 1
 387.176230224 151.065429688 l 1
 371.921170418 152.388671875 l 1
 371.921170418 167 l 1
 371.921170418 169 l 1
 371.921170418 589 l 1
 371.921170418 591 l 1
 371.921170418 607 l 1
 388.694467503 607 l 1
 406.516095656 607 l 1
 423.289392741 607 l 1
 457.884317979 607 l 1
 562.822872123 607 l 2
 730.322425509 607 752.360924432 591.27734375 752.360924432 463 c 0
 752.360924432 369.517578125 746.364757377 324.4453125 674.310424159 313.108398438 c 1
 788.481253274 178.04296875 l 1
536.928710938 682 m 0
 336.49609375 682 181.099609375 524.96875 181.099609375 364.154296875 c 0
 181.099609375 205.436523438 353.104446759 72 554.645070786 72 c 0
 775.228669609 72 897.39453125 189.952148438 917 350 c 1
 915.70703125 507.146484375 739.706054688 682 536.928710938 682 c 0
EndSplineSet
EndChar

StartChar: macron
Encoding: 175 175 110
Width: 715
VWidth: 1024
Flags: W
HStem: 998.026 127.974<431.804 636.474> 1019.44 106.562<119.672 337.444>
LayerCount: 2
Fore
SplineSet
104 1126 m 1x40
 121.993164062 1126 l 1x40
 620.473632812 1126 l 1
 636.473632812 1126 l 1
 636.473632812 1110 l 1
 636.473632812 1014 l 1
 636.473632812 997.05859375 l 1
 619.559570312 998.026367188 l 1x80
 133.079101562 1018.82519531 l 1
 119.671875 1019.43847656 l 1
 118.102539062 1030.10839844 l 1
 106.102539062 1111.70507812 l 1
 104 1126 l 1x40
EndSplineSet
EndChar

StartChar: degree
Encoding: 176 176 111
Width: 429
VWidth: 1024
Flags: HMW
LayerCount: 2
Fore
SplineSet
81.900390625 827.516601562 m 5
 81.900390625 828 l 5
 81.900390625 840.705078125 l 6
 81.900390625 897.807617188 110.998046875 985 222.900390625 985 c 4
 359.119140625 985 356.288085938 888.90234375 361.799804688 829.686523438 c 4
 363.078125 820.737304688 362.900390625 815.452148438 362.900390625 808.942382812 c 4
 362.900390625 746.474609375 331.548828125 671 222.900390625 671 c 4
 85.1357421875 671 85.712890625 775.620117188 81.935546875 827.034179688 c 6
 81.900390625 827.516601562 l 5
168.8125 822.610351562 m 6
 176.993164062 759.96875 171.04296875 760 218.900390625 760 c 4
 267.529296875 760 269.953125 763.359375 271.900390625 821.434570312 c 6
 271.900390625 826.096679688 l 6
 271.900390625 875.399414062 246.999023438 893 231.900390625 893 c 4
 228.751953125 893 227.959960938 892.85546875 227.959960938 892.85546875 c 5
 227.151367188 892.638671875 l 5
 226.319335938 892.4921875 l 6
 197.3125 887.376953125 167.900390625 877.162109375 167.900390625 835.76953125 c 4
 167.900390625 830.921875 167.967773438 826.838867188 168.682617188 823.380859375 c 6
 168.76171875 822.997070312 l 5
 168.8125 822.610351562 l 6
EndSplineSet
EndChar

StartChar: plusminus
Encoding: 177 177 112
Width: 858
VWidth: 1024
Flags: W
HStem: 5.27148 81.6699<217.9 445.892> 350.497 106.029<270.371 353.027 472.252 716.309> 359.511 89.0303<68.9004 353.027>
VStem: 345.16 135.879<470.624 695>
LayerCount: 2
Fore
SplineSet
217.900390625 5.271484375 m 1x90
 217.900390625 21 l 1
 217.900390625 72 l 1
 217.900390625 86.94140625 l 1
 233.598632812 87.962890625 l 1
 589 102 l 1
 630.84765625 96 l 1
 630.84765625 15 l 1
 630.847690919 18.7236328125 l 1
 613.245022611 19.001953125 l 1
 234.485351562 5.001953125 l 1
 217.900390625 5.271484375 l 1x90
363.434570312 145.56640625 m 5
 356.846024249 350.497070312 l 1xd0
 84.3818359375 359.008789062 l 1
 68.900390625 359.510742188 l 1
 68.900390625 375 l 1
 68.900390625 433 l 1
 68.900390625 448.541015625 l 1xb0
 84.4345703125 448.993164062 l 1
 353.026567387 456.526367188 l 1xd0
 345.159500267 678.475585938 l 1
 344.573272789 695 l 1
 362.455851514 695 l 1
 463.744340686 695 l 1
 481.704026809 695 l 1
 481.038579402 678.407226562 l 1
 472.251504835 459.2109375 l 1
 785.177734375 462.999023438 l 1
 801.379882812 463.203125 l 1
 801.379882812 447 l 1
 801.379882812 355 l 1
 801.379882812 338.594726562 l 1
 784.98046875 339.004882812 l 1
 468.948561913 346.568359375 l 1
 483.778320312 146.997070312 l 5
 484.926757812 130 l 5
 466.506835938 130 l 5
 380.734375 130 l 5
 363.891601562 130 l 5
 363.434570312 145.56640625 l 5
EndSplineSet
EndChar

StartChar: Superscripttwo
Encoding: 178 178 113
Width: 384
VWidth: 1024
Flags: MW
LayerCount: 2
Fore
SplineSet
80.599609375 628 m 5
 80.599609375 644 l 5
 80.599609375 667.28125 l 6
 80.599609375 752.389648438 93.6279296875 750.181640625 154.703125 786.639648438 c 4
 228.173828125 830.798828125 231.599609375 837.248046875 231.599609375 867.856445312 c 4
 231.599609375 922.400390625 232.245117188 918 199.599609375 918 c 4
 161.896484375 918 166.599609375 921.798828125 166.599609375 889 c 4
 166.599609375 879.310546875 175.528320312 844 147.599609375 844 c 6
 140.97265625 844 l 5
 136.420898438 848.551757812 l 5
 91.1865234375 868.341796875 l 5
 81.599609375 872.536132812 l 5
 81.599609375 883 l 5
 81.599609375 889 l 6
 81.599609375 967.358398438 108.418945312 987 198.599609375 987 c 4
 291.943359375 987 315.599609375 962.420898438 315.599609375 867.498046875 c 4
 314.514648438 815.698242188 299.515625 794.541992188 237.572265625 756.315429688 c 4
 177.345703125 718.572265625 173.771484375 725.543945312 171.271484375 696.634765625 c 5
 288.838867188 695.024414062 l 5
 299.352539062 694.879882812 l 5
 303.379882812 685.961914062 l 5
 320.379882812 648.317382812 l 5
 329.5546875 628 l 5
 305.599609375 628 l 5
 154.599609375 628 l 5
 96.599609375 628 l 5
 80.599609375 628 l 5
EndSplineSet
EndChar

StartChar: Superscriptthree
Encoding: 179 179 114
Width: 403
VWidth: 1024
Flags: MW
LayerCount: 2
Fore
SplineSet
78.79296875 748.995117188 m 5
 97.15234375 747.975585938 l 5
 151.15234375 744.975585938 l 5
 164.9765625 744.20703125 l 5
 166.202148438 730.416992188 l 6
 169.727539062 690.7578125 166.80859375 693 210.264648438 693 c 4
 252.822265625 693 251.264648438 690.584960938 251.264648438 733.163085938 c 4
 251.264648438 769.202148438 248.334960938 770.754882812 231.495117188 773.360351562 c 4
 224.157226562 774.495117188 213.413085938 775 199.264648438 775 c 6
 172.264648438 775 l 5
 156.264648438 775 l 5
 156.264648438 791 l 5
 156.264648438 811.530273438 l 5
 155.29296875 828.060546875 l 5
 154.295898438 845 l 5
 171.264648438 845 l 5
 190.264648438 845 l 5
 202.264648438 845 l 6
 241.353515625 845 239.840820312 843.239257812 245.358398438 881.310546875 c 4
 246.36328125 889.469726562 247.264648438 895.075195312 247.264648438 899.388671875 c 4
 247.264648438 912.4296875 250.374023438 914 201.264648438 914 c 4
 159.928710938 914 167.1328125 915.267578125 165.159179688 898.166015625 c 6
 163.461914062 883.453125 l 5
 148.661132812 884.01171875 l 5
 95.6611328125 886.01171875 l 5
 78 886.677734375 l 5
 80.4150390625 904.186523438 l 6
 89.4765625 969.880859375 116.704101562 985 203.264648438 985 c 4
 286.872070312 985 330.264648438 974.333984375 330.264648438 916.030273438 c 4
 330.264648438 905.0390625 328.025390625 893.240234375 326.107421875 881.779296875 c 4
 321.788085938 851.133789062 316.819335938 830.134765625 297.795898438 815.577148438 c 5
 333.296875 800.30859375 339.264648438 772.446289062 339.264648438 730.271484375 c 4
 339.264648438 641.154296875 312.7890625 619 210.264648438 619 c 4
 114.16015625 619 87.78515625 641.094726562 80.3203125 730.670898438 c 6
 78.79296875 748.995117188 l 5
EndSplineSet
EndChar

StartChar: acute
Encoding: 180 180 115
Width: 326
VWidth: 1024
Flags: W
HStem: 690.104 239.851
VStem: 80.5996 193.906
LayerCount: 2
Fore
SplineSet
135.296875 929.954101562 m 1
 153.153320312 921.443359375 l 1
 260.153320312 876.991210938 l 1
 274.505859375 871.028320312 l 1
 267.755859375 858.481445312 l 1
 184.755859375 704.20703125 l 1
 178.142578125 690.103515625 l 1
 163.8671875 696.336914062 l 1
 92.8671875 723.310546875 l 1
 80.599609375 727.970703125 l 1
 83.7060546875 739.299804688 l 1
 130.706054688 910.712890625 l 1
 135.296875 929.954101562 l 1
EndSplineSet
EndChar

StartChar: mu
Encoding: 181 181 116
Width: 702
VWidth: 1024
Flags: W
HStem: -15 135<238.497 473.497> 691.545 12.0078G<89.9229 108.245 613.877 632.222>
VStem: 89.9229 140.999<127.201 682.823> 100.923 129.999<-143.664 1.52148 127.201 489.973> 492.222 140<-11.7939 7.82324 139.509 690.805>
LayerCount: 2
Fore
SplineSet
348.868703618 120 m 0xe8
 455.430807722 120 492.221679688 131.237304688 492.221679688 220.373046875 c 2
 492.221679688 677.732421875 l 1
 492.221679688 690.8046875 l 1
 505.876953125 692.827148438 l 1
 613.876953125 708.827148438 l 1
 632.221679688 711.544921875 l 1
 632.221679688 693 l 1
 632.221679688 1 l 1
 632.221679688 -11.7939453125 l 1
 619.741210938 -14.6083984375 l 1
 517.741210938 -37.6083984375 l 1
 498.221679688 -42.009765625 l 1
 498.221679688 -22 l 1
 498.221679688 7.8232421875 l 1
 468.91777728 -10.2578125 427.83585491 -15 345.857522458 -15 c 0
 283.176992628 -15 245.082496796 -7.4326171875 224.921875 1.521484375 c 1
 224.921875 -136 l 1
 224.921875 -143.6640625 l 1
 218.94921875 -148.467773438 l 1
 126.94921875 -222.467773438 l 1
 101.3125 -243.087890625 l 1
 100.922851562 -210.189453125 l 1xd8
 89.9228515625 684.810546875 l 1
 89.7001953125 703.552734375 l 1
 108.245117188 700.830078125 l 1
 217.245117188 684.830078125 l 1
 230.921875 682.823242188 l 1
 230.921875 669.743164062 l 1
 230.921875 208.943359375 l 2
 230.921875 119.234375 248.006577674 120 348.868703618 120 c 0xe8
EndSplineSet
EndChar

StartChar: paragraph
Encoding: 182 182 117
Width: 753
VWidth: 1024
Flags: W
VStem: 70.2002 421.906<474.185 750.025> 355.4 144.467<-12.5049 284.207> 365.373 134.346<19.5826 314.805> 556.98 103.718<-17.2998 822.959>
LayerCount: 2
Fore
SplineSet
342.746237422 316.260742188 m 2x30
 191.232421875 349.887695312 126.620117188 408.385742188 94.4619140625 480.946289062 c 0
 78.5126953125 517.961914062 70.2001953125 559.4765625 70.2001953125 603.012695312 c 0
 70.2001953125 750.435546875 157.834960938 926 304.895197813 926 c 2
 455.391605629 927 l 1
 473.065726362 927 l 1
 665.42578125 928.999023438 l 1
 677.388671875 929.12890625 l 1
 680.896484375 917.69140625 l 1
 703.896484375 842.69140625 l 1
 710.8125 820.137695312 l 1
 687.30078125 822.052734375 l 1
 687.30078125 822.052734375 676.024414062 823 662.599609375 823 c 0
 660.239257812 823 656.627929688 822.984375 654.749023438 822.958984375 c 0
 656.802734375 616.583984375 660.59765625 -6.251953125 660.599609375 -6.51953125 c 2
 660.698242188 -22.734375 l 1
 643.88671875 -21.984375 l 1
 573.948242188 -17.984375 l 1
 556.98046875 -17.2998046875 l 1
 557.032226562 -1.951171875 l 1
 559.939453125 864.30078125 l 1
 542.396484375 862.703125 504.038393702 861.073242188 492.10579565 860.15625 c 1x90
 499.719013661 0.1279296875 l 1x30
 499.867063465 -16.5009765625 l 1
 481.473226167 -15.9921875 l 1
 373.027285241 -12.9921875 l 1
 355.399632694 -12.5048828125 l 1x50
 355.869717837 2.900390625 l 1
 365.373002321 314.8046875 l 1
 345.93957443 315.833984375 l 1
 344.320752489 315.919921875 l 1
 342.746237422 316.260742188 l 2x30
EndSplineSet
EndChar

StartChar: periodcentered
Encoding: 183 183 118
Width: 308
VWidth: 1024
Flags: W
HStem: 278.74 129.236
VStem: 89.7002 152.758
LayerCount: 2
Fore
SplineSet
89.7001953125 290.298828125 m 1
 90.97265625 302.694335938 l 1
 99.97265625 390.392578125 l 1
 101.083007812 401.21484375 l 1
 115.05078125 401.9765625 l 1
 225.05078125 407.9765625 l 1
 242.458007812 408.92578125 l 1
 241.9140625 395.334960938 l 1
 237.9140625 295.5 l 1
 237.390625 278.740234375 l 1
 220.673828125 280.048828125 l 1
 105.673828125 289.048828125 l 1
 89.7001953125 290.298828125 l 1
EndSplineSet
EndChar

StartChar: cedilla
Encoding: 184 184 119
Width: 703
VWidth: 1024
Flags: W
HStem: -248 75.5557<372.434 418.763> -20 20G<346.684 422.34>
VStem: 419.956 89<-171.292 -120.531>
LayerCount: 2
Fore
SplineSet
360.956054688 0 m 2
 380.956054688 0 l 1
 400.956054688 0 l 1
 422.33984375 0 l 1
 416.306640625 -13.81640625 l 1
 407.928710938 -33 l 1
 489.315429688 -33 508.956054688 -43.3466796875 508.956054688 -128.866210938 c 0
 508.956054688 -210.193359375 492.745117188 -248 397.956054688 -248 c 0
 334.02734375 -248 311.338867188 -235.248046875 292.80859375 -186.80078125 c 2
 287.299804688 -172.399414062 l 1
 303.833984375 -168.48046875 l 1
 348.833984375 -157.813476562 l 1
 363.123046875 -154.426757812 l 1
 368.043945312 -166.822265625 l 2
 369.71484375 -171.028320312 371.782226562 -175.256835938 372.211914062 -176.041015625 c 0
 376.907226562 -174.780273438 384.807617188 -172.444335938 394.956054688 -172.444335938 c 0
 423.893554688 -172.444335938 419.956054688 -177.357421875 419.956054688 -146.666992188 c 0
 419.956054688 -114.037109375 423.908203125 -120 397.956054688 -120 c 0
 389.206054688 -120 383.801757812 -120.547851562 381.92578125 -120.955078125 c 0
 381.561523438 -121.8125 381.435546875 -122.159179688 381.135742188 -123.059570312 c 2
 380.776367188 -124.138671875 l 1
 380.267578125 -125.155273438 l 1
 379.267578125 -127.155273438 l 1
 371.703125 -142.283203125 l 1
 357.018554688 -133.891601562 l 1
 322.018554688 -114.610351562 l 1
 310.9765625 -109.04296875 l 1
 314.631835938 -98.2958984375 l 1
 314.631835938 -98.2958984375 332.411132812 0 360.956054688 0 c 2
EndSplineSet
EndChar

StartChar: Superscriptone
Encoding: 185 185 120
Width: 302
VWidth: 1024
Flags: W
HStem: 519.388 320.616
VStem: 144.656 84<527.465 761.193>
LayerCount: 2
Fore
SplineSet
228.65625 519.387695312 m 1
 211.125 521.073242188 l 1
 159.125 526.073242188 l 1
 144.65625 527.46484375 l 1
 144.65625 540.650390625 l 1
 144.65625 542.463867188 l 1
 144.65625 761.193359375 l 1
 90.423828125 755.7265625 l 1
 71.5 753.819335938 l 1
 72.6875 771.057617188 l 1
 74.6875 800.084960938 l 1
 75.3369140625 809.510742188 l 1
 85.099609375 812.790039062 l 1
 166.099609375 840.00390625 l 1
 168.977539062 841.0703125 l 1
 172.046875 840.995117188 l 1
 213.046875 839.995117188 l 1
 228.65625 839.614257812 l 1
 228.65625 825.493164062 l 1
 228.65625 538.80859375 l 1
 228.65625 537.904296875 l 1
 228.65625 537 l 1
 228.65625 519.387695312 l 1
EndSplineSet
EndChar

StartChar: ordmasculine
Encoding: 186 186 121
Width: 439
VWidth: 1024
Flags: W
HStem: 526.02 79.9805<79.2998 157.858> 539.02 66.9805<299.701 372.3> 813 92<209.087 270.412>
VStem: 90.335 85.877<665.716 801.676> 279.3 90<666.104 809.144>
LayerCount: 2
Fore
SplineSet
90.2998046875 748.244140625 m 1xb8
 90.2998046875 748.724609375 l 1
 90.2998046875 761.372070312 l 2
 90.2998046875 818.026367188 118.2890625 905 230.299804688 905 c 0
 366.515625 905 363.698242188 809.235351562 369.185546875 750.547851562 c 0
 370.583007812 739.728515625 369.299804688 735.112304688 369.299804688 729.754882812 c 0
 369.299804688 683.776367188 352.666992188 630.471679688 299.701171875 606 c 1
 356.299804688 606 l 1
 372.299804688 606 l 1
 372.299804688 590 l 1
 372.299804688 555 l 1
 372.299804688 539.77734375 l 1
 357.095703125 539.01953125 l 1x78
 96.095703125 526.01953125 l 1
 79.2998046875 525.18359375 l 1
 79.2998046875 542 l 1
 79.2998046875 590 l 1
 79.2998046875 606 l 1
 95.2998046875 606 l 1
 157.858398438 606 l 1
 92.9150390625 635.90234375 93.267578125 708.032226562 90.3349609375 747.763671875 c 2
 90.2998046875 748.244140625 l 1xb8
176.211914062 734.142578125 m 2
 184.353515625 664.30078125 179.271484375 664 227.299804688 664 c 0
 275.747070312 664 277.34375 667.46875 279.299804688 732.825195312 c 2
 279.299804688 738.048828125 l 2
 279.299804688 793.282226562 254.3984375 813 239.299804688 813 c 0
 236.151367188 813 235.359375 812.838867188 235.359375 812.838867188 c 1
 234.55078125 812.594726562 l 1
 233.71875 812.430664062 l 2
 204.711914062 806.701171875 175.299804688 795.256835938 175.299804688 748.884765625 c 0
 175.299804688 743.453125 175.3671875 738.87890625 176.08203125 735.005859375 c 2
 176.161132812 734.576171875 l 1
 176.211914062 734.142578125 l 2
EndSplineSet
EndChar

StartChar: guillemotright
Encoding: 187 187 122
Width: 665
VWidth: 1024
Flags: W
LayerCount: 2
Fore
SplineSet
314.404231957 630 m 1
 463.87279664 614 l 1
 473.338867188 612.96484375 l 1
 477.208984375 614 l 1
 622.208984375 339.31640625 l 1
 626.172851562 331.608398438 l 1
 621.881835938 324.079101562 l 1
 470.716900116 67 l 1
 466.222365672 68.0771484375 l 1
 457.229924196 67 l 1
 323.647369076 51 l 1
 287.004209942 46.611328125 l 1
 305.054296245 66.615234375 l 1
 488.428710938 347.604492188 l 1
 296.473310398 613.208007812 l 1
 276.35470399 634.073242188 l 1
 314.404231957 630 l 1
103.541992188 630 m 1
 221.541992188 626 l 1
 231.118192857 625.6875 l 1
 236.128733132 626 l 1
 407.700109649 355.559570312 l 1
 412.309312056 348.092773438 l 1
 407.78892111 340.5859375 l 1
 236.217544593 63 l 1
 230.849510082 62.6591796875 l 1
 220.458007812 63 l 1
 102.458007812 67 l 1
 74.806640625 67.9375 l 1
 89.41015625 83.890625 l 1
 260.631702804 344.133789062 l 1
 89.291015625 613.498046875 l 1
 74.099609375 630.998046875 l 1
 103.541992188 630 l 1
EndSplineSet
EndChar

StartChar: onequarter
Encoding: 188 188 123
Width: 921
VWidth: 1024
Flags: W
HStem: 128.003 78.9873<651.827 736.145 826.145 882.145>
VStem: 186.244 92.301<461.557 782.099> 736.145 90<29.5625 128.712 210.37 296.499>
LayerCount: 2
Fore
SplineSet
217.991210938 9.76171875 m 1
 223.16796875 23.85546875 l 1
 578.671125402 932.357421875 l 1
 584.168744415 946.772460938 l 1
 599.871285966 942.301757812 l 1
 701.729745541 914.2421875 l 1
 719.400738666 909.375 l 1
 712.723935404 893.84375 l 1
 323.430667604 -11.78125 l 1
 317.187804145 -26.7919921875 l 1
 301.11526078 -20.8837890625 l 1
 232.372070312 4.2724609375 l 1
 217.991210938 9.76171875 l 1
216.244140625 454 m 1
 216.244140625 458.48046875 l 1
 200.611328125 460.083984375 l 1
 186.244140625 461.556640625 l 1
 186.244140625 476 l 1
 186.244140625 478 l 1
 186.244140625 782.098632812 l 1
 124.033203125 775.100585938 l 1
 105.299804688 772.993164062 l 1
 106.265625 791.819335938 l 1
 108.265625 830.819335938 l 1
 108.78125 840.881835938 l 1
 118.079101562 844.764648438 l 1
 209.079101562 882.764648438 l 1
 212.205078125 884.0703125 l 1
 215.591796875 883.99609375 l 1
 261.745181132 882.99609375 l 1
 278.545150158 882.65625 l 1
 278.545150158 867 l 1
 278.545150158 472 l 1
 278.545150158 470 l 1
 278.545150158 454 l 1
 261.372034827 454 l 1
 232.244140625 454 l 1
 216.244140625 454 l 1
752.26953125 454.208007812 m 1
 766.561523438 452.9375 l 1
 811.561523438 448.9375 l 1
 826.14453125 447.640625 l 1
 826.14453125 433 l 1
 826.14453125 431.888671875 l 1
 839.155273438 425.3828125 l 1
 826.14453125 412.373046875 l 1
 826.14453125 208.438476562 l 1
 866.715820312 206.990234375 l 1
 882.14453125 206.438476562 l 1
 882.14453125 191 l 1
 882.14453125 144 l 1
 882.14453125 127.711914062 l 1
 865.859375 128.002929688 l 1
 826.14453125 128.711914062 l 1
 826.14453125 43 l 1
 826.14453125 29.5625 l 1
 812.909179688 27.240234375 l 1
 755.909179688 17.240234375 l 1
 737.310546875 13.9775390625 l 1
 737.145507812 32.859375 l 1
 736.28125 131.3125 l 1
 591.891615128 134 l 1
 529.273262894 134 l 1
 512.100147562 134 l 1
 512.100147562 150 l 1
 512.100147562 191 l 1
 512.100147562 197.231445312 l 1
 516.624022426 201.821289062 l 1
 749.333007812 439.525390625 l 1
 752.26953125 454.208007812 l 1
736.14453125 296.499023438 m 1
 651.826668092 212.177734375 l 1
 736.14453125 210.370117188 l 1
 736.14453125 296.499023438 l 1
EndSplineSet
EndChar

StartChar: onehalf
Encoding: 189 189 124
Width: 885
VWidth: 1024
Flags: W
HStem: -16 78.9961<630.885 800.467> 366 75<584.744 693.068> 920.713 20G<430.452 453.497>
VStem: 154.363 99.5106<440 782.104> 694.963 98<229.582 363.113>
LayerCount: 2
Fore
SplineSet
223.813042476 436.888671875 m 0
 209.669921875 436.888671875 187.84765625 436.893554688 174.263671875 440 c 2
 170.36328125 440 l 1
 154.377929688 440 l 1
 154.36328125 455.986328125 l 1
 154.079101562 782.103515625 l 1
 82.8505859375 774.099609375 l 1
 63.7001953125 771.948242188 l 1
 65.1064453125 791.16796875 l 1
 68.1064453125 832.16796875 l 1
 68.83203125 842.084960938 l 1
 78.0458984375 845.825195312 l 1
 179.045898438 886.825195312 l 1
 182.094726562 888.0625 l 1
 185.383789062 887.997070312 l 1
 236.695494721 886.997070312 l 1
 253.540001794 886.68359375 l 1
 253.551549913 871.01171875 l 1
 253.873847431 453.01171875 l 1
 253.88644538 437.3359375 l 1
 237.03878882 437.00390625 l 2
 237.004144462 437.002929688 231.5807276 436.888671875 223.813042476 436.888671875 c 0
581.778502057 273.969726562 m 1
 562.520438004 277.263671875 l 1
 562.520438004 277.263671875 483.929185655 276.366210938 483.929185655 308 c 0
 483.929185655 321.233398438 483.602688821 333.315429688 483.599539334 344.500976562 c 0
 483.582742069 409.517578125 505.69844079 441 625.510180873 441 c 0
 764.33984375 441 792.962890625 412.892578125 792.962890625 289.87109375 c 0
 791.887695312 223.165039062 773.10546875 197.96875 700.814453125 149.104492188 c 1
 636.297174339 99.83203125 633.629558729 110.235351562 630.885305598 66.6181640625 c 1
 789.735351562 62.99609375 l 1
 800.466796875 62.74609375 l 1
 804.305664062 52.72265625 l 1
 822.305664062 5.72265625 l 1
 830.625 -16 l 1
 807.36328125 -16 l 1
 613.039261614 -16 l 1
 533.487415686 -16 l 1
 516.356305284 -16 l 1
 516.287016567 -0.0634765625 l 1
 516.179934004 24.9677734375 l 2
 516.179934004 143.595703125 530.066022819 136.259765625 613.137945544 186.016601562 c 1
 691.014648438 244.415039062 694.962890625 252.58203125 694.962890625 295 c 0
 694.962890625 365.787109375 694.36328125 366 628.304825798 366 c 0
 612.70121666 366 601.936269604 364.540039062 595.101882503 362.731445312 c 0
 578.475739872 358.33203125 584.478662368 356.708984375 584.478662368 356.708984375 c 1
 586.269670723 353.3359375 l 1
 586.033459188 349.159179688 l 1
 582.808384353 292.159179688 l 1
 581.778502057 273.969726562 l 1
212.147460938 1.841796875 m 1
 214.817382812 13.91796875 l 1
 430.451943788 922.345703125 l 1
 434.674356218 940.712890625 l 1
 453.496741216 933.915039062 l 1
 533.800264742 905.859375 l 1
 547.733595865 900.991210938 l 1
 544.32165146 887.89453125 l 1
 308.353676039 -17.6533203125 l 1
 303.528661735 -36.7890625 l 1
 284.364032467 -28.51171875 l 1
 224.162635549 -3.3583984375 l 1
 212.147460938 1.841796875 l 1
EndSplineSet
EndChar

StartChar: threequarters
Encoding: 190 190 125
Width: 914
VWidth: 1024
Flags: W
HStem: 122.002 79.9961<613.707 710.278 807.542 868.542> 507 74<157.318 242.556> 676 70<144.602 234.272> 829 70<153.658 238.828>
VStem: 67.5996 84.1973<801.681 827.765> 240.347 102.35<746.697 828.622> 244.518 113.472<581.639 674.05> 711.347 96.1946<21.3057 122.735 205.449 296.82>
LayerCount: 2
Fore
SplineSet
68.12109375 634.658203125 m 1xfb
 86.193359375 633.989257812 l 1
 140.193359375 631.989257812 l 1
 154.584960938 631.456054688 l 1
 155.564453125 617.088867188 l 2
 158.17578125 578.778320312 154.993164062 581 198.6015625 581 c 0
 246.101319425 581 244.517982835 578.084960938 244.517982835 628 c 0xfb
 244.517982835 670.422851562 241.327288059 671.833007812 217.336914062 674.681640625 c 0
 209.8125 675.625 199.895507812 676 187.6015625 676 c 2
 160.6015625 676 l 1
 144.6015625 676 l 1
 144.6015625 692 l 1
 144.6015625 712.530273438 l 1
 143.62890625 729.060546875 l 1
 142.631835938 746 l 1
 159.6015625 746 l 1
 176.6015625 746 l 1
 190.6015625 746 l 2
 230.670054179 746 228.739971054 744.58984375 237.78462466 789.572265625 c 0
 239.491202488 800.430664062 240.346580237 804.665039062 240.346580237 810 c 0
 240.346580237 826.046875 240.346580237 829 189.6015625 829 c 0
 148.264648438 829 155.46875 830.267578125 153.49609375 813.166015625 c 2
 151.796875 798.442382812 l 1
 136.986328125 799.01171875 l 1
 84.986328125 801.01171875 l 1
 67.599609375 801.680664062 l 1
 69.720703125 818.950195312 l 2
 77.703125 883.948242188 105.1640625 899 191.6015625 899 c 0
 287.33595788 899 342.696339985 890.502929688 342.696339985 826 c 0xfd
 342.696339985 814.766601562 341.097337137 801.442382812 338.238767054 788.077148438 c 0
 332.406740987 756.314453125 324.524523809 732.815429688 301.973465996 718.106445312 c 1
 346.710035575 702.98046875 357.989742151 672.708007812 357.989742151 626 c 0
 357.989742151 528.763671875 321.277430499 507 198.6015625 507 c 0
 102.524414062 507 77.1298828125 529.127929688 69.6591796875 616.638671875 c 2
 68.12109375 634.658203125 l 1xfb
197.337890625 33.7451171875 m 1
 202.526367188 47.859375 l 1
 558.330908357 956.361328125 l 1
 563.810965802 970.771484375 l 1
 579.454247754 966.301757812 l 1
 680.948629754 938.2421875 l 1
 698.555416185 933.375 l 1
 691.903522557 917.84375 l 1
 304.001724345 12.21875 l 1
 297.788485973 -2.7724609375 l 1
 281.78488006 3.109375 l 1
 211.747070312 28.2646484375 l 1
 197.337890625 33.7451171875 l 1
724.541992188 454.303710938 m 1
 741.79296875 452.951171875 l 1
 792.79296875 448.951171875 l 1
 807.541992188 447.793945312 l 1
 807.541992188 433 l 1
 807.541992188 431.888671875 l 1
 816.908203125 427.205078125 l 1
 807.541992188 413.155273438 l 1
 807.541992188 202.740234375 l 1
 852.803710938 201.998046875 l 1
 868.541992188 201.740234375 l 1
 868.541992188 186 l 1
 868.541992188 138 l 1
 868.541992188 121.735351562 l 1
 852.279296875 122.001953125 l 1
 807.541992188 122.735351562 l 1
 807.541992188 35 l 1
 807.541992188 21.3056640625 l 1
 794.01171875 19.19140625 l 1
 730.01171875 9.19140625 l 1
 711.347438975 6.3056640625 l 1
 711.347438975 25 l 1
 711.347438975 125.377929688 l 1
 549.356230709 128.997070312 l 1
 481.570416276 128.001953125 l 1
 464.190268394 127.747070312 l 1
 464.190268394 144 l 1
 464.190268394 186 l 1
 464.190268394 192.590820312 l 1
 469.155428122 197.26953125 l 1
 724.541992188 438.590820312 l 1
 724.541992188 454.303710938 l 1
710.277955685 296.8203125 m 1
 613.706956722 207.953125 l 1
 710.277955685 205.44921875 l 1
 710.277955685 296.8203125 l 1
EndSplineSet
EndChar

StartChar: questiondown
Encoding: 191 191 126
Width: 760
VWidth: 1024
Flags: W
HStem: -245 113<281.099 534.595>
VStem: 71.5 146<-74.2114 107.607> 291.547 179.846<289.946 503.011>
LayerCount: 2
Fore
SplineSet
467.265625 785.71875 m 1
 463.485351562 717.97265625 l 1
 440.260742188 658.97265625 l 1
 437.736328125 647.125976562 l 1
 424.4453125 646.0625 l 1
 299.4765625 636.0625 l 1
 281.793945312 634.647460938 l 1
 280.28515625 650.640625 l 1
 268.120117188 779.640625 l 1
 266.366210938 798.247070312 l 1
 286.96875 796.961914062 l 1
 447.327148438 786.961914062 l 1
 467.265625 785.71875 l 1
714.013671875 34.15234375 m 1
 712.782226562 19.646484375 l 2
 694.359375 -197.334960938 648.604492188 -245 397.339277582 -245 c 2
 385.789753438 -245 l 2
 181.734375 -243.985351562 71.5 -205 71.5 17 c 2
 71.5 26 l 1
 71.5 65 l 2
 71.5 160.79296875 89.78125 171.126953125 204.024414062 251.107421875 c 2
 204.735351562 251.604492188 l 1
 205.495117188 252.022460938 l 2
 271.795712538 286.025390625 290.264799165 306.663085938 291.546759625 360.172851562 c 2
 291.546759625 381 l 2
 291.546759625 411.568359375 290.109375 511.750976562 290.109375 565 c 2
 290.109375 581 l 1
 307.803710938 581 l 1
 424.256835938 581 l 1
 441.951933588 521 l 1
 441.951933588 505 l 1
 441.952148438 543 l 2
 441.952148438 479.1484375 461.555020621 369.435546875 462.664181019 329.797851562 c 1
 469.274863391 312.234375 471.392744151 297.500976562 471.392744151 285.204101562 c 0
 471.392744151 267.849609375 467.855742882 255.6953125 467.855742882 249.516601562 c 0
 467.855742882 200.245117188 414.090083592 193.506835938 330.97217377 152.9140625 c 0
 211.389648438 94.0546875 217.5 104.58984375 217.5 41 c 2
 217.5 26 l 2
 217.5 -108.68359375 297.482441754 -116.125976562 388.217594309 -127.145507812 c 0
 412.114762883 -130.079101562 436.059451474 -132 453.408577698 -132 c 0
 547.359971407 -132 563.83984375 -93.2802734375 575.903320312 41.4267578125 c 2
 577.46484375 58.861328125 l 1
 594.688476562 55.744140625 l 1
 699.688476562 36.744140625 l 1
 714.013671875 34.15234375 l 1
EndSplineSet
EndChar

StartChar: Agrave
Encoding: 192 192 127
Width: 979
VWidth: 1024
Flags: W
HStem: 184.223 110.835<331.835 705.706>
LayerCount: 2
Fore
SplineSet
423.527140833 975 m 1
 418.460404415 980.521484375 l 1
 280.810618312 1130.52148438 l 1
 250.499126201 1163.55273438 l 1
 296.227973411 1156.80859375 l 1
 479.302602539 1129.80859375 l 1
 486.376386995 1128.76464844 l 1
 490.514566412 1123.24609375 l 1
 582.73950949 1000.24609375 l 1
 601.668423135 975 l 1
 568.913523237 975 l 1
 431.263737134 975 l 1
 423.527140833 975 l 1
59.7998046875 10.8759765625 m 1
 65.548828125 26.7294921875 l 1
 398.757003918 917.2890625 l 1
 402.753521521 928.06640625 l 1
 414.845443085 928 l 1
 595.166456075 927 l 1
 607.172553329 926.93359375 l 1
 611.084280649 916.212890625 l 1
 938.756835938 25.693359375 l 1
 944.005859375 10.9814453125 l 1
 928.73828125 5.837890625 l 1
 836.73828125 -25.162109375 l 1
 821.647460938 -30.2470703125 l 1
 816.491210938 -15.1806640625 l 1
 742.710854582 192.780273438 l 1
 267.614355014 184.22265625 l 1
 203.92578125 -10.7568359375 l 1
 199.392578125 -25.314453125 l 1
 184.633789062 -21.48828125 l 1
 76.6337890625 6.51171875 l 1
 59.7998046875 10.8759765625 l 1
506.631958359 735.984375 m 1
 331.834722092 295.057617188 l 1
 705.706100261 295.939453125 l 1
 506.631958359 735.984375 l 1
EndSplineSet
EndChar

StartChar: Aacute
Encoding: 193 193 128
Width: 979
VWidth: 1024
Flags: W
HStem: 184.223 110.835<331.835 705.706>
LayerCount: 2
Fore
SplineSet
379.877723609 955.28515625 m 1
 400.77646029 984.051757812 l 1
 505.390090923 1128.05175781 l 1
 509.697850905 1133.98144531 l 1
 517.252458307 1134.87597656 l 1
 703.079669546 1156.87597656 l 1
 746.615343707 1162.03027344 l 1
 718.044120451 1130.58105469 l 1
 581.770625404 980.581054688 l 1
 577.414266112 975.786132812 l 1
 570.763399043 975.095703125 l 1
 416.596052219 959.095703125 l 1
 379.877723609 955.28515625 l 1
59.7998046875 10.8759765625 m 1
 65.548828125 26.7294921875 l 1
 398.757003918 917.2890625 l 1
 402.753521521 928.06640625 l 1
 414.845443085 928 l 1
 595.166456075 927 l 1
 607.172553329 926.93359375 l 1
 611.084280649 916.212890625 l 1
 938.756835938 25.693359375 l 1
 944.005859375 10.9814453125 l 1
 928.73828125 5.837890625 l 1
 836.73828125 -25.162109375 l 1
 821.647460938 -30.2470703125 l 1
 816.491210938 -15.1806640625 l 1
 742.710854582 192.780273438 l 1
 267.614355014 184.22265625 l 1
 203.92578125 -10.7568359375 l 1
 199.392578125 -25.314453125 l 1
 184.633789062 -21.48828125 l 1
 76.6337890625 6.51171875 l 1
 59.7998046875 10.8759765625 l 1
506.631958359 735.984375 m 1
 331.834722092 295.057617188 l 1
 705.706100261 295.939453125 l 1
 506.631958359 735.984375 l 1
EndSplineSet
EndChar

StartChar: Acircumflex
Encoding: 194 194 129
Width: 979
VWidth: 1024
Flags: W
HStem: 184.223 110.835<331.835 705.706>
LayerCount: 2
Fore
SplineSet
589.634407129 977.791992188 m 1
 501.609685139 1034.63476562 l 1
 416.540214715 961.190429688 l 1
 410.707263668 956.155273438 l 1
 402.87346875 957.139648438 l 1
 259.718518425 975.139648438 l 1
 219.11948333 980.245117188 l 1
 251.673781827 1003.71777344 l 1
 434.747376928 1135.71777344 l 1
 438.239288945 1138.234375 l 1
 442.585307957 1138.83300781 l 1
 573.352604756 1156.83300781 l 1
 581.69100526 1157.98046875 l 1
 587.691468817 1152.39257812 l 1
 748.742338975 1002.39257812 l 1
 778.152158809 975 l 1
 736.8468827 975 l 1
 599.197096596 975 l 1
 593.958711557 975 l 1
 589.634407129 977.791992188 l 1
59.7998046875 10.8759765625 m 1
 65.548828125 26.7294921875 l 1
 398.757003918 917.2890625 l 1
 402.753521521 928.06640625 l 1
 414.845443085 928 l 1
 595.166456075 927 l 1
 607.172553329 926.93359375 l 1
 611.084280649 916.212890625 l 1
 938.756835938 25.693359375 l 1
 944.005859375 10.9814453125 l 1
 928.73828125 5.837890625 l 1
 836.73828125 -25.162109375 l 1
 821.647460938 -30.2470703125 l 1
 816.491210938 -15.1806640625 l 1
 742.710854582 192.780273438 l 1
 267.614355014 184.22265625 l 1
 203.92578125 -10.7568359375 l 1
 199.392578125 -25.314453125 l 1
 184.633789062 -21.48828125 l 1
 76.6337890625 6.51171875 l 1
 59.7998046875 10.8759765625 l 1
506.631958359 735.984375 m 1
 331.834722092 295.057617188 l 1
 705.706100261 295.939453125 l 1
 506.631958359 735.984375 l 1
EndSplineSet
EndChar

StartChar: Atilde
Encoding: 195 195 130
Width: 979
VWidth: 1024
Flags: W
HStem: 184.223 110.835<331.835 705.706> 958 120<534.768 681.419> 1049 108<345.43 471.4>
VStem: 257.401 145.38<975 1044.05> 622.173 146.756<1079.67 1137.12>
LayerCount: 2
Fore
SplineSet
402.781440272 975 m 1xb8
 385.839928136 975 l 1
 274.342774171 975 l 1
 257.401262035 975 l 1
 257.401262035 991 l 2
 257.401262035 1132.6171875 285.749135277 1157 405.110070969 1157 c 0xb8
 569.34781493 1157 502.955989387 1078 584.054792903 1078 c 0
 605.539823369 1078 622.173195208 1073.70898438 622.173195208 1128 c 2
 622.173195208 1144.92578125 l 1
 640.066012957 1143.97460938 l 1
 752.939457979 1137.97460938 l 1
 768.929664501 1137.125 l 1
 768.929664501 1122 l 2
 768.929664501 980.341796875 741.616853127 958 621.220855567 958 c 0xd8
 457.722441512 958 497.302959184 1049 414.746176413 1049 c 0
 410.398089344 1049 408.283502411 1048.41503906 408.041539896 1048.32226562 c 0
 406.607343281 1046.52636719 402.781440272 1030.6171875 402.781440272 991 c 2
 402.781440272 975 l 1xb8
59.7998046875 10.8759765625 m 1
 65.548828125 26.7294921875 l 1
 398.757003918 917.2890625 l 1
 402.753521521 928.06640625 l 1
 414.845443085 928 l 1
 595.166456075 927 l 1
 607.172553329 926.93359375 l 1
 611.084280649 916.212890625 l 1
 938.756835938 25.693359375 l 1
 944.005859375 10.9814453125 l 1
 928.73828125 5.837890625 l 1
 836.73828125 -25.162109375 l 1
 821.647460938 -30.2470703125 l 1
 816.491210938 -15.1806640625 l 1
 742.710854582 192.780273438 l 1
 267.614355014 184.22265625 l 1
 203.92578125 -10.7568359375 l 1
 199.392578125 -25.314453125 l 1
 184.633789062 -21.48828125 l 1
 76.6337890625 6.51171875 l 1
 59.7998046875 10.8759765625 l 1
506.631958359 735.984375 m 1
 331.834722092 295.057617188 l 1
 705.706100261 295.939453125 l 1
 506.631958359 735.984375 l 1
EndSplineSet
EndChar

StartChar: Adieresis
Encoding: 196 196 131
Width: 979
VWidth: 1024
Flags: W
HStem: 184.223 110.835<331.835 705.706> 975 148.802<324.312 488.124>
VStem: 527.196 181.168<983.894 1125.11>
LayerCount: 2
Fore
SplineSet
527.195670019 983.893554688 m 1
 527.195670019 999 l 1
 527.195670019 1118 l 1
 527.195670019 1134.94628906 l 1
 545.109168325 1133.97363281 l 1
 692.394025844 1125.97363281 l 1
 708.36355181 1125.10644531 l 1
 708.36355181 1110 l 1
 708.36355181 991 l 1
 708.36355181 974.053710938 l 1
 690.449019477 975.026367188 l 1
 543.164161957 983.026367188 l 1
 527.195670019 983.893554688 l 1
285.796700558 975 m 1
 290.921342534 994.799804688 l 1
 321.204915894 1111.79980469 l 1
 324.312169554 1123.80175781 l 1
 337.393655762 1123.99804688 l 1
 470.913534671 1125.99804688 l 1
 488.123894045 1126.25585938 l 1
 488.123894045 1110 l 1
 488.123894045 991 l 1
 488.123894045 975 l 1
 471.182381909 975 l 1
 307.378929641 975 l 1
 285.796700558 975 l 1
59.7998046875 10.8759765625 m 1
 65.548828125 26.7294921875 l 1
 398.757003918 917.2890625 l 1
 402.753521521 928.06640625 l 1
 414.845443085 928 l 1
 595.166456075 927 l 1
 607.172553329 926.93359375 l 1
 611.084280649 916.212890625 l 1
 938.756835938 25.693359375 l 1
 944.005859375 10.9814453125 l 1
 928.73828125 5.837890625 l 1
 836.73828125 -25.162109375 l 1
 821.647460938 -30.2470703125 l 1
 816.491210938 -15.1806640625 l 1
 742.710854582 192.780273438 l 1
 267.614355014 184.22265625 l 1
 203.92578125 -10.7568359375 l 1
 199.392578125 -25.314453125 l 1
 184.633789062 -21.48828125 l 1
 76.6337890625 6.51171875 l 1
 59.7998046875 10.8759765625 l 1
506.631958359 735.984375 m 1
 331.834722092 295.057617188 l 1
 705.706100261 295.939453125 l 1
 506.631958359 735.984375 l 1
EndSplineSet
EndChar

StartChar: Aring
Encoding: 197 197 132
Width: 979
VWidth: 1024
Flags: W
HStem: 184.223 110.835<331.835 705.706> 982 76.2119<470.229 528.809> 1098 76<474.427 527.228>
VStem: 370.275 99.9543<1058.35 1096.94> 528.572 102.708<1059.02 1097.51>
LayerCount: 2
Fore
SplineSet
506.631958359 735.984375 m 1
 331.834722092 295.057617188 l 1
 705.706100261 295.939453125 l 1
 506.631958359 735.984375 l 1
59.7998046875 10.8759765625 m 1
 65.548828125 26.7294921875 l 1
 398.757003918 917.2890625 l 1
 402.753521521 928.06640625 l 1
 414.845443085 928 l 1
 595.166456075 927 l 1
 607.172553329 926.93359375 l 1
 611.084280649 916.212890625 l 1
 938.756835938 25.693359375 l 1
 944.005859375 10.9814453125 l 1
 928.73828125 5.837890625 l 1
 836.73828125 -25.162109375 l 1
 821.647460938 -30.2470703125 l 1
 816.491210938 -15.1806640625 l 1
 742.710854582 192.780273438 l 1
 267.614355014 184.22265625 l 1
 203.92578125 -10.7568359375 l 1
 199.392578125 -25.314453125 l 1
 184.633789062 -21.48828125 l 1
 76.6337890625 6.51171875 l 1
 59.7998046875 10.8759765625 l 1
446.4050068 982 m 2
 381.666591773 982 370.274707056 1005.53125 370.274707056 1070 c 0
 370.274707056 1156.10644531 395.67249887 1174 508.347410546 1174 c 0
 614.540001691 1174 631.279878398 1155.77636719 631.279878398 1081 c 2
 631.279878398 1043 l 2
 631.279878398 1023.83886719 632.72027918 1006.70410156 619.048363075 993.809570312 c 0
 605.920345614 981.427734375 588.296375104 982 567.537232182 982 c 2
 446.4050068 982 l 2
470.983848564 1058.21191406 m 0
 474.831466158 1057.40332031 483.554525019 1057 497.336048074 1057 c 0
 515.234035963 1057 525.113137949 1058.28222656 526.843066526 1058.953125 c 0
 527.459347119 1060.36132812 528.571961075 1066.70898438 528.571961075 1078 c 0
 528.571961075 1086.7890625 529.477769463 1094.80078125 529.730072256 1097.83496094 c 1
 525.165873369 1098.00976562 520.658546013 1098 513.853608796 1098 c 0
 469.71716446 1098 470.229008241 1099.140625 470.229008241 1078 c 0
 470.229008241 1067.86132812 470.561965205 1060.47363281 470.983848564 1058.21191406 c 0
EndSplineSet
EndChar

StartChar: AE
Encoding: 198 198 133
Width: 1410
VWidth: 1024
Flags: W
HStem: -26 144.997<899.199 1359.4> 178.316 131.426<423.158 634.206> 192.494 104.215<517.906 728.954> 334 131<899.199 1324.41> 788.596 130.404<899.199 1344.41>
VStem: 728.954 170.245<296.709 340.725 457.315 768.508> 743.169 156.031<-26 -25.002 111.016 192.494>
LayerCount: 2
Fore
SplineSet
736.137217724 768.5078125 m 1xbc
 423.157567936 309.7421875 l 1xdc
 728.954462009 296.708984375 l 1
 736.137217724 768.5078125 l 1xbc
1332.91992188 118.997070312 m 1
 1343.03027344 119.75 l 2
 1359.09082031 119.75 1359.40527344 103 1359.40527344 103 c 1
 1359.40527344 -26 l 1
 1343.40527344 -26 l 2
 1177.37416369 -26 1105.60311599 -25.0517578125 897.132662774 -25.001953125 c 1
 897.132662774 -26 l 1
 743.168608821 -26 l 1
 743.168608821 192.494140625 l 1xba
 636.563516828 189.190429688 385.783625335 180.067382812 337.77076822 178.31640625 c 1
 195.456054688 -24.533203125 l 1
 58.5 14.2275390625 l 1
 617.48652936 917.927734375 l 1
 758.603763559 919 l 1
 1344.40527344 919 l 1
 1344.40527344 788.595703125 l 1
 1328.40527344 788.595703125 l 2
 1162.81288735 788.595703125 1081.79749783 794.061523438 899.199294371 795.262695312 c 1xda
 899.199294371 457.315429688 l 1
 1303.24902344 465 l 1
 1324.40527344 465 l 1
 1324.40527344 334 l 1
 1303.26855469 334 l 1
 899.199294371 340.724609375 l 1xdc
 899.199294371 111.015625 l 1xda
 1102.3820769 111.421875 1175.77272602 118.825195312 1332.91992188 118.997070312 c 1
EndSplineSet
EndChar

StartChar: Ccedilla
Encoding: 199 199 134
Width: 835
VWidth: 1024
Flags: W
HStem: -248 65<443.575 555.257> -94 77<529.382 554.05> -15 135.322<538.482 548.95 608.441 758> 808 133<353.804 534 545.016 762.968>
VStem: 76.7002 159.42<254.102 413.912 462.76 679.34> 557.051 89.5488<-181.653 -95.0774> 781.438 0.392578<12.7373 15.4824>
LayerCount: 2
Fore
SplineSet
484.740234375 -121.118164062 m 1
 487.797263243 -112.71875 l 1
 489.210867703 -110.71875 l 1
 490.45985256 -108.951171875 l 1
 491.169309944 -106.946289062 l 2
 491.345612229 -106.447265625 491.315874494 -106.509765625 491.609003593 -105.845703125 c 0
 493.356095506 -105.271484375 502.65625 -94 519.862304688 -94 c 0
 552.12890625 -94 557.05078125 -97.88671875 557.05078125 -134 c 4
 557.05078125 -167.811523438 552.259765625 -183 515.62109375 -183 c 0
 486.470703125 -183 472.133789062 -152.486328125 472.133789062 -152.486328125 c 1
 472.133789062 -152.486328125 390.799804688 -178.26171875 390.484375 -177.53125 c 0
 396.703125 -190.46875 l 2
 423.321289062 -245.845703125 432.233368045 -248 519.861975669 -248 c 0
 621.88895719 -248 646.599609375 -224.491210938 646.599609375 -134 c 0
 646.599609375 -43.0673828125 624.849985915 -17 534.000144388 -17 c 0
 532.01090235 -17 533.743125395 -16.986328125 529.382299016 -17.03125 c 2
 530.259562189 -15 l 1
 553.926550751 -15 595.616730657 -24.09765625 608.441128741 -9.365234375 c 1
 735.778320312 -10.8564453125 777.454101562 -15.15234375 781.438476562 12.7373046875 c 2
 781.831054688 15.482421875 l 1
 781.276367188 18.09375 l 1
 761.276367188 112.290039062 l 1
 758 126 l 1
 733.31640625 122.428710938 l 1
 711.643554688 121.009765625 548.898749466 120.134765625 548.949728439 120.322265625 c 1
 323.48353436 168.315429688 236.120442224 183.69140625 236.120442224 413.912109375 c 2
 236.120442224 462.759765625 l 1
 243.136423486 738.454101562 280.037766046 808 534.000144388 808 c 2
 544.771576716 808 l 2
 635.283203125 807.002929688 683.294921875 806 710.599609375 806 c 0
 730.37890625 806 751.439453125 796.158203125 759.948242188 819.337890625 c 2
 782.203125 917.4609375 l 1
 782.599609375 919.208007812 l 1
 782.599609375 921 l 2
 782.599609375 950.956054688 721.126953125 938.267578125 545.015850965 941 c 2
 525.517455569 941 l 2
 138.256835938 941 82.748046875 824.061523438 76.7001953125 465.364257812 c 1
 76.7001953125 413.020507812 l 2
 76.7001953125 154.891601562 120.87890625 38.486328125 345.733732277 3.4306640625 c 1
 349.310756935 -18.001953125 398.743368478 -12.1953125 436.316996254 -13.28515625 c 1
 407.612647849 -77.9541015625 l 1
 401.209476333 -92.3779296875 l 1
 484.740234375 -121.118164062 l 1
EndSplineSet
EndChar

StartChar: Egrave
Encoding: 200 200 135
Width: 782
VWidth: 1024
Flags: W
HStem: 4 140.172<244.6 726.94> 817.963 131.037<244.6 711.94>
VStem: 93.5996 151<136.453 368.104 487.343 824.635>
LayerCount: 2
Fore
SplineSet
710.940429688 4 m 1
 226.599609375 4 l 1
 224.599609375 4 l 1
 109.599609375 4 l 1
 93.599609375 4 l 1
 93.599609375 19.466796875 l 1
 93.599609375 933 l 1
 93.599609375 949 l 1
 109.599609375 949 l 1
 695.940429688 949 l 1
 711.940429688 949 l 1
 711.940429688 933 l 1
 711.940429688 833.4296875 l 1
 711.940429688 817.962890625 l 1
 695.940429688 817.962890625 l 2
 527.232245273 817.962890625 440.265458379 823.432617188 244.599609375 824.634765625 c 1
 244.599609375 487.342773438 l 1
 674.979492188 510.5234375 l 1
 691.940429688 511.510742188 l 1
 691.940429688 495.083984375 l 2
 691.940429688 465.168945312 688.940429688 427.469726562 688.940429688 399.380859375 c 2
 688.940429688 384.538085938 l 1
 673.599609375 383.926757812 l 1
 244.599609375 368.104492188 l 1
 244.599609375 136.453125 l 1
 464.978480603 136.845703125 550.25758061 144.171875 710.940429688 144.171875 c 2
 726.940429688 144.171875 l 1
 726.940429688 128.704101562 l 1
 726.940429688 19.466796875 l 1
 726.940429688 4 l 1
 710.940429688 4 l 1
356.741210938 995 m 5
 351.426757812 1000.62304688 l 5
 213.420898438 1150.62304688 l 5
 190.947265625 1177 l 5
 225.599609375 1177 l 5
 428.383789062 1177 l 5
 439.497070312 1177 l 5
 444.350585938 1167.98632812 l 5
 525.103515625 1017.98632812 l 5
 537.477539062 995 l 5
 509.13671875 995 l 5
 364.935546875 995 l 5
 356.741210938 995 l 5
EndSplineSet
EndChar

StartChar: Eacute
Encoding: 201 201 136
Width: 783
VWidth: 1024
Flags: W
HStem: 0 129.162<244.6 726.94> 353 129<244.6 691.94> 798.616 128.384<244.6 711.94> 979.009 175.99<418.005 526.725>
VStem: 93.5996 151<129.162 359.726 474.314 805.278>
LayerCount: 2
Fore
SplineSet
358.178664697 974.28125 m 1
 365.233802496 995.578125 l 1
 414.262298106 1143.578125 l 1
 418.004890014 1154.87597656 l 1
 431.081755284 1154.99902344 l 1
 635.772460938 1156.99902344 l 1
 668.77734375 1157.34472656 l 1
 648.604492188 1131.22070312 l 1
 531.836012453 985.220703125 l 1
 526.725289263 979.254882812 l 1
 518.369181021 979.008789062 l 1
 382.820193124 975.008789062 l 1
 358.178664697 974.28125 l 1
700.49609375 136.796875 m 1
 710.565429688 137.516601562 l 2
 726.625976562 137.516601562 726.940429688 121.493164062 726.940429688 121.493164062 c 1
 726.940429688 0 l 1
 93.599609375 0 l 1
 93.599609375 927 l 1
 711.940429688 927 l 1
 711.940429688 798.616210938 l 1
 695.940429688 798.616210938 l 2
 527.232245273 798.616210938 440.265458379 804.078125 244.599609375 805.278320312 c 1
 244.599609375 474.314453125 l 1
 671.78515625 482 l 1
 691.940429688 482 l 1
 691.940429688 353 l 1
 671.8046875 353 l 1
 244.599609375 359.725585938 l 1
 244.599609375 129.162109375 l 1
 457.945007591 129.548828125 542.653240468 136.631835938 700.49609375 136.796875 c 1
EndSplineSet
EndChar

StartChar: Ecircumflex
Encoding: 202 202 137
Width: 783
VWidth: 1024
Flags: W
HStem: 0 129.161<244.6 726.94> 353 129<244.6 691.94> 798.616 128.384<244.6 711.94>
VStem: 93.5996 151<129.161 359.726 474.314 805.278>
LayerCount: 2
Fore
SplineSet
547.36749806 977.822265625 m 1
 454.104924143 1035.71972656 l 1
 345.837318936 971.625976562 l 1
 339.499285578 967.873046875 l 1
 332.109426824 969.409179688 l 1
 211.005859375 995.409179688 l 1
 177.6796875 1003.09082031 l 1
 204.93359375 1023.75097656 l 1
 375.844131797 1143.75097656 l 1
 380.435983344 1146.88867188 l 1
 386.196650136 1146.99609375 l 1
 492.904390698 1148.99609375 l 1
 499.923781599 1149.12792969 l 1
 505.143911962 1144.89453125 l 1
 669.641601562 1002.89453125 l 1
 700.6484375 975 l 1
 658.940429688 975 l 1
 557.432957975 975 l 1
 551.913853556 975 l 1
 547.36749806 977.822265625 l 1
700.455078125 136.796875 m 1
 710.565429688 137.516601562 l 2
 726.625976562 137.516601562 726.940429688 121.493164062 726.940429688 121.493164062 c 1
 726.940429688 0 l 1
 93.599609375 0 l 1
 93.599609375 927 l 1
 711.940429688 927 l 1
 711.940429688 798.616210938 l 1
 695.940429688 798.616210938 l 2
 527.232245273 798.616210938 440.265458379 804.078125 244.599609375 805.278320312 c 1
 244.599609375 474.314453125 l 1
 671.78515625 482 l 1
 691.940429688 482 l 1
 691.940429688 353 l 1
 671.8046875 353 l 1
 244.599609375 359.725585938 l 1
 244.599609375 129.161132812 l 1
 462.361374366 129.549804688 541.144288072 136.631835938 700.455078125 136.796875 c 1
EndSplineSet
EndChar

StartChar: Edieresis
Encoding: 203 203 138
Width: 783
VWidth: 1024
Flags: W
HStem: 0 129.161<244.6 726.94> 353 129<244.6 691.94> 798.616 128.384<244.6 711.94>
VStem: 93.5996 151<129.161 359.726 474.314 805.278>
LayerCount: 2
Fore
SplineSet
479.909851617 990.561523438 m 1
 478.497307523 1003.42285156 l 1
 466.960808589 1108.42285156 l 1
 465.029392852 1126 l 1
 484.621942731 1126 l 1
 626.940429688 1126 l 1
 642.940429688 1126 l 1
 642.940429688 1110 l 1
 642.940429688 991 l 1
 642.940429688 973.079101562 l 1
 625.134765625 975.102539062 l 1
 494.155532132 989.102539062 l 1
 479.909851617 990.561523438 l 1
233.338867188 975 m 1
 236.1875 993.442382812 l 1
 252.222692234 1094.44238281 l 1
 254.261348665 1106.33886719 l 1
 267.506116033 1107.87011719 l 1
 423.243435445 1125.87011719 l 1
 443.247616273 1128.18261719 l 1
 443.247616273 1110 l 1
 443.247616273 991 l 1
 443.247616273 975 l 1
 425.499822983 975 l 1
 252.458838409 975 l 1
 233.338867188 975 l 1
700.455078125 136.796875 m 1
 710.565429688 137.516601562 l 2
 726.625976562 137.516601562 726.940429688 121.493164062 726.940429688 121.493164062 c 1
 726.940429688 0 l 1
 93.599609375 0 l 1
 93.599609375 927 l 1
 711.940429688 927 l 1
 711.940429688 798.616210938 l 1
 695.940429688 798.616210938 l 2
 527.232245273 798.616210938 440.265458379 804.078125 244.599609375 805.278320312 c 1
 244.599609375 474.314453125 l 1
 671.78515625 482 l 1
 691.940429688 482 l 1
 691.940429688 353 l 1
 671.8046875 353 l 1
 244.599609375 359.725585938 l 1
 244.599609375 129.161132812 l 1
 462.361374366 129.549804688 541.144288072 136.631835938 700.455078125 136.796875 c 1
EndSplineSet
EndChar

StartChar: Igrave
Encoding: 204 204 139
Width: 342
VWidth: 1024
Flags: W
HStem: 1 21G<179.998 270.998> 910.834 20G<108.998 125.811>
VStem: 108.998 149.999<258.162 923.217> 121.203 149.795<4.26562 670.768>
LayerCount: 2
Fore
SplineSet
136.6953125 975 m 1xc0
 132.092773438 983.084960938 l 1
 58.0927734375 1113.08496094 l 1
 46.7998046875 1132.92480469 l 1
 69.302734375 1136.77148438 l 1
 186.302734375 1156.77148438 l 1
 199.278320312 1158.98925781 l 1
 203.955078125 1146.68359375 l 1
 260.955078125 996.68359375 l 1
 269.194335938 975 l 1
 245.998046875 975 l 1
 145.998046875 975 l 1
 136.6953125 975 l 1xc0
179.998046875 1 m 1
 179.998046875 3.2685546875 l 1
 136.727539062 4.001953125 l 1
 121.203125 4.265625 l 1xd0
 121 19.2626953125 l 1
 108.998046875 903.272460938 l 1
 108.998046875 908.204101562 l 1
 108.998046875 914 l 1
 108.998046875 930.833984375 l 1
 125.810546875 929.979492188 l 1
 243.810546875 923.979492188 l 1
 258.80078125 923.216796875 l 1
 258.997070312 908.712890625 l 1xe0
 270.998046875 21.396484375 l 1
 270.998046875 16.4638671875 l 1
 270.998046875 1 l 1xd0
 254.998046875 1 l 1
 195.998046875 1 l 1
 179.998046875 1 l 1
EndSplineSet
EndChar

StartChar: Iacute
Encoding: 205 205 140
Width: 327
VWidth: 1024
Flags: W
HStem: 1 21G<162.952 253.952> 910.834 20G<91.9521 108.765>
VStem: 91.9521 149.999<258.162 923.217> 104.157 149.795<4.26562 670.768>
LayerCount: 2
Fore
SplineSet
81.900390625 975 m 1xc0
 89.962890625 996.595703125 l 1
 145.962890625 1146.59570312 l 1
 151.198242188 1160.61914062 l 1
 165.5390625 1156.328125 l 1
 292.5390625 1118.328125 l 1
 314.3828125 1111.79296875 l 1
 300.807617188 1093.47363281 l 1
 217.807617188 981.473632812 l 1
 213.009765625 975 l 1
 204.952148438 975 l 1
 104.952148438 975 l 1
 81.900390625 975 l 1xc0
162.952148438 1 m 1
 162.952148438 3.2685546875 l 1
 119.681640625 4.001953125 l 1
 104.157226562 4.265625 l 1xd0
 103.954101562 19.2626953125 l 1
 91.9521484375 903.272460938 l 1
 91.9521484375 908.204101562 l 1
 91.9521484375 914 l 1
 91.9521484375 930.833984375 l 1
 108.764648438 929.979492188 l 1
 226.764648438 923.979492188 l 1
 241.754882812 923.216796875 l 1
 241.951171875 908.712890625 l 1xe0
 253.952148438 21.396484375 l 1
 253.952148438 16.4638671875 l 1
 253.952148438 1 l 1xd0
 237.952148438 1 l 1
 178.952148438 1 l 1
 162.952148438 1 l 1
EndSplineSet
EndChar

StartChar: Icircumflex
Encoding: 206 206 141
Width: 487
VWidth: 1024
Flags: W
HStem: 1 21G<249.39 358.513> 910.834 20G<164.513 181.325>
VStem: 164.513 181.999<258.162 923.217> 176.718 181.795<4.26562 670.768>
LayerCount: 2
Fore
SplineSet
340.732421875 981.176757812 m 1xc0
 269.224903383 1033.53808594 l 1
 191.041536651 978.96875 l 1
 186.597362346 975.8671875 l 1
 180.870117188 975.174804688 l 1
 86.8701171875 961.174804688 l 1
 46.7998046875 955.20703125 l 1
 71.978515625 986.944335938 l 1
 193.450688827 1136.94433594 l 1
 198.045741807 1141.55566406 l 1
 205.300184766 1142.69628906 l 1
 307.043931258 1158.69628906 l 1
 318.137807166 1160.44140625 l 1
 325.77006014 1153.79785156 l 1
 467.3203125 1001.79785156 l 1
 492.478515625 974.286132812 l 1
 455.205078125 975.002929688 l 1
 351.205078125 977.002929688 l 1
 345.18359375 977.119140625 l 1
 340.732421875 981.176757812 l 1xc0
249.389877573 1 m 1
 249.389877573 3.2685546875 l 1
 195.036754898 4.001953125 l 1
 176.717773438 4.265625 l 1xd0
 176.513671875 19.2626953125 l 1
 164.512695312 903.272460938 l 1
 164.512695312 908.204101562 l 1
 164.512695312 914 l 1
 164.512695312 930.833984375 l 1
 181.325195312 929.979492188 l 1
 329.544480327 923.979492188 l 1
 346.315429688 923.216796875 l 1
 346.51171875 908.712890625 l 1xe0
 358.512695312 21.396484375 l 1
 358.512695312 16.4638671875 l 1
 358.512695312 1 l 1xd0
 342.512695312 1 l 1
 269.487407744 1 l 1
 249.389877573 1 l 1
EndSplineSet
EndChar

StartChar: Idieresis
Encoding: 207 207 142
Width: 397
VWidth: 1024
Flags: W
HStem: 1 21G<190.571 281.571> 910.834 20G<119.571 136.384>
VStem: 119.571 149.999<258.162 923.217> 131.776 149.795<4.26562 670.768> 210.574 150.997<975 1114.71>
LayerCount: 2
Fore
SplineSet
210.862304688 975 m 1xc8
 210.57421875 990.706054688 l 1
 208.57421875 1099.70605469 l 1
 208.298828125 1114.70996094 l 1
 223.25390625 1115.9453125 l 1
 344.25390625 1125.9453125 l 1
 361.571289062 1127.37695312 l 1
 361.571289062 1110 l 1
 361.571289062 991 l 1
 361.571289062 975 l 1
 345.571289062 975 l 1
 226.571289062 975 l 1
 210.862304688 975 l 1xc8
48.099609375 975 m 1
 50.7353515625 993.282226562 l 1
 66.7353515625 1104.28222656 l 1
 68.5625 1116.95996094 l 1
 81.33203125 1117.95214844 l 1
 184.33203125 1125.95214844 l 1
 201.571289062 1127.29101562 l 1
 201.571289062 1110 l 1
 201.571289062 991 l 1
 201.571289062 975 l 1
 185.571289062 975 l 1
 66.5712890625 975 l 1
 48.099609375 975 l 1
190.571289062 1 m 1
 190.571289062 3.2685546875 l 1
 147.299804688 4.001953125 l 1
 131.776367188 4.265625 l 1xd0
 131.572265625 19.2626953125 l 1
 119.571289062 903.272460938 l 1
 119.571289062 908.204101562 l 1
 119.571289062 914 l 1
 119.571289062 930.833984375 l 1
 136.383789062 929.979492188 l 1
 254.383789062 923.979492188 l 1
 269.374023438 923.216796875 l 1
 269.5703125 908.712890625 l 1xe0
 281.571289062 21.396484375 l 1
 281.571289062 16.4638671875 l 1
 281.571289062 1 l 1xd0
 265.571289062 1 l 1
 206.571289062 1 l 1
 190.571289062 1 l 1
EndSplineSet
EndChar

StartChar: Eth
Encoding: 208 208 143
Width: 1034
VWidth: 1024
Flags: W
HStem: 0 128<307.564 739.09> 368 133.084<65 155.915> 368 113.754<302.83 483.739> 798 129<295.417 732.701>
VStem: 154 153.564<128.924 368 496.219 795.879> 159 136.417<496.219 798> 804.525 159.275<204.457 733.893>
LayerCount: 2
Fore
SplineSet
288.770774958 0 m 1xd6
 229.561604781 0 l 1
 170 0 l 1
 154 0 l 1
 154 16 l 1
 154 20.8232421875 l 1xda
 155.915039062 368 l 1
 81 368 l 1
 65 368 l 1
 65 383.5546875 l 1
 65 484.661132812 l 1
 65 501.083984375 l 1
 81.8681640625 500.192382812 l 1
 157.076171875 496.21875 l 1
 159 911.515625 l 1
 159.072265625 927 l 1
 175 927 l 1
 224.275071729 927 l 1
 276.083095634 927 l 1
 453.076635209 927 l 2
 896.727539062 927 963.799804688 901.239257812 963.799804688 584.8125 c 0
 963.799804688 547.822265625 962.794921875 508.061523438 961.796875 462.708984375 c 0
 952.737304688 21.9296875 933.266601562 0 494.311593011 0 c 2
 293.633972355 0 l 1
 288.770774958 0 l 1xd6
302.829648792 368 m 1xb6
 304.718138821 277.041992188 306.500278674 193.032226562 307.56378044 128.923828125 c 1xba
 377.326398727 128.793945312 406.581990032 128 481.940899165 128 c 0
 796.757039961 128 792.220120775 122.918945312 801.783376464 463.435546875 c 0
 803.162831182 502.720703125 804.524732958 536.858398438 804.524732958 567.985351562 c 0
 804.524732958 791.8828125 769.314564288 798 459.949128176 798 c 2
 295.417144734 798 l 1
 296.268978673 754.063476562 298.732585677 625.76953125 301.196192681 487.912109375 c 1
 467.508250924 481.75390625 l 1
 483.738526908 481.153320312 l 1
 483.738526908 466.340820312 l 1
 483.738526908 383.42578125 l 1
 483.738526908 368 l 1
 466.821621143 368 l 1
 302.829648792 368 l 1xb6
EndSplineSet
EndChar

